<?xml version="1.0" encoding="UTF-8"?>
<svg xmlns="http://www.w3.org/2000/svg" xmlns:xlink="http://www.w3.org/1999/xlink" width="1920" height="1080" viewBox="0 0 1920 1080">
<defs>
<g>
<g id="glyph-0-0">
<path d="M 1.429688 -1.003906 L 1.808594 -0.871094 C 1.710938 -0.738281 1.597656 -0.609375 1.472656 -0.476562 C 1.347656 -0.347656 1.21875 -0.222656 1.082031 -0.109375 C 0.949219 0.0078125 0.816406 0.109375 0.683594 0.199219 C 0.660156 0.175781 0.628906 0.148438 0.589844 0.117188 C 0.550781 0.0859375 0.507812 0.0546875 0.46875 0.0234375 C 0.425781 -0.00390625 0.390625 -0.0273438 0.359375 -0.046875 C 0.558594 -0.164062 0.753906 -0.3125 0.949219 -0.484375 C 1.140625 -0.652344 1.300781 -0.828125 1.429688 -1.003906 M 3.191406 -0.855469 L 3.484375 -1.050781 C 3.617188 -0.953125 3.757812 -0.847656 3.902344 -0.726562 C 4.046875 -0.609375 4.1875 -0.492188 4.316406 -0.378906 C 4.449219 -0.261719 4.558594 -0.160156 4.640625 -0.0664062 L 4.320312 0.160156 C 4.238281 0.0664062 4.136719 -0.0390625 4.011719 -0.15625 C 3.882812 -0.277344 3.75 -0.398438 3.605469 -0.519531 C 3.460938 -0.644531 3.324219 -0.753906 3.191406 -0.855469 M 2.355469 -1.464844 L 2.734375 -1.464844 L 2.734375 -0.0546875 C 2.734375 0.046875 2.722656 0.128906 2.691406 0.1875 C 2.664062 0.246094 2.609375 0.289062 2.523438 0.320312 C 2.445312 0.351562 2.339844 0.367188 2.210938 0.375 C 2.085938 0.382812 1.929688 0.386719 1.746094 0.386719 C 1.734375 0.328125 1.714844 0.265625 1.6875 0.195312 C 1.660156 0.125 1.628906 0.0664062 1.601562 0.015625 C 1.703125 0.0195312 1.800781 0.0195312 1.886719 0.0234375 C 1.976562 0.0234375 2.050781 0.0234375 2.117188 0.0234375 C 2.183594 0.0234375 2.226562 0.0234375 2.253906 0.0195312 C 2.296875 0.015625 2.324219 0.0078125 2.335938 -0.00390625 C 2.347656 -0.015625 2.355469 -0.0351562 2.355469 -0.0585938 L 2.355469 -1.464844 M 3.570312 -4.199219 L 3.84375 -3.898438 C 3.632812 -3.808594 3.394531 -3.71875 3.136719 -3.636719 C 2.875 -3.550781 2.601562 -3.472656 2.308594 -3.398438 C 2.019531 -3.328125 1.726562 -3.257812 1.425781 -3.199219 C 1.125 -3.136719 0.828125 -3.078125 0.539062 -3.023438 C 0.535156 -3.070312 0.519531 -3.125 0.496094 -3.1875 C 0.472656 -3.25 0.449219 -3.300781 0.429688 -3.339844 C 0.714844 -3.390625 1 -3.449219 1.296875 -3.511719 C 1.589844 -3.578125 1.875 -3.648438 2.152344 -3.71875 C 2.429688 -3.792969 2.691406 -3.871094 2.933594 -3.949219 C 3.179688 -4.03125 3.390625 -4.113281 3.570312 -4.199219 M 0.644531 -1.066406 C 0.640625 -1.089844 0.632812 -1.125 0.621094 -1.171875 C 0.605469 -1.214844 0.59375 -1.257812 0.578125 -1.308594 C 0.5625 -1.355469 0.546875 -1.394531 0.535156 -1.425781 C 0.613281 -1.433594 0.710938 -1.460938 0.824219 -1.503906 C 0.9375 -1.542969 1.070312 -1.601562 1.21875 -1.671875 C 1.304688 -1.707031 1.425781 -1.765625 1.59375 -1.847656 C 1.757812 -1.929688 1.945312 -2.027344 2.15625 -2.148438 C 2.363281 -2.265625 2.582031 -2.394531 2.808594 -2.539062 C 3.035156 -2.679688 3.253906 -2.828125 3.460938 -2.984375 L 3.746094 -2.734375 C 3.285156 -2.410156 2.816406 -2.125 2.335938 -1.878906 C 1.855469 -1.628906 1.382812 -1.414062 0.914062 -1.234375 L 0.914062 -1.21875 C 0.914062 -1.21875 0.902344 -1.214844 0.875 -1.207031 C 0.847656 -1.199219 0.816406 -1.1875 0.78125 -1.171875 C 0.742188 -1.15625 0.710938 -1.140625 0.683594 -1.121094 C 0.660156 -1.105469 0.644531 -1.085938 0.644531 -1.066406 M 0.644531 -1.066406 L 0.636719 -1.351562 L 0.894531 -1.488281 L 4.140625 -1.710938 C 4.132812 -1.660156 4.128906 -1.601562 4.128906 -1.539062 C 4.128906 -1.472656 4.132812 -1.421875 4.136719 -1.386719 C 3.636719 -1.347656 3.203125 -1.316406 2.84375 -1.289062 C 2.480469 -1.261719 2.175781 -1.238281 1.933594 -1.21875 C 1.6875 -1.199219 1.488281 -1.183594 1.332031 -1.171875 C 1.175781 -1.15625 1.054688 -1.144531 0.96875 -1.132812 C 0.878906 -1.121094 0.8125 -1.109375 0.765625 -1.101562 C 0.71875 -1.089844 0.679688 -1.078125 0.644531 -1.066406 M 0.914062 -2.113281 C 0.910156 -2.140625 0.902344 -2.175781 0.890625 -2.222656 C 0.878906 -2.265625 0.867188 -2.3125 0.851562 -2.359375 C 0.835938 -2.402344 0.824219 -2.441406 0.808594 -2.476562 C 0.867188 -2.480469 0.925781 -2.5 0.992188 -2.523438 C 1.058594 -2.550781 1.132812 -2.585938 1.214844 -2.628906 C 1.273438 -2.660156 1.367188 -2.714844 1.496094 -2.792969 C 1.628906 -2.871094 1.773438 -2.964844 1.933594 -3.078125 C 2.09375 -3.1875 2.246094 -3.308594 2.386719 -3.429688 L 2.714844 -3.21875 C 2.46875 -3.03125 2.214844 -2.855469 1.949219 -2.699219 C 1.6875 -2.539062 1.425781 -2.40625 1.171875 -2.296875 L 1.171875 -2.285156 C 1.171875 -2.285156 1.15625 -2.28125 1.132812 -2.269531 C 1.109375 -2.261719 1.078125 -2.246094 1.046875 -2.226562 C 1.011719 -2.210938 0.980469 -2.191406 0.953125 -2.171875 C 0.929688 -2.148438 0.914062 -2.132812 0.914062 -2.113281 M 0.914062 -2.113281 L 0.914062 -2.386719 L 1.128906 -2.5 L 3.003906 -2.59375 C 2.996094 -2.546875 2.984375 -2.496094 2.976562 -2.433594 C 2.96875 -2.375 2.964844 -2.328125 2.964844 -2.289062 C 2.621094 -2.269531 2.335938 -2.253906 2.101562 -2.238281 C 1.871094 -2.222656 1.683594 -2.210938 1.539062 -2.199219 C 1.390625 -2.1875 1.28125 -2.175781 1.199219 -2.167969 C 1.121094 -2.160156 1.058594 -2.152344 1.015625 -2.140625 C 0.976562 -2.132812 0.941406 -2.125 0.914062 -2.113281 M 3.320312 -2.179688 L 3.628906 -2.335938 C 3.753906 -2.21875 3.878906 -2.09375 4.011719 -1.960938 C 4.144531 -1.828125 4.265625 -1.695312 4.378906 -1.566406 C 4.488281 -1.4375 4.578125 -1.328125 4.648438 -1.230469 L 4.328125 -1.035156 C 4.261719 -1.136719 4.175781 -1.257812 4.0625 -1.390625 C 3.949219 -1.523438 3.828125 -1.660156 3.699219 -1.796875 C 3.566406 -1.9375 3.441406 -2.0625 3.320312 -2.179688 Z "/>
</g>
<g id="glyph-0-1">
<path d="M 2.050781 -3.539062 L 4.703125 -3.539062 L 4.703125 -3.199219 L 2.050781 -3.199219 L 2.050781 -3.539062 M 3.703125 -2.894531 L 3.988281 -3.039062 C 4.078125 -2.921875 4.171875 -2.796875 4.269531 -2.664062 C 4.367188 -2.527344 4.457031 -2.398438 4.539062 -2.269531 C 4.625 -2.144531 4.6875 -2.03125 4.734375 -1.933594 L 4.425781 -1.765625 C 4.382812 -1.863281 4.320312 -1.976562 4.238281 -2.109375 C 4.160156 -2.238281 4.074219 -2.375 3.980469 -2.511719 C 3.886719 -2.652344 3.796875 -2.777344 3.703125 -2.894531 M 3.511719 -1.761719 L 3.859375 -1.761719 L 3.859375 -0.195312 C 3.859375 -0.132812 3.867188 -0.0898438 3.882812 -0.0742188 C 3.898438 -0.0546875 3.933594 -0.046875 3.988281 -0.046875 C 4.007812 -0.046875 4.039062 -0.046875 4.085938 -0.046875 C 4.132812 -0.046875 4.179688 -0.046875 4.230469 -0.046875 C 4.28125 -0.046875 4.316406 -0.046875 4.335938 -0.046875 C 4.371094 -0.046875 4.398438 -0.0625 4.421875 -0.09375 C 4.441406 -0.125 4.453125 -0.1875 4.460938 -0.289062 C 4.464844 -0.386719 4.472656 -0.535156 4.476562 -0.738281 C 4.5 -0.71875 4.535156 -0.699219 4.574219 -0.679688 C 4.609375 -0.660156 4.648438 -0.640625 4.691406 -0.628906 C 4.730469 -0.613281 4.765625 -0.601562 4.796875 -0.589844 C 4.789062 -0.363281 4.769531 -0.1875 4.742188 -0.0585938 C 4.714844 0.0703125 4.671875 0.160156 4.613281 0.210938 C 4.554688 0.261719 4.472656 0.285156 4.371094 0.285156 C 4.351562 0.285156 4.324219 0.285156 4.285156 0.285156 C 4.246094 0.285156 4.199219 0.285156 4.152344 0.285156 C 4.105469 0.285156 4.058594 0.285156 4.019531 0.285156 C 3.980469 0.285156 3.953125 0.285156 3.933594 0.285156 C 3.820312 0.285156 3.734375 0.269531 3.671875 0.242188 C 3.609375 0.214844 3.566406 0.164062 3.546875 0.09375 C 3.523438 0.0234375 3.511719 -0.0703125 3.511719 -0.195312 L 3.511719 -1.761719 M 2.609375 -1.765625 L 2.96875 -1.765625 C 2.960938 -1.476562 2.941406 -1.222656 2.910156 -0.992188 C 2.878906 -0.765625 2.828125 -0.5625 2.757812 -0.386719 C 2.6875 -0.207031 2.582031 -0.0546875 2.449219 0.078125 C 2.316406 0.214844 2.140625 0.328125 1.925781 0.421875 C 1.910156 0.390625 1.890625 0.355469 1.867188 0.320312 C 1.84375 0.285156 1.816406 0.246094 1.789062 0.210938 C 1.757812 0.175781 1.730469 0.148438 1.699219 0.128906 C 1.898438 0.0507812 2.054688 -0.046875 2.171875 -0.160156 C 2.285156 -0.273438 2.375 -0.40625 2.4375 -0.558594 C 2.5 -0.710938 2.542969 -0.886719 2.566406 -1.085938 C 2.589844 -1.285156 2.601562 -1.511719 2.609375 -1.765625 M 2.179688 -1.875 L 2.171875 -2.15625 L 2.386719 -2.273438 L 4.335938 -2.441406 C 4.335938 -2.394531 4.339844 -2.339844 4.34375 -2.28125 C 4.351562 -2.21875 4.359375 -2.171875 4.363281 -2.140625 C 3.996094 -2.101562 3.6875 -2.074219 3.4375 -2.046875 C 3.1875 -2.023438 2.988281 -2 2.835938 -1.984375 C 2.683594 -1.96875 2.5625 -1.953125 2.476562 -1.941406 C 2.386719 -1.929688 2.324219 -1.921875 2.28125 -1.910156 C 2.242188 -1.898438 2.207031 -1.886719 2.179688 -1.875 M 2.925781 -4.105469 L 3.253906 -4.203125 C 3.316406 -4.09375 3.382812 -3.972656 3.449219 -3.835938 C 3.511719 -3.699219 3.558594 -3.585938 3.589844 -3.496094 L 3.25 -3.363281 C 3.214844 -3.457031 3.171875 -3.574219 3.109375 -3.71875 C 3.050781 -3.859375 2.988281 -3.988281 2.925781 -4.105469 M 2.179688 -1.875 C 2.171875 -1.910156 2.164062 -1.949219 2.148438 -1.992188 C 2.136719 -2.039062 2.121094 -2.082031 2.105469 -2.128906 C 2.089844 -2.171875 2.074219 -2.207031 2.058594 -2.230469 C 2.101562 -2.242188 2.152344 -2.261719 2.207031 -2.28125 C 2.261719 -2.304688 2.3125 -2.335938 2.359375 -2.378906 C 2.394531 -2.414062 2.441406 -2.472656 2.507812 -2.558594 C 2.574219 -2.648438 2.640625 -2.746094 2.71875 -2.851562 C 2.792969 -2.960938 2.863281 -3.066406 2.933594 -3.167969 C 3 -3.269531 3.054688 -3.351562 3.09375 -3.410156 L 3.515625 -3.410156 C 3.457031 -3.328125 3.390625 -3.226562 3.3125 -3.109375 C 3.234375 -2.992188 3.152344 -2.871094 3.066406 -2.746094 C 2.984375 -2.621094 2.898438 -2.503906 2.820312 -2.398438 C 2.738281 -2.289062 2.671875 -2.195312 2.609375 -2.121094 C 2.609375 -2.121094 2.59375 -2.113281 2.566406 -2.105469 C 2.535156 -2.09375 2.5 -2.082031 2.457031 -2.066406 C 2.414062 -2.046875 2.375 -2.027344 2.332031 -2.007812 C 2.289062 -1.984375 2.253906 -1.964844 2.226562 -1.941406 C 2.195312 -1.921875 2.179688 -1.898438 2.179688 -1.875 M 1.421875 -2.230469 L 1.71875 -2.308594 C 1.761719 -2.199219 1.808594 -2.082031 1.851562 -1.953125 C 1.898438 -1.828125 1.9375 -1.707031 1.972656 -1.585938 C 2.007812 -1.46875 2.035156 -1.363281 2.050781 -1.273438 L 1.734375 -1.171875 C 1.722656 -1.261719 1.699219 -1.367188 1.664062 -1.488281 C 1.632812 -1.609375 1.59375 -1.734375 1.550781 -1.863281 C 1.511719 -1.996094 1.464844 -2.117188 1.421875 -2.230469 M 0.929688 -0.945312 L 1.203125 -0.996094 C 1.238281 -0.816406 1.269531 -0.625 1.296875 -0.421875 C 1.320312 -0.214844 1.339844 -0.0390625 1.34375 0.109375 L 1.058594 0.171875 C 1.058594 0.0664062 1.046875 -0.046875 1.03125 -0.175781 C 1.015625 -0.300781 1 -0.433594 0.984375 -0.566406 C 0.96875 -0.703125 0.949219 -0.828125 0.929688 -0.945312 M 0.421875 -0.984375 L 0.71875 -0.929688 C 0.691406 -0.710938 0.65625 -0.488281 0.613281 -0.265625 C 0.566406 -0.0429688 0.519531 0.148438 0.464844 0.304688 C 0.433594 0.289062 0.390625 0.269531 0.328125 0.25 C 0.265625 0.230469 0.214844 0.214844 0.175781 0.199219 C 0.234375 0.0429688 0.285156 -0.140625 0.324219 -0.351562 C 0.363281 -0.5625 0.398438 -0.773438 0.421875 -0.984375 M 0.296875 -2.328125 C 0.289062 -2.351562 0.277344 -2.386719 0.265625 -2.429688 C 0.25 -2.472656 0.238281 -2.515625 0.21875 -2.5625 C 0.203125 -2.609375 0.1875 -2.644531 0.175781 -2.675781 C 0.21875 -2.683594 0.261719 -2.714844 0.308594 -2.761719 C 0.351562 -2.8125 0.402344 -2.875 0.453125 -2.953125 C 0.492188 -3 0.550781 -3.089844 0.628906 -3.21875 C 0.707031 -3.351562 0.789062 -3.503906 0.878906 -3.675781 C 0.96875 -3.851562 1.046875 -4.03125 1.113281 -4.210938 L 1.464844 -4.066406 C 1.382812 -3.878906 1.289062 -3.691406 1.183594 -3.507812 C 1.082031 -3.324219 0.976562 -3.148438 0.863281 -2.980469 C 0.753906 -2.8125 0.644531 -2.664062 0.535156 -2.53125 L 0.535156 -2.523438 C 0.535156 -2.523438 0.523438 -2.519531 0.496094 -2.503906 C 0.472656 -2.492188 0.445312 -2.476562 0.414062 -2.453125 C 0.378906 -2.433594 0.351562 -2.414062 0.328125 -2.390625 C 0.308594 -2.371094 0.296875 -2.351562 0.296875 -2.328125 M 0.296875 -2.328125 L 0.285156 -2.605469 L 0.464844 -2.710938 L 1.355469 -2.789062 C 1.34375 -2.742188 1.335938 -2.691406 1.332031 -2.628906 C 1.328125 -2.570312 1.324219 -2.523438 1.324219 -2.484375 C 1.121094 -2.460938 0.957031 -2.441406 0.832031 -2.425781 C 0.707031 -2.414062 0.609375 -2.398438 0.539062 -2.386719 C 0.464844 -2.375 0.414062 -2.367188 0.378906 -2.359375 C 0.34375 -2.347656 0.316406 -2.339844 0.296875 -2.328125 M 0.328125 -1.199219 C 0.324219 -1.226562 0.3125 -1.261719 0.300781 -1.300781 C 0.285156 -1.34375 0.273438 -1.386719 0.253906 -1.433594 C 0.238281 -1.476562 0.222656 -1.515625 0.210938 -1.546875 C 0.261719 -1.558594 0.320312 -1.59375 0.378906 -1.652344 C 0.441406 -1.710938 0.507812 -1.785156 0.585938 -1.875 C 0.625 -1.921875 0.683594 -1.996094 0.761719 -2.101562 C 0.839844 -2.203125 0.929688 -2.324219 1.03125 -2.46875 C 1.128906 -2.609375 1.230469 -2.761719 1.328125 -2.925781 C 1.429688 -3.09375 1.523438 -3.257812 1.605469 -3.425781 L 1.925781 -3.238281 C 1.796875 -3.011719 1.65625 -2.789062 1.507812 -2.570312 C 1.359375 -2.351562 1.203125 -2.140625 1.046875 -1.941406 C 0.886719 -1.738281 0.726562 -1.558594 0.566406 -1.394531 L 0.566406 -1.386719 C 0.566406 -1.386719 0.554688 -1.378906 0.53125 -1.367188 C 0.507812 -1.355469 0.480469 -1.339844 0.449219 -1.324219 C 0.414062 -1.304688 0.386719 -1.285156 0.363281 -1.261719 C 0.339844 -1.242188 0.328125 -1.21875 0.328125 -1.199219 M 0.328125 -1.199219 L 0.316406 -1.480469 L 0.496094 -1.59375 L 1.769531 -1.765625 C 1.765625 -1.71875 1.761719 -1.664062 1.761719 -1.609375 C 1.757812 -1.550781 1.753906 -1.5 1.753906 -1.460938 C 1.464844 -1.421875 1.230469 -1.386719 1.050781 -1.355469 C 0.875 -1.324219 0.738281 -1.300781 0.640625 -1.28125 C 0.542969 -1.265625 0.472656 -1.25 0.429688 -1.238281 C 0.386719 -1.226562 0.351562 -1.214844 0.328125 -1.199219 M 1.410156 -1.039062 L 1.671875 -1.113281 C 1.71875 -0.980469 1.769531 -0.835938 1.824219 -0.671875 C 1.875 -0.511719 1.910156 -0.371094 1.933594 -0.253906 L 1.660156 -0.164062 C 1.640625 -0.285156 1.605469 -0.425781 1.558594 -0.589844 C 1.507812 -0.753906 1.460938 -0.902344 1.410156 -1.039062 Z "/>
</g>
<g id="glyph-0-2">
<path d="M 2.621094 -3.738281 L 2.984375 -3.730469 C 2.964844 -3.140625 2.929688 -2.589844 2.882812 -2.082031 C 2.835938 -1.574219 2.753906 -1.113281 2.644531 -0.699219 C 2.535156 -0.28125 2.378906 0.0820312 2.175781 0.398438 C 2.152344 0.378906 2.121094 0.355469 2.078125 0.328125 C 2.039062 0.304688 2 0.277344 1.957031 0.25 C 1.914062 0.222656 1.882812 0.203125 1.855469 0.183594 C 2.058594 -0.105469 2.210938 -0.449219 2.316406 -0.847656 C 2.421875 -1.246094 2.496094 -1.6875 2.539062 -2.175781 C 2.582031 -2.664062 2.609375 -3.1875 2.621094 -3.738281 M 2.140625 -3.925781 L 3.976562 -3.925781 L 3.976562 -3.585938 L 2.140625 -3.585938 L 2.140625 -3.925781 M 3.695312 -2.519531 L 4.449219 -2.519531 L 4.449219 -2.183594 L 3.589844 -2.183594 L 3.695312 -2.519531 M 4.335938 -2.519531 L 4.40625 -2.519531 L 4.46875 -2.535156 L 4.699219 -2.441406 C 4.597656 -1.957031 4.449219 -1.53125 4.253906 -1.164062 C 4.0625 -0.792969 3.832031 -0.480469 3.570312 -0.222656 C 3.308594 0.0351562 3.019531 0.242188 2.710938 0.398438 C 2.691406 0.375 2.671875 0.339844 2.640625 0.304688 C 2.609375 0.269531 2.578125 0.234375 2.546875 0.199219 C 2.511719 0.167969 2.480469 0.140625 2.453125 0.121094 C 2.757812 -0.0195312 3.035156 -0.207031 3.285156 -0.441406 C 3.535156 -0.675781 3.75 -0.960938 3.933594 -1.296875 C 4.113281 -1.628906 4.25 -2.011719 4.335938 -2.445312 L 4.335938 -2.519531 M 2.894531 -2.570312 C 2.976562 -2.285156 3.082031 -2.003906 3.203125 -1.734375 C 3.328125 -1.460938 3.472656 -1.207031 3.636719 -0.976562 C 3.796875 -0.742188 3.980469 -0.535156 4.175781 -0.351562 C 4.375 -0.171875 4.589844 -0.0234375 4.820312 0.0859375 C 4.78125 0.117188 4.734375 0.164062 4.6875 0.21875 C 4.640625 0.277344 4.601562 0.328125 4.570312 0.375 C 4.257812 0.203125 3.972656 -0.0234375 3.71875 -0.3125 C 3.460938 -0.601562 3.242188 -0.929688 3.054688 -1.300781 C 2.867188 -1.675781 2.714844 -2.066406 2.589844 -2.484375 L 2.894531 -2.570312 M 3.914062 -3.925781 L 4.285156 -3.925781 C 4.234375 -3.734375 4.179688 -3.535156 4.121094 -3.320312 C 4.0625 -3.105469 4.003906 -2.902344 3.949219 -2.703125 C 3.890625 -2.503906 3.835938 -2.332031 3.789062 -2.183594 L 3.425781 -2.183594 C 3.476562 -2.339844 3.535156 -2.515625 3.59375 -2.714844 C 3.652344 -2.914062 3.707031 -3.121094 3.765625 -3.332031 C 3.820312 -3.542969 3.871094 -3.742188 3.914062 -3.925781 M 1.496094 -2.21875 L 1.785156 -2.316406 C 1.839844 -2.207031 1.886719 -2.089844 1.933594 -1.964844 C 1.980469 -1.839844 2.023438 -1.714844 2.066406 -1.601562 C 2.105469 -1.484375 2.136719 -1.382812 2.15625 -1.296875 L 1.835938 -1.175781 C 1.816406 -1.269531 1.792969 -1.375 1.757812 -1.492188 C 1.722656 -1.609375 1.683594 -1.734375 1.636719 -1.863281 C 1.59375 -1.992188 1.546875 -2.109375 1.496094 -2.21875 M 0.984375 -0.945312 L 1.289062 -1 C 1.324219 -0.828125 1.351562 -0.640625 1.378906 -0.4375 C 1.40625 -0.234375 1.421875 -0.0625 1.429688 0.0859375 L 1.109375 0.148438 C 1.109375 0.0507812 1.101562 -0.0625 1.089844 -0.1875 C 1.078125 -0.3125 1.0625 -0.441406 1.046875 -0.574219 C 1.027344 -0.707031 1.007812 -0.832031 0.984375 -0.945312 M 0.414062 -0.984375 L 0.746094 -0.929688 C 0.71875 -0.710938 0.683594 -0.488281 0.636719 -0.269531 C 0.589844 -0.0507812 0.539062 0.136719 0.484375 0.296875 C 0.460938 0.277344 0.429688 0.261719 0.390625 0.25 C 0.355469 0.238281 0.316406 0.222656 0.273438 0.207031 C 0.234375 0.191406 0.203125 0.183594 0.175781 0.175781 C 0.234375 0.0234375 0.285156 -0.160156 0.324219 -0.367188 C 0.359375 -0.574219 0.390625 -0.78125 0.414062 -0.984375 M 0.289062 -2.328125 C 0.285156 -2.351562 0.273438 -2.386719 0.261719 -2.429688 C 0.246094 -2.472656 0.234375 -2.515625 0.21875 -2.558594 C 0.203125 -2.601562 0.1875 -2.640625 0.175781 -2.671875 C 0.21875 -2.679688 0.261719 -2.710938 0.308594 -2.757812 C 0.355469 -2.804688 0.40625 -2.867188 0.460938 -2.945312 C 0.488281 -2.980469 0.535156 -3.042969 0.589844 -3.128906 C 0.648438 -3.210938 0.710938 -3.3125 0.777344 -3.433594 C 0.847656 -3.550781 0.914062 -3.675781 0.984375 -3.8125 C 1.050781 -3.949219 1.113281 -4.082031 1.164062 -4.214844 L 1.511719 -4.070312 C 1.421875 -3.882812 1.320312 -3.695312 1.210938 -3.511719 C 1.105469 -3.324219 0.992188 -3.148438 0.878906 -2.980469 C 0.761719 -2.8125 0.644531 -2.660156 0.523438 -2.523438 L 0.523438 -2.519531 C 0.523438 -2.519531 0.511719 -2.511719 0.488281 -2.5 C 0.464844 -2.488281 0.4375 -2.46875 0.40625 -2.449219 C 0.375 -2.429688 0.347656 -2.410156 0.324219 -2.390625 C 0.300781 -2.371094 0.289062 -2.351562 0.289062 -2.328125 M 0.289062 -2.328125 L 0.285156 -2.601562 L 0.464844 -2.710938 L 1.378906 -2.789062 C 1.371094 -2.742188 1.363281 -2.691406 1.359375 -2.636719 C 1.351562 -2.578125 1.351562 -2.53125 1.351562 -2.488281 C 1.144531 -2.46875 0.972656 -2.449219 0.84375 -2.433594 C 0.710938 -2.414062 0.609375 -2.398438 0.539062 -2.386719 C 0.464844 -2.375 0.410156 -2.367188 0.375 -2.359375 C 0.339844 -2.347656 0.308594 -2.339844 0.289062 -2.328125 M 0.324219 -1.199219 C 0.316406 -1.226562 0.308594 -1.261719 0.296875 -1.300781 C 0.28125 -1.34375 0.265625 -1.386719 0.25 -1.433594 C 0.234375 -1.476562 0.21875 -1.515625 0.203125 -1.546875 C 0.261719 -1.558594 0.320312 -1.59375 0.382812 -1.65625 C 0.445312 -1.714844 0.515625 -1.792969 0.59375 -1.886719 C 0.636719 -1.933594 0.703125 -2.007812 0.789062 -2.113281 C 0.871094 -2.21875 0.96875 -2.34375 1.074219 -2.488281 C 1.175781 -2.632812 1.285156 -2.789062 1.390625 -2.957031 C 1.5 -3.125 1.601562 -3.296875 1.691406 -3.464844 L 2.003906 -3.273438 C 1.863281 -3.042969 1.714844 -2.8125 1.558594 -2.585938 C 1.398438 -2.363281 1.238281 -2.148438 1.070312 -1.949219 C 0.902344 -1.746094 0.734375 -1.5625 0.566406 -1.394531 L 0.566406 -1.386719 C 0.566406 -1.386719 0.550781 -1.378906 0.527344 -1.367188 C 0.503906 -1.355469 0.476562 -1.339844 0.445312 -1.324219 C 0.414062 -1.304688 0.386719 -1.285156 0.363281 -1.261719 C 0.335938 -1.242188 0.324219 -1.21875 0.324219 -1.199219 M 0.324219 -1.199219 L 0.308594 -1.480469 L 0.496094 -1.605469 L 1.863281 -1.789062 C 1.859375 -1.742188 1.855469 -1.691406 1.851562 -1.632812 C 1.851562 -1.574219 1.851562 -1.527344 1.855469 -1.488281 C 1.539062 -1.441406 1.285156 -1.398438 1.09375 -1.367188 C 0.90625 -1.335938 0.757812 -1.308594 0.65625 -1.289062 C 0.550781 -1.269531 0.476562 -1.253906 0.433594 -1.238281 C 0.386719 -1.226562 0.351562 -1.214844 0.324219 -1.199219 M 1.53125 -1.050781 L 1.800781 -1.136719 C 1.851562 -1.007812 1.902344 -0.867188 1.953125 -0.714844 C 2 -0.5625 2.035156 -0.429688 2.058594 -0.320312 L 1.769531 -0.21875 C 1.75 -0.328125 1.714844 -0.464844 1.667969 -0.621094 C 1.621094 -0.777344 1.574219 -0.921875 1.53125 -1.050781 Z "/>
</g>
<g id="glyph-0-3">
<path d="M 0.570312 -1.46875 L 4.449219 -1.46875 L 4.449219 -1.148438 L 0.570312 -1.148438 L 0.570312 -1.46875 M 0.285156 -3.886719 L 2.566406 -3.886719 L 2.566406 -3.601562 L 0.285156 -3.601562 L 0.285156 -3.886719 M 2.511719 -0.761719 L 4.121094 -0.761719 L 4.121094 -0.46875 L 2.511719 -0.46875 L 2.511719 -0.761719 M 0.234375 -0.0546875 L 4.773438 -0.0546875 L 4.773438 0.265625 L 0.234375 0.265625 L 0.234375 -0.0546875 M 2.308594 -1.355469 L 2.679688 -1.355469 L 2.679688 0.0859375 L 2.308594 0.0859375 L 2.308594 -1.355469 M 1.28125 -4.199219 L 1.609375 -4.199219 L 1.609375 -1.605469 L 1.28125 -1.605469 L 1.28125 -4.199219 M 1.058594 -0.890625 L 1.421875 -0.890625 L 1.421875 0.105469 L 1.058594 0.105469 L 1.058594 -0.890625 M 0.738281 -3.09375 L 0.738281 -2.726562 L 2.113281 -2.726562 L 2.113281 -3.09375 L 0.738281 -3.09375 M 0.429688 -3.34375 L 2.433594 -3.34375 L 2.433594 -2.476562 L 0.429688 -2.476562 L 0.429688 -3.34375 M 3.195312 -4.199219 L 3.535156 -4.125 C 3.453125 -3.839844 3.339844 -3.566406 3.203125 -3.3125 C 3.0625 -3.058594 2.90625 -2.84375 2.730469 -2.671875 C 2.714844 -2.691406 2.6875 -2.722656 2.65625 -2.753906 C 2.625 -2.785156 2.59375 -2.816406 2.558594 -2.847656 C 2.527344 -2.878906 2.5 -2.90625 2.476562 -2.925781 C 2.636719 -3.074219 2.78125 -3.261719 2.90625 -3.484375 C 3.027344 -3.707031 3.125 -3.945312 3.195312 -4.199219 M 3.121094 -3.640625 L 4.761719 -3.640625 L 4.761719 -3.324219 L 2.964844 -3.324219 L 3.121094 -3.640625 M 4.125 -3.503906 L 4.46875 -3.464844 C 4.347656 -2.964844 4.136719 -2.5625 3.835938 -2.261719 C 3.535156 -1.960938 3.15625 -1.722656 2.699219 -1.550781 C 2.6875 -1.574219 2.667969 -1.601562 2.640625 -1.636719 C 2.617188 -1.671875 2.589844 -1.707031 2.5625 -1.742188 C 2.535156 -1.777344 2.507812 -1.804688 2.480469 -1.824219 C 2.917969 -1.964844 3.273438 -2.171875 3.554688 -2.441406 C 3.835938 -2.710938 4.023438 -3.066406 4.125 -3.503906 M 3.160156 -3.460938 C 3.230469 -3.253906 3.335938 -3.042969 3.476562 -2.828125 C 3.613281 -2.617188 3.796875 -2.421875 4.015625 -2.246094 C 4.238281 -2.066406 4.503906 -1.929688 4.808594 -1.828125 C 4.785156 -1.808594 4.761719 -1.78125 4.734375 -1.746094 C 4.703125 -1.707031 4.675781 -1.671875 4.652344 -1.636719 C 4.628906 -1.597656 4.609375 -1.566406 4.59375 -1.535156 C 4.285156 -1.652344 4.019531 -1.808594 3.796875 -2 C 3.574219 -2.191406 3.390625 -2.402344 3.246094 -2.628906 C 3.097656 -2.855469 2.988281 -3.078125 2.914062 -3.289062 L 3.160156 -3.460938 M 1.238281 -2.570312 L 1.484375 -2.46875 C 1.410156 -2.351562 1.3125 -2.238281 1.191406 -2.121094 C 1.074219 -2.007812 0.949219 -1.902344 0.8125 -1.800781 C 0.675781 -1.703125 0.546875 -1.625 0.414062 -1.566406 C 0.390625 -1.605469 0.359375 -1.648438 0.316406 -1.699219 C 0.273438 -1.746094 0.230469 -1.785156 0.195312 -1.808594 C 0.324219 -1.859375 0.457031 -1.925781 0.589844 -2.003906 C 0.722656 -2.085938 0.847656 -2.175781 0.960938 -2.273438 C 1.074219 -2.371094 1.167969 -2.46875 1.238281 -2.570312 M 1.59375 -2.265625 L 1.753906 -2.460938 C 1.875 -2.402344 2 -2.335938 2.128906 -2.253906 C 2.261719 -2.175781 2.363281 -2.101562 2.441406 -2.035156 L 2.273438 -1.816406 C 2.199219 -1.882812 2.097656 -1.957031 1.96875 -2.042969 C 1.839844 -2.128906 1.714844 -2.203125 1.59375 -2.265625 Z "/>
</g>
<g id="glyph-0-4">
<path d="M 1.238281 -2.566406 L 3.765625 -2.566406 L 3.765625 -2.21875 L 1.238281 -2.21875 L 1.238281 -2.566406 M 1.148438 -0.238281 L 3.828125 -0.238281 L 3.828125 0.109375 L 1.148438 0.109375 L 1.148438 -0.238281 M 0.980469 -1.621094 L 4.085938 -1.621094 L 4.085938 0.371094 L 3.691406 0.371094 L 3.691406 -1.28125 L 1.359375 -1.28125 L 1.359375 0.390625 L 0.980469 0.390625 L 0.980469 -1.621094 M 2.585938 -4.214844 L 2.914062 -4.046875 C 2.726562 -3.769531 2.507812 -3.503906 2.25 -3.257812 C 1.992188 -3.007812 1.714844 -2.785156 1.410156 -2.582031 C 1.105469 -2.378906 0.792969 -2.207031 0.46875 -2.066406 C 0.441406 -2.117188 0.398438 -2.175781 0.351562 -2.238281 C 0.300781 -2.300781 0.25 -2.351562 0.199219 -2.394531 C 0.515625 -2.523438 0.824219 -2.675781 1.125 -2.859375 C 1.425781 -3.042969 1.699219 -3.25 1.953125 -3.480469 C 2.203125 -3.710938 2.414062 -3.953125 2.585938 -4.214844 M 2.660156 -3.921875 C 2.964844 -3.582031 3.296875 -3.300781 3.664062 -3.066406 C 4.03125 -2.835938 4.425781 -2.628906 4.84375 -2.449219 C 4.796875 -2.410156 4.746094 -2.359375 4.699219 -2.296875 C 4.648438 -2.230469 4.609375 -2.171875 4.578125 -2.109375 C 4.296875 -2.246094 4.027344 -2.394531 3.765625 -2.550781 C 3.507812 -2.710938 3.261719 -2.886719 3.023438 -3.085938 C 2.789062 -3.28125 2.558594 -3.507812 2.339844 -3.761719 Z "/>
</g>
</g>
</defs>
<g fill="rgb(73.333333%, 73.333333%, 73.333333%)" fill-opacity="1">
<use xlink:href="#glyph-0-0" x="30" y="25"/>
<use xlink:href="#glyph-0-1" x="35" y="25"/>
<use xlink:href="#glyph-0-2" x="40" y="25"/>
<use xlink:href="#glyph-0-3" x="45" y="25"/>
<use xlink:href="#glyph-0-4" x="50" y="25"/>
</g>
</svg>
