<?xml version="1.0" encoding="UTF-8"?>
<svg xmlns="http://www.w3.org/2000/svg" xmlns:xlink="http://www.w3.org/1999/xlink" width="1920" height="1080" viewBox="0 0 1920 1080">
<defs>
<g>
<g id="glyph-0-0">
<path d="M 2.316406 -5.476562 L 13.175781 -5.492188 L 13.191406 -4.355469 L 2.332031 -4.339844 L 2.316406 -5.476562 M 2.316406 -0.871094 L 13.144531 -0.886719 L 13.144531 0.265625 L 2.332031 0.28125 L 2.316406 -0.871094 M 1.789062 -10.035156 L 13.8125 -10.050781 L 13.796875 1.167969 L 12.601562 1.183594 L 12.617188 -8.882812 L 2.941406 -8.882812 L 2.925781 1.230469 L 1.773438 1.246094 L 1.789062 -10.035156 M 7.140625 -13.050781 L 8.324219 -13.066406 L 8.324219 -0.265625 L 7.140625 -0.265625 Z "/>
</g>
<g id="glyph-0-1">
</g>
<g id="glyph-1-0">
<path d="M -0.0742188 0 L 3.738281 -11.308594 L 5.589844 -11.308594 L 9.402344 0 L 7.816406 0 L 6.789062 -3.160156 L 2.46875 -3.160156 L 1.441406 0 L -0.0742188 0 M 6.371094 -4.445312 L 4.625 -9.777344 L 2.886719 -4.445312 Z "/>
</g>
<g id="glyph-1-1">
<path d="M 4.300781 0.207031 C 3.480469 0.207031 2.78125 0.121094 2.207031 -0.0507812 C 1.632812 -0.21875 1.089844 -0.429688 0.585938 -0.675781 L 0.585938 -2.558594 L 0.691406 -2.558594 C 1.1875 -2.09375 1.75 -1.734375 2.378906 -1.476562 C 3.003906 -1.222656 3.609375 -1.09375 4.191406 -1.09375 C 5.023438 -1.09375 5.652344 -1.265625 6.078125 -1.613281 C 6.5 -1.960938 6.714844 -2.417969 6.714844 -2.984375 C 6.714844 -3.4375 6.601562 -3.804688 6.378906 -4.085938 C 6.15625 -4.371094 5.804688 -4.582031 5.316406 -4.71875 C 4.96875 -4.816406 4.648438 -4.902344 4.359375 -4.96875 C 4.070312 -5.035156 3.710938 -5.121094 3.273438 -5.234375 C 2.882812 -5.335938 2.535156 -5.464844 2.226562 -5.621094 C 1.917969 -5.777344 1.644531 -5.984375 1.40625 -6.234375 C 1.171875 -6.484375 0.992188 -6.777344 0.863281 -7.113281 C 0.734375 -7.449219 0.667969 -7.839844 0.667969 -8.28125 C 0.667969 -9.195312 1.027344 -9.964844 1.738281 -10.585938 C 2.453125 -11.203125 3.363281 -11.515625 4.472656 -11.515625 C 5.105469 -11.515625 5.707031 -11.453125 6.269531 -11.324219 C 6.835938 -11.199219 7.359375 -11.019531 7.839844 -10.785156 L 7.839844 -8.984375 L 7.726562 -8.984375 C 7.367188 -9.316406 6.90625 -9.601562 6.34375 -9.847656 C 5.78125 -10.09375 5.191406 -10.214844 4.574219 -10.214844 C 3.875 -10.214844 3.308594 -10.054688 2.878906 -9.726562 C 2.449219 -9.398438 2.234375 -8.96875 2.234375 -8.4375 C 2.234375 -7.957031 2.359375 -7.574219 2.613281 -7.292969 C 2.867188 -7.007812 3.234375 -6.800781 3.714844 -6.667969 C 4.035156 -6.582031 4.421875 -6.484375 4.882812 -6.375 C 5.34375 -6.269531 5.726562 -6.167969 6.03125 -6.078125 C 6.8125 -5.839844 7.378906 -5.480469 7.738281 -4.996094 C 8.097656 -4.515625 8.28125 -3.925781 8.28125 -3.21875 C 8.28125 -2.78125 8.1875 -2.34375 8.007812 -1.914062 C 7.828125 -1.484375 7.578125 -1.117188 7.253906 -0.820312 C 6.890625 -0.492188 6.476562 -0.238281 6.019531 -0.0625 C 5.5625 0.117188 4.988281 0.207031 4.300781 0.207031 Z "/>
</g>
<g id="glyph-1-2">
<path d="M 5.097656 0 L 0.707031 0 L 0.707031 -1.15625 L 2.148438 -1.15625 L 2.148438 -10.15625 L 0.707031 -10.15625 L 0.707031 -11.308594 L 5.097656 -11.308594 L 5.097656 -10.15625 L 3.652344 -10.15625 L 3.652344 -1.15625 L 5.097656 -1.15625 Z "/>
</g>
<g id="glyph-1-3">
<path d="M 5.566406 0.207031 C 4.828125 0.207031 4.148438 0.0820312 3.527344 -0.167969 C 2.90625 -0.414062 2.371094 -0.785156 1.921875 -1.277344 C 1.472656 -1.765625 1.121094 -2.378906 0.875 -3.113281 C 0.625 -3.847656 0.5 -4.691406 0.5 -5.644531 C 0.5 -6.589844 0.621094 -7.414062 0.863281 -8.121094 C 1.101562 -8.824219 1.453125 -9.4375 1.914062 -9.957031 C 2.363281 -10.464844 2.898438 -10.851562 3.515625 -11.117188 C 4.132812 -11.382812 4.824219 -11.515625 5.589844 -11.515625 C 5.96875 -11.515625 6.324219 -11.488281 6.65625 -11.429688 C 6.988281 -11.375 7.296875 -11.304688 7.582031 -11.21875 C 7.824219 -11.144531 8.074219 -11.046875 8.328125 -10.933594 C 8.585938 -10.820312 8.835938 -10.695312 9.085938 -10.558594 L 9.085938 -8.742188 L 8.964844 -8.742188 C 8.832031 -8.863281 8.660156 -9.011719 8.453125 -9.183594 C 8.246094 -9.355469 7.992188 -9.523438 7.695312 -9.691406 C 7.40625 -9.847656 7.09375 -9.976562 6.753906 -10.078125 C 6.414062 -10.179688 6.019531 -10.230469 5.574219 -10.230469 C 5.09375 -10.230469 4.636719 -10.132812 4.207031 -9.933594 C 3.777344 -9.738281 3.398438 -9.445312 3.078125 -9.0625 C 2.757812 -8.675781 2.507812 -8.191406 2.332031 -7.609375 C 2.15625 -7.027344 2.066406 -6.371094 2.066406 -5.644531 C 2.066406 -4.867188 2.160156 -4.203125 2.347656 -3.640625 C 2.535156 -3.082031 2.789062 -2.609375 3.113281 -2.226562 C 3.429688 -1.851562 3.796875 -1.570312 4.222656 -1.378906 C 4.648438 -1.1875 5.097656 -1.09375 5.574219 -1.09375 C 6.011719 -1.09375 6.414062 -1.148438 6.78125 -1.253906 C 7.152344 -1.359375 7.480469 -1.492188 7.769531 -1.65625 C 8.050781 -1.8125 8.289062 -1.972656 8.492188 -2.136719 C 8.695312 -2.304688 8.855469 -2.441406 8.96875 -2.558594 L 9.085938 -2.558594 L 9.085938 -0.765625 C 8.835938 -0.652344 8.601562 -0.539062 8.382812 -0.433594 C 8.160156 -0.328125 7.894531 -0.222656 7.582031 -0.121094 C 7.25 -0.015625 6.945312 0.0664062 6.664062 0.121094 C 6.382812 0.175781 6.019531 0.207031 5.566406 0.207031 Z "/>
</g>
<g id="glyph-2-0">
</g>
<g id="glyph-2-1">
<path d="M 1.507812 -4.945312 L 8.789062 -4.945312 L 8.789062 -3.90625 L 1.507812 -3.90625 L 1.507812 -4.945312 M 4.574219 -6.609375 L 5.679688 -6.609375 L 5.679688 -0.589844 L 4.574219 -0.589844 L 4.574219 -6.609375 M 0.964844 -0.652344 C 1.617188 -0.757812 2.378906 -0.882812 3.25 -1.035156 C 4.121094 -1.183594 5.046875 -1.351562 6.019531 -1.53125 C 6.996094 -1.714844 7.96875 -1.894531 8.945312 -2.070312 L 9.007812 -1.042969 C 8.082031 -0.867188 7.15625 -0.683594 6.222656 -0.496094 C 5.289062 -0.3125 4.394531 -0.136719 3.539062 0.0234375 C 2.683594 0.183594 1.914062 0.332031 1.230469 0.464844 L 0.964844 -0.652344 M 1.105469 -12.039062 L 9.101562 -12.039062 L 9.101562 -11.011719 L 1.105469 -11.011719 L 1.105469 -12.039062 M 5.894531 -10.003906 L 6.75 -10.5 C 7.042969 -10.148438 7.339844 -9.769531 7.644531 -9.363281 C 7.953125 -8.960938 8.234375 -8.566406 8.492188 -8.183594 C 8.753906 -7.796875 8.953125 -7.457031 9.101562 -7.15625 L 8.214844 -6.566406 C 8.070312 -6.867188 7.867188 -7.214844 7.613281 -7.613281 C 7.359375 -8.015625 7.082031 -8.421875 6.78125 -8.84375 C 6.480469 -9.261719 6.1875 -9.648438 5.894531 -10.003906 M 9.972656 -11.730469 L 11.058594 -11.730469 L 11.058594 -2.300781 L 9.972656 -2.300781 L 9.972656 -11.730469 M 13.050781 -12.816406 L 14.1875 -12.816406 L 14.1875 -0.574219 C 14.1875 -0.210938 14.140625 0.0664062 14.046875 0.257812 C 13.953125 0.449219 13.789062 0.589844 13.550781 0.683594 C 13.3125 0.777344 12.988281 0.839844 12.578125 0.871094 C 12.167969 0.902344 11.675781 0.917969 11.105469 0.917969 C 11.085938 0.75 11.03125 0.554688 10.945312 0.328125 C 10.855469 0.0976562 10.765625 -0.09375 10.671875 -0.25 C 11.128906 -0.238281 11.546875 -0.230469 11.929688 -0.226562 C 12.316406 -0.21875 12.574219 -0.222656 12.710938 -0.234375 C 12.84375 -0.234375 12.933594 -0.257812 12.980469 -0.304688 C 13.027344 -0.351562 13.050781 -0.441406 13.050781 -0.574219 L 13.050781 -12.816406 M 1.851562 -6.828125 C 1.832031 -6.910156 1.800781 -7.019531 1.757812 -7.15625 C 1.714844 -7.289062 1.667969 -7.429688 1.617188 -7.566406 C 1.566406 -7.707031 1.515625 -7.828125 1.460938 -7.933594 C 1.585938 -7.953125 1.710938 -8.027344 1.835938 -8.152344 C 1.960938 -8.277344 2.085938 -8.429688 2.207031 -8.617188 C 2.300781 -8.742188 2.453125 -8.96875 2.660156 -9.292969 C 2.867188 -9.621094 3.082031 -10.003906 3.304688 -10.445312 C 3.527344 -10.886719 3.726562 -11.335938 3.90625 -11.792969 L 5.039062 -11.324219 C 4.8125 -10.859375 4.5625 -10.390625 4.292969 -9.925781 C 4.023438 -9.457031 3.742188 -9.015625 3.445312 -8.59375 C 3.148438 -8.175781 2.855469 -7.796875 2.566406 -7.46875 L 2.566406 -7.4375 C 2.566406 -7.4375 2.53125 -7.417969 2.457031 -7.382812 C 2.386719 -7.34375 2.300781 -7.296875 2.207031 -7.234375 C 2.117188 -7.171875 2.03125 -7.105469 1.960938 -7.03125 C 1.886719 -6.957031 1.851562 -6.890625 1.851562 -6.828125 M 1.851562 -6.828125 L 1.835938 -7.667969 L 2.441406 -8.042969 L 7.667969 -8.492188 C 7.742188 -8.339844 7.824219 -8.175781 7.917969 -8.011719 C 8.011719 -7.84375 8.09375 -7.699219 8.167969 -7.574219 C 7.109375 -7.472656 6.21875 -7.382812 5.5 -7.3125 C 4.777344 -7.238281 4.199219 -7.183594 3.757812 -7.140625 C 3.316406 -7.097656 2.96875 -7.058594 2.714844 -7.023438 C 2.460938 -6.988281 2.269531 -6.957031 2.148438 -6.929688 C 2.023438 -6.902344 1.921875 -6.871094 1.851562 -6.828125 Z "/>
</g>
<g id="glyph-3-0">
<path d="M 7.914062 -9.972656 L 2.652344 -9.972656 L 2.652344 -6.78125 L 7.695312 -6.78125 L 7.695312 -5.445312 L 2.652344 -5.445312 L 2.652344 0 L 1.148438 0 L 1.148438 -11.308594 L 7.914062 -11.308594 Z "/>
</g>
<g id="glyph-3-1">
<path d="M 8.285156 -7.898438 C 8.285156 -7.410156 8.199219 -6.945312 8.023438 -6.503906 C 7.851562 -6.066406 7.609375 -5.695312 7.300781 -5.386719 C 6.910156 -5 6.453125 -4.710938 5.925781 -4.511719 C 5.398438 -4.3125 4.730469 -4.214844 3.925781 -4.214844 L 2.652344 -4.214844 L 2.652344 0 L 1.148438 0 L 1.148438 -11.308594 L 3.988281 -11.308594 C 4.65625 -11.308594 5.226562 -11.253906 5.695312 -11.144531 C 6.167969 -11.03125 6.582031 -10.851562 6.941406 -10.605469 C 7.363281 -10.316406 7.691406 -9.949219 7.929688 -9.507812 C 8.167969 -9.0625 8.285156 -8.527344 8.285156 -7.898438 M 6.722656 -7.863281 C 6.722656 -8.25 6.65625 -8.589844 6.519531 -8.878906 C 6.386719 -9.167969 6.183594 -9.402344 5.910156 -9.585938 C 5.671875 -9.742188 5.394531 -9.855469 5.078125 -9.921875 C 4.761719 -9.984375 4.367188 -10.019531 3.898438 -10.019531 L 2.652344 -10.019531 L 2.652344 -5.5 L 3.675781 -5.5 C 4.285156 -5.5 4.773438 -5.546875 5.148438 -5.648438 C 5.523438 -5.746094 5.835938 -5.921875 6.085938 -6.175781 C 6.308594 -6.402344 6.46875 -6.652344 6.570312 -6.917969 C 6.671875 -7.1875 6.722656 -7.503906 6.722656 -7.863281 Z "/>
</g>
<g id="glyph-3-2">
<path d="M 5.878906 0.21875 C 5.078125 0.21875 4.347656 0.0976562 3.683594 -0.144531 C 3.019531 -0.386719 2.449219 -0.757812 1.976562 -1.253906 C 1.5 -1.753906 1.132812 -2.375 0.882812 -3.113281 C 0.628906 -3.855469 0.5 -4.703125 0.5 -5.667969 C 0.5 -6.578125 0.628906 -7.394531 0.886719 -8.117188 C 1.140625 -8.835938 1.507812 -9.453125 1.984375 -9.964844 C 2.441406 -10.460938 3.011719 -10.84375 3.683594 -11.113281 C 4.355469 -11.382812 5.09375 -11.515625 5.894531 -11.515625 C 6.273438 -11.515625 6.636719 -11.488281 6.988281 -11.429688 C 7.335938 -11.375 7.671875 -11.300781 7.992188 -11.203125 C 8.242188 -11.128906 8.527344 -11.023438 8.835938 -10.886719 C 9.148438 -10.753906 9.402344 -10.640625 9.59375 -10.542969 L 9.59375 -8.726562 L 9.464844 -8.726562 C 9.277344 -8.894531 9.082031 -9.054688 8.882812 -9.203125 C 8.683594 -9.351562 8.402344 -9.511719 8.035156 -9.683594 C 7.730469 -9.835938 7.382812 -9.964844 6.988281 -10.0625 C 6.59375 -10.164062 6.167969 -10.214844 5.710938 -10.214844 C 4.625 -10.214844 3.742188 -9.804688 3.074219 -8.984375 C 2.402344 -8.164062 2.066406 -7.074219 2.066406 -5.710938 C 2.066406 -4.953125 2.15625 -4.289062 2.332031 -3.722656 C 2.507812 -3.15625 2.765625 -2.671875 3.097656 -2.277344 C 3.421875 -1.890625 3.8125 -1.589844 4.273438 -1.386719 C 4.730469 -1.179688 5.246094 -1.078125 5.816406 -1.078125 C 6.242188 -1.078125 6.667969 -1.109375 7.085938 -1.167969 C 7.507812 -1.230469 7.863281 -1.320312 8.148438 -1.441406 L 8.148438 -4.367188 L 5.539062 -4.367188 L 5.539062 -5.6875 L 9.640625 -5.6875 L 9.640625 -0.753906 C 9.445312 -0.664062 9.191406 -0.558594 8.867188 -0.425781 C 8.546875 -0.292969 8.246094 -0.191406 7.96875 -0.113281 C 7.597656 -0.00390625 7.265625 0.0820312 6.964844 0.136719 C 6.667969 0.191406 6.304688 0.21875 5.878906 0.21875 Z "/>
</g>
<g id="glyph-3-3">
<path d="M -0.0742188 0 L 3.738281 -11.308594 L 5.589844 -11.308594 L 9.402344 0 L 7.816406 0 L 6.789062 -3.160156 L 2.46875 -3.160156 L 1.441406 0 L -0.0742188 0 M 6.371094 -4.445312 L 4.625 -9.777344 L 2.886719 -4.445312 Z "/>
</g>
</g>
</defs>
<g fill="rgb(100%, 100%, 100%)" fill-opacity="1">
<use xlink:href="#glyph-0-0" x="30" y="35.555664"/>
<use xlink:href="#glyph-0-1" x="46" y="35.555664"/>
</g>
<g fill="rgb(100%, 100%, 100%)" fill-opacity="1">
<use xlink:href="#glyph-1-0" x="49" y="35.563477"/>
<use xlink:href="#glyph-1-1" x="57.985352" y="35.563477"/>
<use xlink:href="#glyph-1-2" x="67" y="35.563477"/>
<use xlink:href="#glyph-1-3" x="73" y="35.563477"/>
</g>
<g fill="rgb(100%, 100%, 100%)" fill-opacity="1">
<use xlink:href="#glyph-2-0" x="82" y="35.555664"/>
<use xlink:href="#glyph-2-1" x="85" y="35.555664"/>
<use xlink:href="#glyph-2-0" x="101" y="35.555664"/>
</g>
<g fill="rgb(100%, 100%, 100%)" fill-opacity="1">
<use xlink:href="#glyph-3-0" x="104" y="35.563477"/>
<use xlink:href="#glyph-3-1" x="112" y="35.563477"/>
<use xlink:href="#glyph-3-2" x="121" y="35.563477"/>
<use xlink:href="#glyph-3-3" x="131" y="35.563477"/>
</g>
</svg>
