<?xml version="1.0" encoding="UTF-8"?>
<svg xmlns="http://www.w3.org/2000/svg" xmlns:xlink="http://www.w3.org/1999/xlink" width="3840" height="2160" viewBox="0 0 3840 2160">
<defs>
<g>
<g id="glyph-0-0">
<path d="M 0.46875 0 L 2.59375 0 L 2.59375 -0.40625 L 1.8125 -0.40625 L 1.8125 -3.875 L 1.4375 -3.875 C 1.234375 -3.75 0.984375 -3.65625 0.640625 -3.59375 L 0.640625 -3.296875 L 1.328125 -3.296875 L 1.328125 -0.40625 L 0.46875 -0.40625 Z "/>
</g>
<g id="glyph-0-1">
</g>
<g id="glyph-0-2">
<path d="M 1.75 0.0625 C 2.40625 0.0625 3 -0.5 3 -1.484375 C 3 -2.359375 2.59375 -2.9375 1.859375 -2.9375 C 1.53125 -2.9375 1.21875 -2.765625 0.953125 -2.546875 L 0.96875 -3.046875 L 0.96875 -4.203125 L 0.484375 -4.203125 L 0.484375 0 L 0.875 0 L 0.90625 -0.296875 L 0.9375 -0.296875 C 1.1875 -0.0625 1.484375 0.0625 1.75 0.0625 Z M 1.671875 -0.34375 C 1.484375 -0.34375 1.21875 -0.40625 0.96875 -0.640625 L 0.96875 -2.140625 C 1.234375 -2.390625 1.5 -2.53125 1.734375 -2.53125 C 2.28125 -2.53125 2.5 -2.109375 2.5 -1.46875 C 2.5 -0.765625 2.140625 -0.34375 1.671875 -0.34375 Z "/>
</g>
<g id="glyph-0-3">
<path d="M 0.484375 0 L 0.96875 0 L 0.96875 -2.875 L 0.484375 -2.875 Z M 0.734375 -3.453125 C 0.921875 -3.453125 1.046875 -3.59375 1.046875 -3.78125 C 1.046875 -3.96875 0.921875 -4.09375 0.734375 -4.09375 C 0.53125 -4.09375 0.40625 -3.96875 0.40625 -3.78125 C 0.40625 -3.59375 0.53125 -3.453125 0.734375 -3.453125 Z "/>
</g>
<g id="glyph-0-4">
<path d="M 1.390625 0.0625 C 1.5625 0.0625 1.75 0.015625 1.921875 -0.03125 L 1.828125 -0.40625 C 1.734375 -0.359375 1.59375 -0.328125 1.5 -0.328125 C 1.15625 -0.328125 1.046875 -0.515625 1.046875 -0.875 L 1.046875 -2.484375 L 1.828125 -2.484375 L 1.828125 -2.875 L 1.046875 -2.875 L 1.046875 -3.671875 L 0.65625 -3.671875 L 0.59375 -2.875 L 0.140625 -2.84375 L 0.140625 -2.484375 L 0.578125 -2.484375 L 0.578125 -0.890625 C 0.578125 -0.3125 0.78125 0.0625 1.390625 0.0625 Z "/>
</g>
<g id="glyph-0-5">
<path d="M 0.25 -1.296875 L 1.59375 -1.296875 L 1.59375 -1.65625 L 0.25 -1.65625 Z "/>
</g>
<g id="glyph-0-6">
<path d="M 0.203125 -0.765625 L 2.734375 -1.765625 L 2.734375 -2.15625 L 0.203125 -3.140625 L 0.203125 -2.734375 L 1.453125 -2.265625 L 2.234375 -1.96875 L 2.234375 -1.953125 L 1.453125 -1.65625 L 0.203125 -1.1875 Z "/>
</g>
<g id="glyph-0-7">
<path d="M 0.234375 0 L 2.671875 0 L 2.671875 -0.421875 L 1.59375 -0.421875 C 1.40625 -0.421875 1.15625 -0.390625 0.96875 -0.375 C 1.875 -1.234375 2.484375 -2.03125 2.484375 -2.796875 C 2.484375 -3.484375 2.046875 -3.9375 1.359375 -3.9375 C 0.859375 -3.9375 0.515625 -3.71875 0.21875 -3.375 L 0.484375 -3.09375 C 0.703125 -3.359375 0.984375 -3.546875 1.296875 -3.546875 C 1.78125 -3.546875 2 -3.234375 2 -2.78125 C 2 -2.125 1.453125 -1.34375 0.234375 -0.28125 Z "/>
</g>
<g id="glyph-0-8">
<path d="M 0.796875 -3.6875 C 0.875 -3.4375 0.953125 -3.09375 0.96875 -2.890625 L 1.171875 -2.9375 C 1.15625 -3.15625 1.078125 -3.484375 1 -3.75 Z M 0.984375 -0.640625 C 1.046875 -0.34375 1.078125 0.03125 1.0625 0.28125 L 1.34375 0.25 C 1.34375 0 1.3125 -0.375 1.25 -0.671875 Z M 1.53125 -0.640625 C 1.640625 -0.375 1.734375 -0.015625 1.765625 0.21875 L 2.03125 0.15625 C 2 -0.078125 1.890625 -0.421875 1.78125 -0.6875 Z M 2.078125 -0.65625 C 2.21875 -0.390625 2.359375 -0.046875 2.421875 0.171875 L 2.6875 0.078125 C 2.625 -0.140625 2.484375 -0.484375 2.328125 -0.75 Z M 0.515625 -0.75 C 0.453125 -0.421875 0.34375 -0.015625 0.171875 0.234375 L 0.46875 0.359375 C 0.625 0.109375 0.734375 -0.3125 0.796875 -0.640625 Z M 1.875 -3.765625 C 1.828125 -3.515625 1.71875 -3.140625 1.640625 -2.921875 L 1.8125 -2.859375 C 1.90625 -3.0625 2.015625 -3.40625 2.109375 -3.671875 Z M 3.5625 -4.421875 L 3.5625 -1.921875 L 2.78125 -1.921875 L 2.78125 0.421875 L 3.15625 0.421875 L 3.15625 0.171875 L 4.484375 0.171875 L 4.484375 0.390625 L 4.875 0.390625 L 4.875 -1.921875 L 3.9375 -1.921875 L 3.9375 -2.90625 L 5.078125 -2.90625 L 5.078125 -3.28125 L 3.9375 -3.28125 L 3.9375 -4.421875 Z M 3.15625 -0.203125 L 3.15625 -1.5625 L 4.484375 -1.5625 L 4.484375 -0.203125 Z M 0.71875 -3.953125 L 1.296875 -3.953125 L 1.296875 -2.671875 L 0.71875 -2.671875 Z M 1.5625 -3.953125 L 2.171875 -3.953125 L 2.171875 -2.671875 L 1.5625 -2.671875 Z M 0.28125 -1.28125 L 0.28125 -0.96875 L 2.59375 -0.96875 L 2.59375 -1.28125 L 1.609375 -1.28125 L 1.609375 -1.703125 L 2.53125 -1.703125 L 2.53125 -2.015625 L 1.609375 -2.015625 L 1.609375 -2.390625 L 2.5 -2.390625 L 2.5 -4.25 L 0.40625 -4.25 L 0.40625 -2.390625 L 1.25 -2.390625 L 1.25 -2.015625 L 0.375 -2.015625 L 0.375 -1.703125 L 1.25 -1.703125 L 1.25 -1.28125 Z "/>
</g>
<g id="glyph-0-9">
<path d="M 1 0.0625 C 1.125 0.0625 1.203125 0.046875 1.265625 0.03125 L 1.203125 -0.34375 C 1.15625 -0.328125 1.125 -0.328125 1.109375 -0.328125 C 1.03125 -0.328125 0.96875 -0.390625 0.96875 -0.53125 L 0.96875 -4.203125 L 0.484375 -4.203125 L 0.484375 -0.578125 C 0.484375 -0.15625 0.640625 0.0625 1 0.0625 Z "/>
</g>
<g id="glyph-0-10">
<path d="M 0.484375 0 L 0.96875 0 L 0.96875 -2.078125 C 1.25 -2.375 1.453125 -2.515625 1.75 -2.515625 C 2.140625 -2.515625 2.296875 -2.296875 2.296875 -1.75 L 2.296875 0 L 2.78125 0 L 2.78125 -1.8125 C 2.78125 -2.546875 2.5 -2.9375 1.90625 -2.9375 C 1.515625 -2.9375 1.203125 -2.71875 0.9375 -2.453125 L 0.921875 -2.453125 L 0.875 -2.875 L 0.484375 -2.875 Z "/>
</g>
<g id="glyph-0-11">
<path d="M 1.640625 0.0625 C 2.03125 0.0625 2.34375 -0.0625 2.59375 -0.21875 L 2.421875 -0.546875 C 2.203125 -0.40625 1.984375 -0.3125 1.703125 -0.3125 C 1.15625 -0.3125 0.78125 -0.703125 0.75 -1.3125 L 2.6875 -1.3125 C 2.6875 -1.390625 2.703125 -1.484375 2.703125 -1.59375 C 2.703125 -2.40625 2.296875 -2.9375 1.5625 -2.9375 C 0.90625 -2.9375 0.28125 -2.359375 0.28125 -1.4375 C 0.28125 -0.484375 0.875 0.0625 1.640625 0.0625 Z M 0.75 -1.65625 C 0.796875 -2.234375 1.15625 -2.5625 1.5625 -2.5625 C 2.015625 -2.5625 2.28125 -2.25 2.28125 -1.65625 Z "/>
</g>
</g>
</defs>
<g fill="rgb(86.666667%, 86.666667%, 86.666667%)" fill-opacity="1">
<use xlink:href="#glyph-0-0" x="30" y="26.12207"/>
<use xlink:href="#glyph-0-1" x="33" y="26.12207"/>
</g>
<g fill="rgb(86.666667%, 86.666667%, 86.666667%)" fill-opacity="1">
<use xlink:href="#glyph-0-2" x="34" y="26.12207"/>
<use xlink:href="#glyph-0-3" x="37" y="26.12207"/>
<use xlink:href="#glyph-0-4" x="38" y="26.12207"/>
</g>
<g fill="rgb(86.666667%, 86.666667%, 86.666667%)" fill-opacity="1">
<use xlink:href="#glyph-0-1" x="40" y="26.12207"/>
<use xlink:href="#glyph-0-5" x="41" y="26.12207"/>
<use xlink:href="#glyph-0-6" x="43" y="26.12207"/>
<use xlink:href="#glyph-0-1" x="46" y="26.12207"/>
<use xlink:href="#glyph-0-7" x="47" y="26.12207"/>
<use xlink:href="#glyph-0-1" x="50" y="26.12207"/>
<use xlink:href="#glyph-0-8" x="51" y="26.12207"/>
<use xlink:href="#glyph-0-1" x="56" y="26.12207"/>
<use xlink:href="#glyph-0-5" x="57" y="26.12207"/>
<use xlink:href="#glyph-0-6" x="59" y="26.12207"/>
<use xlink:href="#glyph-0-1" x="62" y="26.12207"/>
</g>
<g fill="rgb(86.666667%, 86.666667%, 86.666667%)" fill-opacity="1">
<use xlink:href="#glyph-0-9" x="63" y="26.12207"/>
<use xlink:href="#glyph-0-3" x="64" y="26.12207"/>
<use xlink:href="#glyph-0-10" x="65" y="26.12207"/>
<use xlink:href="#glyph-0-11" x="68" y="26.12207"/>
</g>
</svg>
