<?xml version="1.0" encoding="UTF-8"?>
<svg xmlns="http://www.w3.org/2000/svg" xmlns:xlink="http://www.w3.org/1999/xlink" width="854" height="480" viewBox="0 0 854 480">
<defs>
<g>
<g id="glyph-0-0">
<path d="M 2.570312 -2.453125 L 1.734375 -0.257812 C 1.648438 -0.0351562 1.558594 0.15625 1.46875 0.316406 C 1.375 0.476562 1.277344 0.609375 1.167969 0.714844 C 1.058594 0.816406 0.9375 0.894531 0.808594 0.941406 C 0.679688 0.992188 0.53125 1.015625 0.371094 1.015625 C 0.328125 1.015625 0.289062 1.015625 0.257812 1.011719 C 0.222656 1.011719 0.183594 1.007812 0.144531 1.007812 L 0.144531 0.621094 C 0.179688 0.625 0.21875 0.628906 0.261719 0.632812 C 0.304688 0.636719 0.347656 0.640625 0.394531 0.640625 C 0.472656 0.640625 0.546875 0.628906 0.613281 0.605469 C 0.679688 0.582031 0.746094 0.546875 0.804688 0.496094 C 0.867188 0.441406 0.921875 0.375 0.980469 0.296875 C 1.035156 0.214844 1.089844 0.117188 1.140625 0 L 0.160156 -2.453125 L 0.644531 -2.453125 L 1.265625 -0.828125 L 1.390625 -0.449219 L 1.53125 -0.839844 L 2.105469 -2.453125 Z "/>
</g>
</g>
</defs>
<g fill="rgb(86.666667%, 86.666667%, 86.666667%)" fill-opacity="1">
<use xlink:href="#glyph-0-0" x="30" y="23.713867"/>
</g>
</svg>
