<?xml version="1.0" encoding="UTF-8"?>
<svg xmlns="http://www.w3.org/2000/svg" xmlns:xlink="http://www.w3.org/1999/xlink" width="854" height="480" viewBox="0 0 854 480">
<defs>
<g>
<g id="glyph-0-0">
<path d="M 3.527344 -0.5625 L 5.296875 -0.5625 L 5.296875 -0.128906 L 3.527344 -0.128906 L 3.527344 -0.5625 M 3.304688 -4.472656 L 5.519531 -4.472656 L 5.519531 0.238281 L 5.066406 0.238281 L 5.066406 -4.039062 L 3.738281 -4.039062 L 3.738281 0.335938 L 3.304688 0.335938 L 3.304688 -4.472656 M 0.476562 -1.785156 L 0.777344 -2.082031 C 0.964844 -1.949219 1.15625 -1.800781 1.359375 -1.644531 C 1.5625 -1.484375 1.761719 -1.320312 1.957031 -1.15625 C 2.15625 -0.988281 2.339844 -0.824219 2.507812 -0.667969 C 2.675781 -0.511719 2.820312 -0.371094 2.933594 -0.246094 L 2.597656 0.117188 C 2.488281 -0.0195312 2.347656 -0.164062 2.183594 -0.328125 C 2.019531 -0.488281 1.839844 -0.652344 1.648438 -0.824219 C 1.453125 -0.996094 1.253906 -1.164062 1.054688 -1.324219 C 0.851562 -1.488281 0.660156 -1.640625 0.476562 -1.785156 M 0.476562 -1.785156 C 0.539062 -1.992188 0.601562 -2.234375 0.667969 -2.503906 C 0.738281 -2.777344 0.800781 -3.066406 0.859375 -3.363281 C 0.917969 -3.664062 0.972656 -3.960938 1.019531 -4.261719 C 1.070312 -4.5625 1.105469 -4.84375 1.128906 -5.109375 L 1.605469 -5.078125 C 1.574219 -4.800781 1.53125 -4.507812 1.480469 -4.199219 C 1.425781 -3.894531 1.367188 -3.585938 1.308594 -3.277344 C 1.246094 -2.972656 1.183594 -2.675781 1.113281 -2.398438 C 1.046875 -2.121094 0.980469 -1.871094 0.917969 -1.648438 L 0.476562 -1.785156 M 2.363281 -4.320312 L 2.8125 -4.320312 L 2.8125 -3.585938 C 2.8125 -3.347656 2.796875 -3.089844 2.773438 -2.8125 C 2.75 -2.539062 2.695312 -2.253906 2.613281 -1.964844 C 2.527344 -1.671875 2.40625 -1.382812 2.242188 -1.097656 C 2.078125 -0.808594 1.859375 -0.53125 1.582031 -0.261719 C 1.304688 0.0078125 0.957031 0.253906 0.539062 0.484375 C 0.511719 0.445312 0.484375 0.40625 0.445312 0.367188 C 0.410156 0.324219 0.371094 0.285156 0.328125 0.242188 C 0.285156 0.199219 0.246094 0.164062 0.207031 0.140625 C 0.605469 -0.0703125 0.9375 -0.300781 1.203125 -0.550781 C 1.46875 -0.796875 1.675781 -1.054688 1.832031 -1.320312 C 1.984375 -1.585938 2.097656 -1.847656 2.179688 -2.113281 C 2.257812 -2.378906 2.308594 -2.636719 2.332031 -2.882812 C 2.355469 -3.132812 2.363281 -3.367188 2.363281 -3.585938 L 2.363281 -4.320312 M 0.203125 -3.917969 C 0.441406 -3.925781 0.71875 -3.9375 1.03125 -3.949219 C 1.339844 -3.964844 1.671875 -3.980469 2.023438 -4 C 2.371094 -4.019531 2.722656 -4.035156 3.074219 -4.050781 L 3.066406 -3.628906 C 2.734375 -3.605469 2.398438 -3.582031 2.058594 -3.558594 C 1.722656 -3.535156 1.398438 -3.519531 1.089844 -3.5 C 0.78125 -3.484375 0.503906 -3.46875 0.25 -3.453125 Z "/>
</g>
<g id="glyph-0-1">
<path d="M 0.378906 -1.886719 L 5.738281 -1.886719 L 5.738281 -1.464844 L 0.378906 -1.464844 L 0.378906 -1.886719 M 2.816406 -4.6875 L 3.300781 -4.6875 L 3.300781 0.488281 L 2.816406 0.488281 L 2.816406 -4.6875 M 2.652344 -1.710938 L 3.035156 -1.539062 C 2.84375 -1.285156 2.613281 -1.035156 2.339844 -0.800781 C 2.066406 -0.5625 1.773438 -0.351562 1.464844 -0.167969 C 1.152344 0.015625 0.84375 0.167969 0.539062 0.289062 C 0.511719 0.25 0.484375 0.207031 0.445312 0.160156 C 0.410156 0.109375 0.371094 0.0625 0.332031 0.0195312 C 0.292969 -0.0195312 0.257812 -0.0585938 0.21875 -0.0898438 C 0.449219 -0.164062 0.679688 -0.257812 0.910156 -0.371094 C 1.144531 -0.488281 1.367188 -0.613281 1.585938 -0.757812 C 1.804688 -0.898438 2.003906 -1.054688 2.183594 -1.214844 C 2.367188 -1.378906 2.523438 -1.542969 2.652344 -1.710938 M 3.433594 -1.730469 C 3.570312 -1.5625 3.730469 -1.398438 3.921875 -1.242188 C 4.109375 -1.082031 4.3125 -0.933594 4.535156 -0.792969 C 4.753906 -0.652344 4.980469 -0.523438 5.214844 -0.410156 C 5.449219 -0.296875 5.675781 -0.203125 5.898438 -0.128906 C 5.863281 -0.101562 5.828125 -0.0625 5.785156 -0.015625 C 5.746094 0.03125 5.707031 0.078125 5.671875 0.128906 C 5.640625 0.175781 5.609375 0.21875 5.585938 0.257812 C 5.359375 0.167969 5.132812 0.0585938 4.898438 -0.0703125 C 4.664062 -0.199219 4.433594 -0.34375 4.214844 -0.5 C 3.992188 -0.660156 3.78125 -0.828125 3.585938 -1.011719 C 3.390625 -1.191406 3.21875 -1.375 3.074219 -1.5625 L 3.433594 -1.730469 M 1.441406 -3.441406 L 1.441406 -2.804688 L 4.6875 -2.804688 L 4.6875 -3.441406 L 1.441406 -3.441406 M 1.441406 -4.441406 L 1.441406 -3.820312 L 4.6875 -3.820312 L 4.6875 -4.441406 L 1.441406 -4.441406 M 0.972656 -4.839844 L 5.183594 -4.839844 L 5.183594 -2.40625 L 0.972656 -2.40625 Z "/>
</g>
<g id="glyph-0-2">
<path d="M 0.410156 -4.886719 L 5.71875 -4.886719 L 5.71875 -4.570312 L 0.410156 -4.570312 L 0.410156 -4.886719 M 2.101562 -4.773438 L 2.519531 -4.773438 L 2.519531 -3.375 L 2.101562 -3.375 L 2.101562 -4.773438 M 3.539062 -4.773438 L 3.972656 -4.773438 L 3.972656 -3.375 L 3.539062 -3.375 L 3.539062 -4.773438 M 1.117188 -3.933594 L 1.117188 -3.519531 L 5.003906 -3.519531 L 5.003906 -3.933594 L 1.117188 -3.933594 M 0.703125 -4.242188 L 5.4375 -4.242188 L 5.4375 -3.214844 L 0.703125 -3.214844 L 0.703125 -4.242188 M 2.6875 -2.957031 L 5.609375 -2.957031 L 5.609375 -2.652344 L 2.6875 -2.652344 L 2.6875 -2.957031 M 1.410156 -3.226562 L 1.820312 -3.09375 C 1.714844 -2.949219 1.59375 -2.804688 1.453125 -2.660156 C 1.3125 -2.515625 1.160156 -2.382812 1.003906 -2.253906 C 0.847656 -2.128906 0.691406 -2.015625 0.539062 -1.917969 C 0.5 -1.964844 0.457031 -2.015625 0.402344 -2.070312 C 0.351562 -2.128906 0.304688 -2.175781 0.261719 -2.210938 C 0.410156 -2.296875 0.554688 -2.394531 0.699219 -2.507812 C 0.84375 -2.621094 0.980469 -2.738281 1.105469 -2.863281 C 1.230469 -2.988281 1.335938 -3.109375 1.410156 -3.226562 M 1.5625 -2.445312 L 1.960938 -2.308594 C 1.84375 -2.128906 1.703125 -1.949219 1.546875 -1.765625 C 1.386719 -1.582031 1.214844 -1.410156 1.03125 -1.242188 C 0.847656 -1.078125 0.667969 -0.933594 0.484375 -0.804688 C 0.453125 -0.851562 0.414062 -0.902344 0.359375 -0.960938 C 0.308594 -1.023438 0.261719 -1.066406 0.21875 -1.101562 C 0.394531 -1.214844 0.566406 -1.34375 0.738281 -1.492188 C 0.910156 -1.644531 1.066406 -1.800781 1.214844 -1.964844 C 1.359375 -2.128906 1.476562 -2.289062 1.5625 -2.445312 M 2.714844 -3.261719 L 3.109375 -3.160156 C 2.988281 -2.894531 2.832031 -2.640625 2.644531 -2.394531 C 2.457031 -2.152344 2.265625 -1.941406 2.066406 -1.773438 C 2.046875 -1.796875 2.015625 -1.824219 1.972656 -1.859375 C 1.933594 -1.894531 1.890625 -1.929688 1.851562 -1.964844 C 1.8125 -2 1.773438 -2.027344 1.742188 -2.046875 C 1.9375 -2.203125 2.121094 -2.386719 2.292969 -2.597656 C 2.46875 -2.808594 2.605469 -3.03125 2.714844 -3.261719 M 3.03125 -0.917969 L 4.980469 -0.917969 L 4.980469 -0.640625 L 2.8125 -0.640625 L 3.03125 -0.917969 M 4.859375 -0.917969 L 4.9375 -0.917969 L 5.015625 -0.941406 L 5.273438 -0.777344 C 5.117188 -0.578125 4.921875 -0.40625 4.675781 -0.257812 C 4.433594 -0.113281 4.164062 0.0078125 3.867188 0.105469 C 3.570312 0.207031 3.257812 0.289062 2.929688 0.351562 C 2.601562 0.414062 2.273438 0.464844 1.949219 0.5 C 1.933594 0.457031 1.90625 0.40625 1.871094 0.34375 C 1.832031 0.285156 1.796875 0.234375 1.761719 0.195312 C 2.070312 0.171875 2.378906 0.132812 2.6875 0.078125 C 3 0.0195312 3.292969 -0.046875 3.574219 -0.128906 C 3.855469 -0.210938 4.105469 -0.3125 4.328125 -0.433594 C 4.550781 -0.554688 4.726562 -0.695312 4.859375 -0.855469 L 4.859375 -0.917969 M 2.910156 -0.726562 C 3.046875 -0.597656 3.222656 -0.480469 3.4375 -0.378906 C 3.652344 -0.277344 3.890625 -0.1875 4.152344 -0.109375 C 4.414062 -0.03125 4.691406 0.03125 4.984375 0.0859375 C 5.273438 0.136719 5.570312 0.175781 5.867188 0.203125 C 5.828125 0.242188 5.789062 0.292969 5.746094 0.355469 C 5.703125 0.414062 5.671875 0.46875 5.644531 0.519531 C 5.34375 0.488281 5.046875 0.4375 4.746094 0.375 C 4.449219 0.3125 4.167969 0.234375 3.898438 0.140625 C 3.628906 0.046875 3.382812 -0.0625 3.160156 -0.1875 C 2.933594 -0.3125 2.746094 -0.449219 2.589844 -0.605469 L 2.910156 -0.726562 M 3.175781 -1.320312 L 3.539062 -1.203125 C 3.375 -0.988281 3.167969 -0.792969 2.917969 -0.617188 C 2.667969 -0.441406 2.398438 -0.292969 2.109375 -0.171875 C 2.078125 -0.207031 2.039062 -0.25 1.984375 -0.300781 C 1.933594 -0.347656 1.886719 -0.386719 1.84375 -0.414062 C 2.121094 -0.527344 2.382812 -0.660156 2.621094 -0.820312 C 2.863281 -0.976562 3.046875 -1.144531 3.175781 -1.320312 M 1.03125 -1.625 L 1.339844 -1.925781 L 1.449219 -1.894531 L 1.449219 0.484375 L 1.03125 0.484375 L 1.03125 -1.625 M 2.835938 -2.15625 L 2.835938 -1.417969 L 4.90625 -1.417969 L 4.90625 -2.15625 L 2.835938 -2.15625 M 2.476562 -2.425781 L 5.273438 -2.425781 L 5.273438 -1.148438 L 2.476562 -1.148438 L 2.476562 -2.425781 M 2.71875 -1.914062 L 4.550781 -1.914062 L 4.550781 -1.679688 L 2.71875 -1.679688 Z "/>
</g>
<g id="glyph-0-3">
<path d="M 0.367188 -2.882812 L 5.769531 -2.882812 L 5.769531 -2.53125 L 0.367188 -2.53125 L 0.367188 -2.882812 M 0.90625 -3.671875 L 5.230469 -3.671875 L 5.230469 -3.332031 L 0.90625 -3.332031 L 0.90625 -3.671875 M 0.3125 -0.0976562 L 5.816406 -0.0976562 L 5.816406 0.28125 L 0.3125 0.28125 L 0.3125 -0.0976562 M 2.804688 -4.105469 L 3.261719 -4.105469 L 3.261719 -2.761719 L 2.804688 -2.761719 L 2.804688 -4.105469 M 1.046875 -1.285156 L 5.097656 -1.285156 L 5.097656 0.0859375 L 4.648438 0.0859375 L 4.648438 -0.929688 L 3.835938 -0.929688 L 3.835938 0.0859375 L 3.457031 0.0859375 L 3.457031 -0.929688 L 2.652344 -0.929688 L 2.652344 0.0859375 L 2.265625 0.0859375 L 2.265625 -0.929688 L 1.472656 -0.929688 L 1.472656 0.0859375 L 1.046875 0.0859375 L 1.046875 -1.285156 M 3.753906 -2.277344 L 4.082031 -2.53125 C 4.246094 -2.445312 4.414062 -2.34375 4.585938 -2.226562 C 4.757812 -2.109375 4.921875 -1.996094 5.078125 -1.882812 C 5.234375 -1.769531 5.359375 -1.660156 5.457031 -1.5625 L 5.113281 -1.277344 C 5.015625 -1.378906 4.890625 -1.488281 4.738281 -1.609375 C 4.585938 -1.730469 4.425781 -1.851562 4.253906 -1.96875 C 4.082031 -2.089844 3.914062 -2.195312 3.753906 -2.277344 M 1.019531 -1.453125 C 1.015625 -1.488281 1.007812 -1.527344 0.988281 -1.578125 C 0.972656 -1.625 0.957031 -1.675781 0.9375 -1.730469 C 0.917969 -1.78125 0.902344 -1.828125 0.886719 -1.863281 C 0.9375 -1.871094 1 -1.890625 1.066406 -1.917969 C 1.132812 -1.949219 1.207031 -1.984375 1.285156 -2.035156 C 1.339844 -2.0625 1.429688 -2.117188 1.550781 -2.195312 C 1.667969 -2.277344 1.804688 -2.371094 1.953125 -2.488281 C 2.101562 -2.601562 2.238281 -2.722656 2.363281 -2.847656 L 2.773438 -2.632812 C 2.546875 -2.4375 2.304688 -2.257812 2.054688 -2.09375 C 1.800781 -1.929688 1.554688 -1.789062 1.3125 -1.675781 L 1.3125 -1.660156 C 1.3125 -1.660156 1.300781 -1.65625 1.269531 -1.644531 C 1.242188 -1.632812 1.207031 -1.617188 1.171875 -1.59375 C 1.132812 -1.574219 1.097656 -1.550781 1.066406 -1.527344 C 1.035156 -1.503906 1.019531 -1.480469 1.019531 -1.453125 M 1.019531 -1.453125 L 1.019531 -1.761719 L 1.332031 -1.914062 L 4.777344 -1.984375 C 4.78125 -1.929688 4.792969 -1.863281 4.808594 -1.792969 C 4.824219 -1.722656 4.835938 -1.664062 4.847656 -1.621094 C 4.191406 -1.601562 3.644531 -1.589844 3.203125 -1.578125 C 2.765625 -1.5625 2.414062 -1.554688 2.144531 -1.546875 C 1.875 -1.539062 1.667969 -1.53125 1.523438 -1.523438 C 1.375 -1.511719 1.265625 -1.503906 1.195312 -1.492188 C 1.125 -1.480469 1.066406 -1.464844 1.019531 -1.453125 M 0.390625 -4.710938 L 2.855469 -4.710938 L 2.855469 -4.300781 L 0.390625 -4.300781 L 0.390625 -4.710938 M 1.765625 -5.125 L 2.1875 -5.125 L 2.1875 -3.949219 L 1.765625 -3.949219 L 1.765625 -5.125 M 3.886719 -5.125 L 4.3125 -5.125 L 4.3125 -3.949219 L 3.886719 -3.949219 L 3.886719 -5.125 M 3.261719 -4.707031 L 5.78125 -4.707031 L 5.78125 -4.296875 L 3.261719 -4.296875 Z "/>
</g>
<g id="glyph-0-4">
<path d="M 0.59375 -1.941406 L 3.453125 -1.941406 L 3.453125 -1.535156 L 0.59375 -1.535156 L 0.59375 -1.941406 M 1.796875 -2.597656 L 2.230469 -2.597656 L 2.230469 -0.230469 L 1.796875 -0.230469 L 1.796875 -2.597656 M 0.378906 -0.257812 C 0.636719 -0.296875 0.933594 -0.347656 1.277344 -0.40625 C 1.621094 -0.464844 1.980469 -0.53125 2.363281 -0.601562 C 2.746094 -0.671875 3.128906 -0.742188 3.511719 -0.8125 L 3.539062 -0.410156 C 3.175781 -0.339844 2.8125 -0.269531 2.445312 -0.195312 C 2.078125 -0.121094 1.726562 -0.0546875 1.390625 0.0078125 C 1.054688 0.0742188 0.75 0.128906 0.484375 0.183594 L 0.378906 -0.257812 M 0.433594 -4.730469 L 3.574219 -4.730469 L 3.574219 -4.328125 L 0.433594 -4.328125 L 0.433594 -4.730469 M 2.316406 -3.929688 L 2.652344 -4.125 C 2.765625 -3.984375 2.882812 -3.835938 3.003906 -3.679688 C 3.125 -3.519531 3.234375 -3.363281 3.335938 -3.214844 C 3.4375 -3.0625 3.519531 -2.929688 3.574219 -2.8125 L 3.226562 -2.578125 C 3.167969 -2.695312 3.089844 -2.835938 2.992188 -2.992188 C 2.890625 -3.148438 2.78125 -3.308594 2.664062 -3.472656 C 2.546875 -3.640625 2.429688 -3.789062 2.316406 -3.929688 M 3.917969 -4.609375 L 4.34375 -4.609375 L 4.34375 -0.90625 L 3.917969 -0.90625 L 3.917969 -4.609375 M 5.125 -5.035156 L 5.574219 -5.035156 L 5.574219 -0.226562 C 5.574219 -0.0820312 5.554688 0.0273438 5.519531 0.101562 C 5.480469 0.175781 5.417969 0.230469 5.324219 0.269531 C 5.230469 0.304688 5.101562 0.328125 4.941406 0.34375 C 4.78125 0.355469 4.585938 0.359375 4.363281 0.359375 C 4.355469 0.296875 4.332031 0.21875 4.300781 0.128906 C 4.265625 0.0390625 4.230469 -0.0351562 4.191406 -0.0976562 C 4.371094 -0.09375 4.535156 -0.0898438 4.6875 -0.0898438 C 4.835938 -0.0859375 4.941406 -0.0859375 4.992188 -0.0898438 C 5.046875 -0.0898438 5.082031 -0.101562 5.097656 -0.121094 C 5.117188 -0.136719 5.125 -0.171875 5.125 -0.226562 L 5.125 -5.035156 M 0.726562 -2.683594 C 0.71875 -2.714844 0.707031 -2.757812 0.691406 -2.8125 C 0.675781 -2.863281 0.65625 -2.917969 0.636719 -2.972656 C 0.613281 -3.027344 0.59375 -3.074219 0.574219 -3.117188 C 0.625 -3.125 0.671875 -3.152344 0.722656 -3.203125 C 0.769531 -3.25 0.820312 -3.3125 0.867188 -3.386719 C 0.90625 -3.433594 0.964844 -3.523438 1.046875 -3.652344 C 1.125 -3.78125 1.210938 -3.929688 1.296875 -4.101562 C 1.386719 -4.277344 1.464844 -4.453125 1.535156 -4.632812 L 1.980469 -4.449219 C 1.890625 -4.265625 1.792969 -4.082031 1.6875 -3.898438 C 1.582031 -3.714844 1.46875 -3.542969 1.351562 -3.375 C 1.238281 -3.210938 1.121094 -3.0625 1.007812 -2.933594 L 1.007812 -2.921875 C 1.007812 -2.921875 0.992188 -2.914062 0.964844 -2.898438 C 0.9375 -2.886719 0.90625 -2.867188 0.867188 -2.839844 C 0.832031 -2.816406 0.796875 -2.789062 0.769531 -2.761719 C 0.742188 -2.734375 0.726562 -2.707031 0.726562 -2.683594 M 0.726562 -2.683594 L 0.722656 -3.011719 L 0.960938 -3.160156 L 3.011719 -3.335938 C 3.042969 -3.273438 3.074219 -3.210938 3.109375 -3.148438 C 3.148438 -3.082031 3.179688 -3.023438 3.207031 -2.976562 C 2.792969 -2.933594 2.441406 -2.902344 2.160156 -2.871094 C 1.878906 -2.84375 1.648438 -2.820312 1.476562 -2.804688 C 1.300781 -2.789062 1.167969 -2.773438 1.066406 -2.757812 C 0.964844 -2.746094 0.890625 -2.734375 0.84375 -2.722656 C 0.792969 -2.710938 0.753906 -2.699219 0.726562 -2.683594 Z "/>
</g>
<g id="glyph-0-5">
<path d="M 3.808594 -4.785156 L 5.804688 -4.785156 L 5.804688 -4.382812 L 3.808594 -4.382812 L 3.808594 -4.785156 M 2.335938 -3.703125 L 3.476562 -3.703125 L 3.476562 -3.335938 L 2.335938 -3.335938 L 2.335938 -3.703125 M 2.96875 -1.832031 L 3.3125 -1.957031 C 3.390625 -1.808594 3.464844 -1.652344 3.539062 -1.484375 C 3.613281 -1.316406 3.675781 -1.15625 3.738281 -1 C 3.796875 -0.84375 3.835938 -0.703125 3.863281 -0.585938 L 3.496094 -0.441406 C 3.472656 -0.558594 3.429688 -0.699219 3.375 -0.859375 C 3.320312 -1.019531 3.257812 -1.183594 3.191406 -1.355469 C 3.121094 -1.527344 3.046875 -1.6875 2.96875 -1.832031 M 2.328125 -4.789062 L 3.660156 -4.789062 L 3.660156 -2.207031 L 2.328125 -2.207031 L 2.328125 -2.589844 L 3.28125 -2.589844 L 3.28125 -4.40625 L 2.328125 -4.40625 L 2.328125 -4.789062 M 4.9375 -4.675781 L 5.304688 -4.675781 L 5.304688 -4.667969 C 5.304688 -4.40625 5.292969 -4.117188 5.277344 -3.792969 C 5.257812 -3.46875 5.21875 -3.125 5.15625 -2.765625 C 5.089844 -2.40625 4.992188 -2.039062 4.859375 -1.664062 C 4.722656 -1.292969 4.542969 -0.921875 4.3125 -0.558594 C 4.082031 -0.195312 3.789062 0.152344 3.441406 0.484375 C 3.402344 0.449219 3.355469 0.410156 3.289062 0.363281 C 3.226562 0.316406 3.167969 0.28125 3.117188 0.257812 C 3.460938 -0.0625 3.75 -0.394531 3.976562 -0.746094 C 4.199219 -1.097656 4.378906 -1.449219 4.507812 -1.804688 C 4.640625 -2.164062 4.734375 -2.511719 4.796875 -2.851562 C 4.859375 -3.191406 4.898438 -3.515625 4.914062 -3.824219 C 4.929688 -4.136719 4.9375 -4.414062 4.9375 -4.667969 L 4.9375 -4.675781 M 4.742188 -1.925781 L 5.109375 -1.925781 L 5.109375 -0.0898438 C 5.109375 -0.0703125 5.109375 -0.0507812 5.113281 -0.0351562 C 5.117188 -0.015625 5.125 -0.00390625 5.140625 0.0078125 C 5.164062 0.0273438 5.199219 0.0351562 5.242188 0.0351562 C 5.261719 0.0351562 5.289062 0.0351562 5.316406 0.0351562 C 5.34375 0.0351562 5.371094 0.0351562 5.394531 0.0351562 C 5.421875 0.0351562 5.445312 0.0351562 5.46875 0.03125 C 5.492188 0.0273438 5.511719 0.0195312 5.523438 0.0078125 C 5.535156 -0.0078125 5.546875 -0.0273438 5.5625 -0.0507812 C 5.574219 -0.078125 5.582031 -0.109375 5.585938 -0.140625 C 5.59375 -0.199219 5.597656 -0.289062 5.601562 -0.410156 C 5.609375 -0.53125 5.609375 -0.671875 5.601562 -0.824219 C 5.640625 -0.789062 5.6875 -0.753906 5.746094 -0.722656 C 5.804688 -0.6875 5.859375 -0.664062 5.902344 -0.648438 C 5.902344 -0.496094 5.898438 -0.347656 5.886719 -0.203125 C 5.878906 -0.0546875 5.867188 0.046875 5.855469 0.105469 C 5.824219 0.21875 5.773438 0.300781 5.695312 0.347656 C 5.664062 0.367188 5.621094 0.386719 5.574219 0.398438 C 5.523438 0.410156 5.476562 0.414062 5.425781 0.414062 C 5.390625 0.414062 5.34375 0.414062 5.285156 0.414062 C 5.230469 0.414062 5.1875 0.414062 5.15625 0.414062 C 5.101562 0.414062 5.042969 0.410156 4.988281 0.394531 C 4.933594 0.378906 4.886719 0.355469 4.847656 0.316406 C 4.800781 0.277344 4.773438 0.226562 4.761719 0.171875 C 4.746094 0.113281 4.742188 0.0195312 4.742188 -0.117188 L 4.742188 -1.925781 M 2.167969 -0.0625 L 2.113281 -0.445312 L 2.25 -0.625 L 3.464844 -1.277344 C 3.476562 -1.222656 3.492188 -1.167969 3.511719 -1.101562 C 3.535156 -1.039062 3.550781 -0.988281 3.570312 -0.953125 C 3.28125 -0.785156 3.046875 -0.648438 2.871094 -0.542969 C 2.695312 -0.4375 2.5625 -0.355469 2.46875 -0.292969 C 2.375 -0.230469 2.308594 -0.183594 2.265625 -0.148438 C 2.226562 -0.113281 2.195312 -0.0859375 2.167969 -0.0625 M 2.164062 -4.789062 L 2.53125 -4.789062 L 2.53125 -0.554688 L 2.167969 -0.0625 C 2.15625 -0.0898438 2.136719 -0.125 2.105469 -0.164062 C 2.074219 -0.207031 2.042969 -0.246094 2.011719 -0.289062 C 1.984375 -0.328125 1.957031 -0.359375 1.9375 -0.378906 C 1.976562 -0.417969 2.027344 -0.484375 2.082031 -0.578125 C 2.136719 -0.667969 2.164062 -0.785156 2.164062 -0.921875 L 2.164062 -4.789062 M 0.640625 -4.742188 L 1.785156 -4.742188 L 1.785156 -0.738281 L 0.640625 -0.738281 L 0.640625 -1.160156 L 1.429688 -1.160156 L 1.429688 -4.3125 L 0.640625 -4.3125 L 0.640625 -4.742188 M 0.453125 -4.742188 L 0.8125 -4.742188 L 0.8125 -0.0507812 L 0.453125 -0.0507812 L 0.453125 -4.742188 M 4.203125 -4.546875 L 4.570312 -4.507812 C 4.53125 -4.269531 4.484375 -4.007812 4.429688 -3.730469 C 4.378906 -3.453125 4.324219 -3.183594 4.269531 -2.925781 C 4.21875 -2.664062 4.167969 -2.441406 4.117188 -2.25 L 3.769531 -2.25 C 3.820312 -2.445312 3.871094 -2.675781 3.921875 -2.941406 C 3.976562 -3.210938 4.027344 -3.484375 4.074219 -3.765625 C 4.125 -4.050781 4.167969 -4.308594 4.203125 -4.546875 M 3.886719 -2.640625 L 5.847656 -2.640625 L 5.847656 -2.25 L 3.886719 -2.25 Z "/>
</g>
<g id="glyph-0-6">
<path d="M 3.226562 -2.222656 L 5.632812 -2.222656 L 5.632812 0.457031 L 5.195312 0.457031 L 5.195312 -1.808594 L 3.652344 -1.808594 L 3.652344 0.484375 L 3.226562 0.484375 L 3.226562 -2.222656 M 4.117188 -5.121094 L 4.566406 -5.121094 L 4.566406 -2.097656 L 4.117188 -2.097656 L 4.117188 -5.121094 M 4.382812 -3.792969 L 5.871094 -3.792969 L 5.871094 -3.367188 L 4.382812 -3.367188 L 4.382812 -3.792969 M 3.445312 -0.226562 L 5.402344 -0.226562 L 5.402344 0.203125 L 3.445312 0.203125 L 3.445312 -0.226562 M 0.835938 -4.578125 L 0.835938 -3.097656 L 2.519531 -3.097656 L 2.519531 -4.578125 L 0.835938 -4.578125 M 0.46875 -4.914062 L 2.890625 -4.914062 L 2.890625 -2.761719 L 0.46875 -2.761719 L 0.46875 -4.914062 M 0.921875 -4.269531 L 1.148438 -4.332031 C 1.203125 -4.1875 1.246094 -4.027344 1.285156 -3.851562 C 1.324219 -3.679688 1.347656 -3.53125 1.355469 -3.402344 L 1.113281 -3.335938 C 1.109375 -3.460938 1.089844 -3.613281 1.054688 -3.789062 C 1.019531 -3.964844 0.976562 -4.125 0.921875 -4.269531 M 1.144531 -0.746094 L 1.453125 -0.777344 C 1.492188 -0.609375 1.515625 -0.425781 1.535156 -0.230469 C 1.550781 -0.03125 1.554688 0.140625 1.550781 0.289062 L 1.226562 0.324219 C 1.238281 0.179688 1.234375 0.0117188 1.21875 -0.1875 C 1.203125 -0.390625 1.179688 -0.574219 1.144531 -0.746094 M 1.773438 -0.746094 L 2.066406 -0.800781 C 2.128906 -0.644531 2.191406 -0.476562 2.242188 -0.296875 C 2.296875 -0.113281 2.332031 0.0429688 2.347656 0.175781 L 2.039062 0.25 C 2.023438 0.113281 1.992188 -0.0507812 1.941406 -0.234375 C 1.894531 -0.421875 1.835938 -0.589844 1.773438 -0.746094 M 2.402344 -0.757812 L 2.695312 -0.863281 C 2.785156 -0.710938 2.867188 -0.546875 2.945312 -0.371094 C 3.023438 -0.191406 3.078125 -0.0351562 3.109375 0.0976562 L 2.796875 0.207031 C 2.769531 0.078125 2.71875 -0.078125 2.644531 -0.257812 C 2.566406 -0.441406 2.488281 -0.605469 2.402344 -0.757812 M 0.597656 -0.863281 L 0.917969 -0.746094 C 0.882812 -0.554688 0.835938 -0.347656 0.777344 -0.132812 C 0.714844 0.0859375 0.636719 0.269531 0.539062 0.414062 L 0.207031 0.273438 C 0.273438 0.175781 0.332031 0.0625 0.382812 -0.0625 C 0.433594 -0.191406 0.476562 -0.328125 0.511719 -0.46875 C 0.550781 -0.609375 0.578125 -0.738281 0.597656 -0.863281 M 2.167969 -4.351562 L 2.4375 -4.253906 C 2.386719 -4.09375 2.332031 -3.925781 2.273438 -3.746094 C 2.214844 -3.566406 2.160156 -3.417969 2.101562 -3.300781 L 1.90625 -3.375 C 1.933594 -3.460938 1.964844 -3.566406 2 -3.683594 C 2.035156 -3.796875 2.070312 -3.914062 2.097656 -4.03125 C 2.128906 -4.152344 2.152344 -4.257812 2.167969 -4.351562 M 0.429688 -2.339844 L 2.933594 -2.339844 L 2.933594 -1.972656 L 0.429688 -1.972656 L 0.429688 -2.339844 M 1.496094 -4.746094 L 1.808594 -4.746094 L 1.808594 -2.921875 L 1.859375 -2.921875 L 1.859375 -1.339844 L 1.449219 -1.339844 L 1.449219 -2.921875 L 1.496094 -2.921875 L 1.496094 -4.746094 M 0.316406 -1.484375 L 3.007812 -1.484375 L 3.007812 -1.125 L 0.316406 -1.125 Z "/>
</g>
<g id="glyph-0-7">
<path d="M 1.074219 -1.527344 L 5.023438 -1.527344 L 5.023438 -1.125 L 1.074219 -1.125 L 1.074219 -1.527344 M 1.34375 -2.878906 L 4.777344 -2.878906 L 4.777344 -2.46875 L 1.34375 -2.46875 L 1.34375 -2.878906 M 0.464844 -0.0976562 L 5.675781 -0.0976562 L 5.675781 0.316406 L 0.464844 0.316406 L 0.464844 -0.0976562 M 2.796875 -2.707031 L 3.273438 -2.707031 L 3.273438 0.132812 L 2.796875 0.132812 L 2.796875 -2.707031 M 1.421875 -4.96875 L 3.246094 -4.96875 L 3.246094 -4.535156 L 1.421875 -4.535156 L 1.421875 -4.96875 M 2.785156 -4.96875 L 3.300781 -4.96875 C 3.441406 -4.757812 3.613281 -4.546875 3.808594 -4.339844 C 4.003906 -4.136719 4.214844 -3.941406 4.449219 -3.757812 C 4.679688 -3.574219 4.921875 -3.410156 5.167969 -3.261719 C 5.414062 -3.113281 5.660156 -2.984375 5.902344 -2.882812 C 5.871094 -2.851562 5.832031 -2.8125 5.792969 -2.765625 C 5.753906 -2.71875 5.714844 -2.667969 5.675781 -2.617188 C 5.640625 -2.566406 5.609375 -2.523438 5.585938 -2.480469 C 5.253906 -2.636719 4.925781 -2.832031 4.597656 -3.066406 C 4.269531 -3.304688 3.960938 -3.5625 3.675781 -3.84375 C 3.386719 -4.125 3.140625 -4.410156 2.925781 -4.699219 L 2.785156 -4.699219 L 2.785156 -4.96875 M 2.867188 -4.96875 L 3.203125 -4.734375 C 3.050781 -4.523438 2.871094 -4.308594 2.660156 -4.09375 C 2.453125 -3.878906 2.226562 -3.667969 1.984375 -3.460938 C 1.742188 -3.257812 1.492188 -3.066406 1.242188 -2.890625 C 0.992188 -2.714844 0.75 -2.5625 0.519531 -2.4375 C 0.488281 -2.496094 0.441406 -2.558594 0.386719 -2.628906 C 0.332031 -2.703125 0.277344 -2.761719 0.226562 -2.804688 C 0.460938 -2.917969 0.707031 -3.054688 0.957031 -3.21875 C 1.207031 -3.378906 1.453125 -3.554688 1.691406 -3.753906 C 1.929688 -3.949219 2.148438 -4.148438 2.347656 -4.355469 C 2.550781 -4.566406 2.722656 -4.769531 2.867188 -4.96875 Z "/>
</g>
<g id="glyph-0-8">
<path d="M 3.832031 -4.808594 L 5.414062 -4.808594 L 5.414062 -4.386719 L 4.242188 -4.386719 L 4.242188 0.476562 L 3.832031 0.476562 L 3.832031 -4.808594 M 5.324219 -4.808594 L 5.40625 -4.808594 L 5.480469 -4.828125 L 5.792969 -4.625 C 5.6875 -4.339844 5.566406 -4.035156 5.433594 -3.710938 C 5.296875 -3.382812 5.164062 -3.078125 5.035156 -2.792969 C 5.3125 -2.503906 5.496094 -2.238281 5.585938 -1.996094 C 5.675781 -1.753906 5.71875 -1.527344 5.71875 -1.3125 C 5.71875 -1.132812 5.699219 -0.976562 5.65625 -0.835938 C 5.613281 -0.695312 5.539062 -0.589844 5.4375 -0.519531 C 5.390625 -0.488281 5.332031 -0.460938 5.265625 -0.441406 C 5.203125 -0.417969 5.132812 -0.40625 5.058594 -0.398438 C 4.980469 -0.390625 4.898438 -0.386719 4.804688 -0.386719 C 4.714844 -0.386719 4.625 -0.386719 4.535156 -0.390625 C 4.53125 -0.449219 4.519531 -0.519531 4.496094 -0.605469 C 4.476562 -0.691406 4.449219 -0.765625 4.410156 -0.824219 C 4.5 -0.816406 4.585938 -0.8125 4.667969 -0.808594 C 4.75 -0.808594 4.820312 -0.804688 4.882812 -0.804688 C 4.929688 -0.8125 4.976562 -0.816406 5.019531 -0.828125 C 5.0625 -0.839844 5.101562 -0.851562 5.132812 -0.875 C 5.195312 -0.910156 5.238281 -0.972656 5.261719 -1.0625 C 5.285156 -1.152344 5.296875 -1.25 5.292969 -1.355469 C 5.292969 -1.542969 5.242188 -1.75 5.144531 -1.980469 C 5.046875 -2.207031 4.863281 -2.460938 4.589844 -2.738281 C 4.660156 -2.894531 4.726562 -3.0625 4.796875 -3.238281 C 4.867188 -3.414062 4.933594 -3.589844 5 -3.761719 C 5.0625 -3.933594 5.125 -4.097656 5.179688 -4.257812 C 5.234375 -4.414062 5.28125 -4.550781 5.324219 -4.667969 L 5.324219 -4.808594 M 0.488281 -4.410156 L 3.375 -4.410156 L 3.375 -3.996094 L 0.488281 -3.996094 L 0.488281 -4.410156 M 0.3125 -2.761719 L 3.511719 -2.761719 L 3.511719 -2.339844 L 0.3125 -2.339844 L 0.3125 -2.761719 M 0.863281 -3.835938 L 1.257812 -3.941406 C 1.351562 -3.777344 1.4375 -3.601562 1.507812 -3.40625 C 1.582031 -3.214844 1.632812 -3.046875 1.660156 -2.902344 L 1.246094 -2.78125 C 1.21875 -2.925781 1.167969 -3.097656 1.09375 -3.292969 C 1.019531 -3.488281 0.941406 -3.671875 0.863281 -3.835938 M 2.644531 -3.960938 L 3.105469 -3.855469 C 3.046875 -3.714844 2.988281 -3.5625 2.925781 -3.40625 C 2.859375 -3.25 2.796875 -3.101562 2.734375 -2.957031 C 2.671875 -2.816406 2.609375 -2.6875 2.554688 -2.578125 L 2.164062 -2.683594 C 2.21875 -2.796875 2.28125 -2.929688 2.34375 -3.078125 C 2.40625 -3.230469 2.464844 -3.382812 2.519531 -3.539062 C 2.570312 -3.691406 2.613281 -3.832031 2.644531 -3.960938 M 0.90625 -0.257812 L 3 -0.257812 L 3 0.160156 L 0.90625 0.160156 L 0.90625 -0.257812 M 0.667969 -1.777344 L 3.234375 -1.777344 L 3.234375 0.402344 L 2.773438 0.402344 L 2.773438 -1.363281 L 1.101562 -1.363281 L 1.101562 0.445312 L 0.667969 0.445312 L 0.667969 -1.777344 M 1.507812 -5.046875 L 1.917969 -5.15625 C 1.988281 -5.03125 2.054688 -4.890625 2.121094 -4.734375 C 2.1875 -4.582031 2.234375 -4.449219 2.261719 -4.34375 L 1.828125 -4.203125 C 1.796875 -4.3125 1.753906 -4.449219 1.695312 -4.609375 C 1.636719 -4.765625 1.574219 -4.914062 1.507812 -5.046875 Z "/>
</g>
<g id="glyph-0-9">
<path d="M 0.804688 -4.894531 L 1.253906 -4.894531 L 1.253906 -3.09375 C 1.253906 -2.835938 1.246094 -2.554688 1.230469 -2.246094 C 1.21875 -1.9375 1.191406 -1.625 1.148438 -1.308594 C 1.109375 -0.988281 1.046875 -0.679688 0.960938 -0.371094 C 0.878906 -0.0664062 0.769531 0.210938 0.636719 0.464844 C 0.605469 0.441406 0.570312 0.414062 0.523438 0.386719 C 0.476562 0.355469 0.425781 0.328125 0.375 0.300781 C 0.324219 0.269531 0.277344 0.25 0.238281 0.238281 C 0.367188 -0.0078125 0.472656 -0.269531 0.550781 -0.554688 C 0.628906 -0.835938 0.683594 -1.125 0.71875 -1.421875 C 0.753906 -1.722656 0.777344 -2.011719 0.789062 -2.296875 C 0.800781 -2.582031 0.804688 -2.847656 0.804688 -3.09375 L 0.804688 -4.894531 M 1.085938 -4.894531 L 5.488281 -4.894531 L 5.488281 -3.84375 L 1.085938 -3.84375 L 1.085938 -4.167969 L 5.042969 -4.167969 L 5.042969 -4.578125 L 1.085938 -4.578125 L 1.085938 -4.894531 M 3.261719 -3.738281 L 3.691406 -3.738281 L 3.691406 -2.828125 L 3.261719 -2.828125 L 3.261719 -3.738281 M 2.980469 -1.515625 L 3.375 -1.515625 L 3.375 0.0117188 L 2.980469 0.0117188 L 2.980469 -1.515625 M 2.164062 -1.6875 L 5.304688 -1.6875 L 5.304688 -1.394531 L 2.164062 -1.394531 L 2.164062 -1.6875 M 4.222656 -2.5 L 4.222656 -2.152344 L 5.027344 -2.152344 L 5.027344 -2.5 L 4.222656 -2.5 M 3.0625 -2.5 L 3.0625 -2.152344 L 3.851562 -2.152344 L 3.851562 -2.5 L 3.0625 -2.5 M 1.929688 -2.5 L 1.929688 -2.152344 L 2.6875 -2.152344 L 2.6875 -2.5 L 1.929688 -2.5 M 1.546875 -2.730469 L 5.421875 -2.730469 L 5.421875 -1.917969 L 1.546875 -1.917969 L 1.546875 -2.730469 M 5.175781 -1.6875 L 5.597656 -1.6875 C 5.597656 -1.6875 5.597656 -1.664062 5.59375 -1.621094 C 5.59375 -1.578125 5.589844 -1.542969 5.585938 -1.507812 C 5.570312 -1.109375 5.546875 -0.789062 5.523438 -0.542969 C 5.5 -0.300781 5.472656 -0.113281 5.4375 0.0117188 C 5.40625 0.136719 5.367188 0.226562 5.324219 0.28125 C 5.28125 0.328125 5.234375 0.367188 5.183594 0.386719 C 5.128906 0.410156 5.070312 0.421875 5.003906 0.429688 C 4.945312 0.4375 4.867188 0.441406 4.777344 0.441406 C 4.683594 0.441406 4.585938 0.4375 4.484375 0.433594 C 4.480469 0.375 4.472656 0.316406 4.453125 0.25 C 4.4375 0.183594 4.414062 0.128906 4.386719 0.078125 C 4.480469 0.0898438 4.566406 0.0976562 4.640625 0.101562 C 4.714844 0.101562 4.773438 0.105469 4.808594 0.105469 C 4.847656 0.105469 4.875 0.101562 4.902344 0.09375 C 4.925781 0.0898438 4.945312 0.0703125 4.960938 0.0429688 C 4.992188 0.0117188 5.019531 -0.0625 5.042969 -0.179688 C 5.070312 -0.296875 5.09375 -0.46875 5.117188 -0.703125 C 5.140625 -0.933594 5.160156 -1.242188 5.175781 -1.621094 L 5.175781 -1.6875 M 2.164062 -0.929688 L 2.164062 -0.640625 L 4.179688 -0.640625 L 4.179688 -0.929688 L 2.164062 -0.929688 M 1.808594 -1.160156 L 4.546875 -1.160156 L 4.546875 -0.410156 L 1.808594 -0.410156 L 1.808594 -1.160156 M 2.308594 -2.023438 L 2.738281 -1.949219 C 2.59375 -1.738281 2.417969 -1.53125 2.210938 -1.335938 C 2 -1.136719 1.75 -0.953125 1.464844 -0.78125 C 1.433594 -0.828125 1.386719 -0.875 1.328125 -0.929688 C 1.269531 -0.980469 1.214844 -1.023438 1.167969 -1.050781 C 1.4375 -1.191406 1.667969 -1.34375 1.859375 -1.519531 C 2.054688 -1.691406 2.203125 -1.859375 2.308594 -2.023438 M 1.460938 -0.0429688 C 1.695312 -0.0546875 1.96875 -0.0703125 2.277344 -0.0898438 C 2.582031 -0.105469 2.910156 -0.128906 3.261719 -0.148438 C 3.609375 -0.171875 3.957031 -0.195312 4.308594 -0.214844 L 4.300781 0.0664062 C 3.964844 0.0976562 3.625 0.125 3.289062 0.148438 C 2.953125 0.175781 2.632812 0.199219 2.328125 0.222656 C 2.023438 0.246094 1.742188 0.265625 1.492188 0.289062 L 1.460938 -0.0429688 M 3.851562 -0.324219 L 4.128906 -0.46875 C 4.234375 -0.394531 4.335938 -0.300781 4.445312 -0.199219 C 4.554688 -0.09375 4.636719 0 4.699219 0.0859375 L 4.40625 0.246094 C 4.347656 0.164062 4.265625 0.0664062 4.160156 -0.0390625 C 4.054688 -0.148438 3.953125 -0.242188 3.851562 -0.324219 M 1.589844 -3.054688 C 1.769531 -3.082031 1.984375 -3.121094 2.234375 -3.164062 C 2.484375 -3.210938 2.742188 -3.257812 3.007812 -3.3125 L 3.007812 -3.050781 C 2.773438 -2.996094 2.542969 -2.945312 2.308594 -2.894531 C 2.074219 -2.84375 1.863281 -2.800781 1.679688 -2.769531 L 1.589844 -3.054688 M 5.101562 -3.832031 L 5.242188 -3.582031 C 5.140625 -3.539062 5.027344 -3.503906 4.898438 -3.472656 C 4.769531 -3.4375 4.640625 -3.410156 4.511719 -3.386719 C 4.382812 -3.367188 4.265625 -3.347656 4.160156 -3.335938 L 4.050781 -3.550781 C 4.152344 -3.570312 4.269531 -3.597656 4.398438 -3.628906 C 4.523438 -3.664062 4.652344 -3.695312 4.777344 -3.734375 C 4.90625 -3.769531 5.011719 -3.804688 5.101562 -3.832031 M 3.976562 -3.042969 L 4.0625 -3.273438 C 4.285156 -3.253906 4.503906 -3.222656 4.722656 -3.175781 C 4.945312 -3.128906 5.121094 -3.078125 5.261719 -3.023438 L 5.152344 -2.769531 C 5.011719 -2.820312 4.835938 -2.871094 4.621094 -2.925781 C 4.402344 -2.976562 4.191406 -3.015625 3.976562 -3.042969 M 1.6875 -3.539062 L 1.777344 -3.769531 C 1.972656 -3.753906 2.171875 -3.722656 2.367188 -3.683594 C 2.566406 -3.640625 2.730469 -3.59375 2.859375 -3.542969 L 2.75 -3.289062 C 2.621094 -3.339844 2.457031 -3.390625 2.265625 -3.433594 C 2.074219 -3.480469 1.882812 -3.511719 1.6875 -3.539062 Z "/>
</g>
<g id="glyph-0-10">
<path d="M 0.269531 -4.125 L 2.921875 -4.125 L 2.921875 -3.695312 L 0.269531 -3.695312 L 0.269531 -4.125 M 1.257812 -2.890625 L 2.417969 -2.890625 L 2.417969 -2.46875 L 1.257812 -2.46875 L 1.257812 -2.890625 M 1.007812 -3.90625 L 1.464844 -3.90625 C 1.457031 -3.464844 1.441406 -3.035156 1.421875 -2.613281 C 1.398438 -2.191406 1.355469 -1.789062 1.292969 -1.40625 C 1.230469 -1.023438 1.136719 -0.671875 1.011719 -0.347656 C 0.886719 -0.0273438 0.722656 0.253906 0.511719 0.488281 C 0.476562 0.4375 0.425781 0.378906 0.359375 0.316406 C 0.289062 0.25 0.226562 0.203125 0.164062 0.164062 C 0.359375 -0.0507812 0.515625 -0.308594 0.625 -0.605469 C 0.738281 -0.902344 0.820312 -1.226562 0.875 -1.582031 C 0.925781 -1.9375 0.960938 -2.3125 0.976562 -2.707031 C 0.992188 -3.101562 1.003906 -3.5 1.007812 -3.90625 M 2.261719 -2.890625 L 2.695312 -2.890625 C 2.695312 -2.890625 2.695312 -2.878906 2.695312 -2.851562 C 2.695312 -2.824219 2.695312 -2.792969 2.695312 -2.761719 C 2.695312 -2.730469 2.695312 -2.703125 2.695312 -2.683594 C 2.683594 -2.1875 2.671875 -1.765625 2.65625 -1.421875 C 2.644531 -1.078125 2.628906 -0.796875 2.609375 -0.578125 C 2.589844 -0.359375 2.5625 -0.1875 2.535156 -0.0664062 C 2.507812 0.0546875 2.476562 0.144531 2.4375 0.195312 C 2.390625 0.265625 2.335938 0.3125 2.277344 0.339844 C 2.222656 0.367188 2.15625 0.386719 2.078125 0.398438 C 2.003906 0.40625 1.910156 0.410156 1.800781 0.410156 C 1.6875 0.410156 1.574219 0.40625 1.453125 0.398438 C 1.445312 0.332031 1.433594 0.257812 1.414062 0.175781 C 1.394531 0.0976562 1.367188 0.0234375 1.324219 -0.0351562 C 1.449219 -0.0234375 1.558594 -0.015625 1.652344 -0.015625 C 1.75 -0.0117188 1.820312 -0.0117188 1.871094 -0.0117188 C 1.949219 -0.0078125 2.007812 -0.0351562 2.046875 -0.0898438 C 2.085938 -0.140625 2.121094 -0.257812 2.144531 -0.441406 C 2.167969 -0.625 2.191406 -0.90625 2.210938 -1.285156 C 2.226562 -1.660156 2.246094 -2.167969 2.261719 -2.796875 L 2.261719 -2.890625 M 3.691406 -2.578125 L 3.976562 -2.890625 C 4.132812 -2.796875 4.292969 -2.691406 4.464844 -2.574219 C 4.632812 -2.460938 4.792969 -2.34375 4.945312 -2.226562 C 5.097656 -2.109375 5.222656 -2.007812 5.316406 -1.917969 L 5.003906 -1.5625 C 4.910156 -1.65625 4.789062 -1.765625 4.640625 -1.882812 C 4.492188 -2 4.335938 -2.121094 4.167969 -2.242188 C 4 -2.363281 3.839844 -2.476562 3.691406 -2.578125 M 3.3125 -0.777344 L 3.605469 -1.117188 C 3.777344 -1.035156 3.953125 -0.945312 4.140625 -0.839844 C 4.324219 -0.738281 4.507812 -0.628906 4.691406 -0.523438 C 4.871094 -0.414062 5.039062 -0.308594 5.195312 -0.203125 C 5.347656 -0.0976562 5.480469 0.00390625 5.589844 0.0976562 L 5.273438 0.5 C 5.171875 0.40625 5.042969 0.304688 4.890625 0.195312 C 4.738281 0.0859375 4.574219 -0.0273438 4.398438 -0.144531 C 4.21875 -0.257812 4.039062 -0.371094 3.851562 -0.480469 C 3.664062 -0.585938 3.484375 -0.6875 3.3125 -0.777344 M 1.113281 -5.015625 L 1.515625 -5.175781 C 1.621094 -5.046875 1.722656 -4.902344 1.824219 -4.742188 C 1.925781 -4.582031 1.996094 -4.445312 2.039062 -4.328125 L 1.613281 -4.144531 C 1.574219 -4.261719 1.503906 -4.402344 1.40625 -4.566406 C 1.308594 -4.734375 1.210938 -4.882812 1.113281 -5.015625 M 3.832031 -5.15625 L 4.277344 -5.027344 C 4.1875 -4.71875 4.082031 -4.414062 3.957031 -4.117188 C 3.832031 -3.820312 3.695312 -3.542969 3.542969 -3.285156 C 3.394531 -3.027344 3.230469 -2.796875 3.054688 -2.597656 C 3.011719 -2.648438 2.953125 -2.707031 2.886719 -2.769531 C 2.820312 -2.828125 2.757812 -2.878906 2.695312 -2.914062 C 2.855469 -3.082031 3.007812 -3.285156 3.152344 -3.527344 C 3.300781 -3.765625 3.429688 -4.027344 3.546875 -4.308594 C 3.664062 -4.589844 3.757812 -4.871094 3.832031 -5.15625 M 3.476562 -4.039062 L 5.898438 -4.039062 L 5.898438 -3.613281 L 3.476562 -3.613281 Z "/>
</g>
<g id="glyph-0-11">
</g>
<g id="glyph-1-0">
<path d="M 3.59375 -3.933594 C 3.761719 -3.738281 3.894531 -3.496094 3.984375 -3.207031 C 4.078125 -2.917969 4.125 -2.589844 4.125 -2.21875 C 4.125 -1.859375 4.082031 -1.535156 3.988281 -1.246094 C 3.898438 -0.953125 3.765625 -0.710938 3.59375 -0.511719 C 3.410156 -0.304688 3.199219 -0.152344 2.957031 -0.0546875 C 2.714844 0.0429688 2.449219 0.09375 2.160156 0.09375 C 1.859375 0.09375 1.589844 0.0429688 1.347656 -0.0585938 C 1.109375 -0.160156 0.902344 -0.3125 0.726562 -0.511719 C 0.558594 -0.710938 0.425781 -0.953125 0.335938 -1.242188 C 0.242188 -1.53125 0.195312 -1.855469 0.195312 -2.21875 C 0.195312 -2.59375 0.242188 -2.921875 0.335938 -3.203125 C 0.429688 -3.488281 0.558594 -3.730469 0.730469 -3.933594 C 0.902344 -4.128906 1.109375 -4.277344 1.351562 -4.382812 C 1.59375 -4.484375 1.863281 -4.535156 2.160156 -4.535156 C 2.460938 -4.535156 2.734375 -4.484375 2.976562 -4.378906 C 3.21875 -4.273438 3.425781 -4.125 3.59375 -3.933594 M 3.511719 -2.21875 C 3.511719 -2.515625 3.480469 -2.773438 3.417969 -3 C 3.351562 -3.226562 3.261719 -3.417969 3.148438 -3.566406 C 3.03125 -3.71875 2.890625 -3.832031 2.722656 -3.910156 C 2.554688 -3.988281 2.371094 -4.023438 2.164062 -4.023438 C 1.949219 -4.023438 1.761719 -3.988281 1.601562 -3.914062 C 1.441406 -3.839844 1.300781 -3.722656 1.175781 -3.566406 C 1.058594 -3.414062 0.96875 -3.222656 0.90625 -2.996094 C 0.84375 -2.765625 0.8125 -2.507812 0.8125 -2.21875 C 0.8125 -1.636719 0.933594 -1.191406 1.179688 -0.882812 C 1.421875 -0.574219 1.75 -0.417969 2.164062 -0.417969 C 2.574219 -0.417969 2.902344 -0.574219 3.144531 -0.882812 C 3.390625 -1.191406 3.511719 -1.636719 3.511719 -2.21875 Z "/>
</g>
<g id="glyph-1-1">
<path d="M 3.628906 0 L 2.964844 0 L 1.003906 -3.832031 L 1.003906 0 L 0.449219 0 L 0.449219 -4.441406 L 1.289062 -4.441406 L 3.078125 -0.925781 L 3.078125 -4.441406 L 3.628906 -4.441406 Z "/>
</g>
<g id="glyph-2-0">
</g>
<g id="glyph-2-1">
<path d="M 3.375 -5.121094 L 3.863281 -5.121094 C 3.863281 -4.65625 3.875 -4.207031 3.90625 -3.773438 C 3.933594 -3.339844 3.976562 -2.929688 4.03125 -2.546875 C 4.089844 -2.164062 4.160156 -1.816406 4.242188 -1.503906 C 4.324219 -1.191406 4.414062 -0.917969 4.511719 -0.695312 C 4.613281 -0.46875 4.71875 -0.292969 4.832031 -0.167969 C 4.949219 -0.0429688 5.066406 0.0195312 5.1875 0.0195312 C 5.277344 0.0195312 5.34375 -0.0703125 5.382812 -0.246094 C 5.425781 -0.417969 5.453125 -0.714844 5.476562 -1.125 C 5.523438 -1.070312 5.585938 -1.019531 5.664062 -0.972656 C 5.742188 -0.921875 5.8125 -0.886719 5.878906 -0.863281 C 5.851562 -0.511719 5.808594 -0.238281 5.757812 -0.0429688 C 5.703125 0.152344 5.628906 0.292969 5.535156 0.371094 C 5.4375 0.453125 5.308594 0.496094 5.152344 0.496094 C 4.949219 0.496094 4.761719 0.421875 4.597656 0.28125 C 4.433594 0.136719 4.285156 -0.0625 4.15625 -0.316406 C 4.023438 -0.574219 3.910156 -0.875 3.816406 -1.226562 C 3.71875 -1.574219 3.640625 -1.957031 3.574219 -2.378906 C 3.507812 -2.796875 3.460938 -3.238281 3.429688 -3.703125 C 3.394531 -4.167969 3.378906 -4.640625 3.375 -5.121094 M 4.230469 -4.832031 L 4.496094 -5.113281 C 4.625 -5.0625 4.753906 -5 4.886719 -4.925781 C 5.023438 -4.851562 5.148438 -4.777344 5.265625 -4.699219 C 5.386719 -4.621094 5.480469 -4.546875 5.554688 -4.480469 L 5.273438 -4.160156 C 5.199219 -4.230469 5.105469 -4.304688 4.988281 -4.386719 C 4.875 -4.46875 4.75 -4.546875 4.617188 -4.625 C 4.484375 -4.703125 4.355469 -4.773438 4.230469 -4.832031 M 5.023438 -3.261719 L 5.480469 -3.152344 C 5.210938 -2.332031 4.847656 -1.613281 4.390625 -1.003906 C 3.933594 -0.390625 3.382812 0.105469 2.742188 0.488281 C 2.71875 0.457031 2.6875 0.417969 2.644531 0.375 C 2.601562 0.332031 2.554688 0.289062 2.511719 0.242188 C 2.464844 0.195312 2.425781 0.160156 2.390625 0.132812 C 3.023438 -0.210938 3.5625 -0.671875 4.003906 -1.246094 C 4.441406 -1.820312 4.78125 -2.492188 5.023438 -3.261719 M 0.414062 -4.15625 L 5.71875 -4.15625 L 5.71875 -3.703125 L 0.414062 -3.703125 L 0.414062 -4.15625 M 0.378906 -0.402344 C 0.601562 -0.445312 0.863281 -0.492188 1.15625 -0.554688 C 1.453125 -0.613281 1.765625 -0.675781 2.097656 -0.746094 C 2.425781 -0.816406 2.757812 -0.882812 3.085938 -0.945312 L 3.121094 -0.511719 C 2.808594 -0.445312 2.492188 -0.375 2.175781 -0.304688 C 1.859375 -0.234375 1.554688 -0.171875 1.261719 -0.105469 C 0.96875 -0.0429688 0.707031 0.015625 0.46875 0.0664062 L 0.378906 -0.402344 M 1.191406 -2.761719 L 1.191406 -1.699219 L 2.4375 -1.699219 L 2.4375 -2.761719 L 1.191406 -2.761719 M 0.765625 -3.164062 L 2.882812 -3.164062 L 2.882812 -1.300781 L 0.765625 -1.300781 Z "/>
</g>
<g id="glyph-3-0">
<path d="M 3.953125 -2.21875 C 3.953125 -1.8125 3.871094 -1.445312 3.707031 -1.117188 C 3.542969 -0.792969 3.324219 -0.539062 3.046875 -0.355469 C 2.820312 -0.214844 2.59375 -0.121094 2.363281 -0.0703125 C 2.128906 -0.0234375 1.835938 0 1.472656 0 L 0.449219 0 L 0.449219 -4.441406 L 1.460938 -4.441406 C 1.878906 -4.441406 2.207031 -4.410156 2.445312 -4.347656 C 2.683594 -4.285156 2.886719 -4.199219 3.050781 -4.089844 C 3.339844 -3.902344 3.5625 -3.652344 3.71875 -3.335938 C 3.875 -3.023438 3.953125 -2.652344 3.953125 -2.21875 M 3.339844 -2.226562 C 3.339844 -2.566406 3.28125 -2.859375 3.167969 -3.101562 C 3.054688 -3.34375 2.886719 -3.53125 2.664062 -3.667969 C 2.507812 -3.761719 2.339844 -3.832031 2.160156 -3.871094 C 1.980469 -3.914062 1.757812 -3.933594 1.492188 -3.933594 L 1.042969 -3.933594 L 1.042969 -0.507812 L 1.492188 -0.507812 C 1.753906 -0.507812 1.984375 -0.527344 2.179688 -0.570312 C 2.378906 -0.613281 2.558594 -0.6875 2.722656 -0.800781 C 2.925781 -0.941406 3.082031 -1.128906 3.183594 -1.359375 C 3.285156 -1.589844 3.339844 -1.878906 3.339844 -2.226562 Z "/>
</g>
<g id="glyph-3-1">
<path d="M 2.1875 0.0820312 C 1.898438 0.0820312 1.628906 0.03125 1.386719 -0.0664062 C 1.140625 -0.164062 0.933594 -0.308594 0.753906 -0.5 C 0.578125 -0.695312 0.441406 -0.933594 0.34375 -1.222656 C 0.246094 -1.511719 0.195312 -1.84375 0.195312 -2.21875 C 0.195312 -2.589844 0.246094 -2.914062 0.339844 -3.191406 C 0.433594 -3.464844 0.570312 -3.707031 0.75 -3.910156 C 0.929688 -4.109375 1.140625 -4.261719 1.382812 -4.367188 C 1.625 -4.472656 1.894531 -4.523438 2.195312 -4.523438 C 2.34375 -4.523438 2.484375 -4.511719 2.617188 -4.492188 C 2.746094 -4.46875 2.867188 -4.441406 2.976562 -4.40625 C 3.074219 -4.378906 3.171875 -4.339844 3.273438 -4.296875 C 3.371094 -4.25 3.472656 -4.199219 3.570312 -4.148438 L 3.570312 -3.433594 L 3.519531 -3.433594 C 3.46875 -3.480469 3.402344 -3.539062 3.320312 -3.605469 C 3.238281 -3.675781 3.140625 -3.742188 3.023438 -3.808594 C 2.910156 -3.867188 2.785156 -3.917969 2.652344 -3.960938 C 2.519531 -4 2.363281 -4.019531 2.191406 -4.019531 C 2 -4.019531 1.820312 -3.980469 1.652344 -3.902344 C 1.484375 -3.824219 1.335938 -3.710938 1.207031 -3.558594 C 1.082031 -3.410156 0.984375 -3.21875 0.914062 -2.988281 C 0.847656 -2.761719 0.8125 -2.503906 0.8125 -2.21875 C 0.8125 -1.914062 0.847656 -1.652344 0.921875 -1.429688 C 0.996094 -1.210938 1.097656 -1.027344 1.222656 -0.875 C 1.347656 -0.726562 1.492188 -0.617188 1.660156 -0.542969 C 1.824219 -0.46875 2.003906 -0.429688 2.191406 -0.429688 C 2.359375 -0.429688 2.519531 -0.449219 2.664062 -0.492188 C 2.808594 -0.535156 2.9375 -0.585938 3.050781 -0.652344 C 3.160156 -0.710938 3.257812 -0.773438 3.335938 -0.839844 C 3.414062 -0.90625 3.476562 -0.960938 3.523438 -1.003906 L 3.570312 -1.003906 L 3.570312 -0.300781 C 3.472656 -0.253906 3.378906 -0.210938 3.292969 -0.171875 C 3.207031 -0.128906 3.101562 -0.0859375 2.976562 -0.046875 C 2.847656 -0.0078125 2.730469 0.0273438 2.617188 0.046875 C 2.507812 0.0703125 2.363281 0.0820312 2.1875 0.0820312 Z "/>
</g>
<g id="glyph-4-0">
<path d="M 2.554688 -1.148438 L 2.417969 -1.472656 C 2.667969 -1.578125 2.859375 -1.710938 2.992188 -1.867188 C 3.125 -2.023438 3.191406 -2.21875 3.191406 -2.449219 L 3.078125 -2.964844 L 3.410156 -2.5 C 3.363281 -2.445312 3.3125 -2.410156 3.257812 -2.390625 C 3.199219 -2.375 3.144531 -2.363281 3.085938 -2.363281 C 2.960938 -2.363281 2.851562 -2.402344 2.761719 -2.476562 C 2.671875 -2.546875 2.628906 -2.65625 2.628906 -2.796875 C 2.628906 -2.945312 2.671875 -3.054688 2.765625 -3.128906 C 2.855469 -3.203125 2.964844 -3.238281 3.09375 -3.238281 C 3.261719 -3.238281 3.390625 -3.175781 3.480469 -3.046875 C 3.566406 -2.917969 3.613281 -2.746094 3.613281 -2.535156 C 3.613281 -2.207031 3.515625 -1.921875 3.324219 -1.679688 C 3.132812 -1.441406 2.875 -1.261719 2.554688 -1.148438 Z "/>
</g>
<g id="glyph-4-1">
<path d="M 2.519531 -4.847656 L 2.945312 -4.847656 L 2.945312 -2.757812 C 2.945312 -2.507812 2.933594 -2.242188 2.914062 -1.964844 C 2.894531 -1.683594 2.855469 -1.402344 2.796875 -1.113281 C 2.742188 -0.828125 2.65625 -0.550781 2.546875 -0.289062 C 2.433594 -0.0234375 2.285156 0.21875 2.097656 0.433594 C 2.070312 0.410156 2.035156 0.382812 1.992188 0.351562 C 1.949219 0.320312 1.902344 0.289062 1.855469 0.257812 C 1.808594 0.230469 1.765625 0.207031 1.730469 0.1875 C 1.910156 -0.015625 2.050781 -0.238281 2.15625 -0.484375 C 2.261719 -0.730469 2.339844 -0.984375 2.390625 -1.246094 C 2.441406 -1.507812 2.476562 -1.765625 2.492188 -2.023438 C 2.507812 -2.277344 2.519531 -2.523438 2.519531 -2.757812 L 2.519531 -4.847656 M 3.453125 -2.914062 L 3.886719 -2.914062 L 3.886719 -0.257812 C 3.886719 -0.148438 3.90625 -0.078125 3.941406 -0.046875 C 3.976562 -0.015625 4.0625 0 4.191406 0 C 4.21875 0 4.277344 0 4.359375 0 C 4.445312 0 4.535156 0 4.636719 0 C 4.738281 0 4.835938 0 4.921875 0 C 5.007812 0 5.074219 0 5.113281 0 C 5.191406 0 5.25 -0.0195312 5.292969 -0.0625 C 5.332031 -0.105469 5.359375 -0.1875 5.378906 -0.3125 C 5.394531 -0.433594 5.40625 -0.617188 5.414062 -0.863281 C 5.445312 -0.835938 5.488281 -0.8125 5.535156 -0.789062 C 5.578125 -0.765625 5.628906 -0.742188 5.675781 -0.722656 C 5.726562 -0.707031 5.773438 -0.691406 5.816406 -0.679688 C 5.796875 -0.398438 5.765625 -0.175781 5.726562 -0.015625 C 5.683594 0.144531 5.617188 0.257812 5.527344 0.320312 C 5.433594 0.382812 5.308594 0.414062 5.144531 0.414062 C 5.121094 0.414062 5.074219 0.414062 5.007812 0.414062 C 4.941406 0.414062 4.863281 0.414062 4.777344 0.414062 C 4.6875 0.414062 4.601562 0.414062 4.515625 0.414062 C 4.429688 0.414062 4.355469 0.414062 4.285156 0.414062 C 4.21875 0.414062 4.171875 0.414062 4.148438 0.414062 C 3.964844 0.414062 3.824219 0.394531 3.722656 0.359375 C 3.625 0.320312 3.554688 0.25 3.511719 0.152344 C 3.472656 0.0546875 3.453125 -0.0820312 3.453125 -0.257812 L 3.453125 -2.914062 M 5.351562 -2.53125 L 5.707031 -2.207031 C 5.53125 -2.082031 5.335938 -1.960938 5.121094 -1.839844 C 4.90625 -1.71875 4.679688 -1.601562 4.445312 -1.492188 C 4.210938 -1.386719 3.980469 -1.285156 3.753906 -1.191406 C 3.738281 -1.242188 3.71875 -1.296875 3.6875 -1.359375 C 3.65625 -1.421875 3.625 -1.476562 3.59375 -1.523438 C 3.808594 -1.617188 4.027344 -1.71875 4.246094 -1.832031 C 4.46875 -1.941406 4.671875 -2.058594 4.867188 -2.179688 C 5.0625 -2.296875 5.222656 -2.414062 5.351562 -2.53125 M 2.769531 -4.847656 L 5.585938 -4.847656 L 5.585938 -3.148438 L 2.769531 -3.148438 L 2.769531 -3.554688 L 5.152344 -3.554688 L 5.152344 -4.4375 L 2.769531 -4.4375 L 2.769531 -4.847656 M 0.660156 -4.570312 L 1.984375 -4.570312 L 1.984375 -1.015625 L 0.660156 -1.015625 L 0.660156 -1.460938 L 1.582031 -1.460938 L 1.582031 -4.128906 L 0.660156 -4.128906 L 0.660156 -4.570312 M 0.433594 -4.570312 L 0.847656 -4.570312 L 0.847656 -0.539062 L 0.433594 -0.539062 Z "/>
</g>
<g id="glyph-4-2">
<path d="M 2.089844 -4.761719 L 5.664062 -4.765625 L 5.660156 0.433594 L 5.226562 0.441406 L 5.226562 -4.355469 L 2.511719 -4.355469 L 2.511719 0.484375 L 2.089844 0.484375 L 2.089844 -4.761719 M 2.761719 -3.464844 L 5.015625 -3.464844 L 5.015625 -3.109375 L 2.769531 -3.109375 L 2.761719 -3.464844 M 2.316406 -0.289062 L 5.464844 -0.292969 L 5.46875 0.117188 L 2.320312 0.121094 L 2.316406 -0.289062 M 3.695312 -4.160156 L 4.0625 -4.160156 L 4.0625 -2.222656 L 3.691406 -2.222656 L 3.695312 -4.160156 M 3.375 -2.097656 L 3.375 -1.144531 L 4.410156 -1.144531 L 4.40625 -2.097656 L 3.375 -2.097656 M 3.019531 -2.4375 L 4.773438 -2.4375 L 4.777344 -0.800781 L 3.019531 -0.800781 L 3.019531 -2.4375 M 1.453125 -5.101562 L 1.875 -4.980469 C 1.757812 -4.632812 1.617188 -4.289062 1.457031 -3.949219 C 1.296875 -3.609375 1.121094 -3.289062 0.933594 -2.988281 C 0.746094 -2.6875 0.550781 -2.417969 0.347656 -2.1875 C 0.332031 -2.222656 0.3125 -2.273438 0.285156 -2.332031 C 0.257812 -2.390625 0.226562 -2.449219 0.195312 -2.511719 C 0.164062 -2.574219 0.132812 -2.621094 0.105469 -2.65625 C 0.289062 -2.859375 0.460938 -3.089844 0.628906 -3.351562 C 0.796875 -3.613281 0.949219 -3.894531 1.089844 -4.195312 C 1.230469 -4.496094 1.351562 -4.796875 1.453125 -5.101562 M 0.941406 -3.613281 L 1.375 -4.039062 L 1.375 0.496094 L 0.941406 0.496094 Z "/>
</g>
<g id="glyph-4-3">
</g>
<g id="glyph-5-0">
<path d="M 1.730469 0.0742188 C 1.5 0.0742188 1.292969 0.0390625 1.101562 -0.03125 C 0.910156 -0.101562 0.746094 -0.207031 0.609375 -0.351562 C 0.472656 -0.496094 0.363281 -0.675781 0.289062 -0.894531 C 0.214844 -1.113281 0.175781 -1.367188 0.175781 -1.660156 C 0.175781 -1.953125 0.214844 -2.207031 0.292969 -2.417969 C 0.371094 -2.632812 0.476562 -2.8125 0.609375 -2.957031 C 0.738281 -3.101562 0.902344 -3.214844 1.097656 -3.292969 C 1.296875 -3.371094 1.503906 -3.410156 1.730469 -3.410156 C 1.914062 -3.410156 2.089844 -3.382812 2.261719 -3.332031 C 2.429688 -3.28125 2.582031 -3.222656 2.714844 -3.152344 L 2.714844 -2.523438 L 2.683594 -2.523438 C 2.644531 -2.558594 2.589844 -2.597656 2.527344 -2.640625 C 2.464844 -2.683594 2.390625 -2.730469 2.300781 -2.773438 C 2.222656 -2.816406 2.132812 -2.847656 2.027344 -2.878906 C 1.921875 -2.910156 1.820312 -2.925781 1.722656 -2.925781 C 1.429688 -2.925781 1.199219 -2.8125 1.023438 -2.59375 C 0.847656 -2.375 0.757812 -2.0625 0.757812 -1.660156 C 0.757812 -1.269531 0.84375 -0.960938 1.011719 -0.742188 C 1.183594 -0.523438 1.417969 -0.410156 1.722656 -0.410156 C 1.90625 -0.410156 2.078125 -0.449219 2.242188 -0.523438 C 2.410156 -0.601562 2.554688 -0.699219 2.683594 -0.816406 L 2.714844 -0.816406 L 2.714844 -0.1875 C 2.660156 -0.164062 2.589844 -0.128906 2.507812 -0.09375 C 2.421875 -0.0585938 2.347656 -0.03125 2.28125 -0.0117188 C 2.183594 0.015625 2.097656 0.0390625 2.023438 0.0507812 C 1.949219 0.0664062 1.851562 0.0742188 1.730469 0.0742188 Z "/>
</g>
<g id="glyph-5-1">
<path d="M 3 0 L 2.441406 0 L 2.441406 -0.371094 C 2.269531 -0.21875 2.105469 -0.105469 1.949219 -0.0234375 C 1.792969 0.0546875 1.621094 0.09375 1.429688 0.09375 C 1.285156 0.09375 1.148438 0.0703125 1.019531 0.0195312 C 0.890625 -0.0273438 0.777344 -0.101562 0.683594 -0.207031 C 0.585938 -0.308594 0.515625 -0.441406 0.460938 -0.597656 C 0.410156 -0.753906 0.382812 -0.945312 0.382812 -1.167969 L 0.382812 -3.332031 L 0.941406 -3.332031 L 0.941406 -1.433594 C 0.941406 -1.257812 0.949219 -1.113281 0.960938 -0.996094 C 0.976562 -0.878906 1.003906 -0.777344 1.050781 -0.6875 C 1.097656 -0.605469 1.15625 -0.542969 1.238281 -0.5 C 1.316406 -0.460938 1.429688 -0.441406 1.574219 -0.441406 C 1.710938 -0.441406 1.859375 -0.480469 2.015625 -0.558594 C 2.167969 -0.636719 2.3125 -0.730469 2.441406 -0.84375 L 2.441406 -3.332031 L 3 -3.332031 Z "/>
</g>
<g id="glyph-5-2">
<path d="M 2.621094 -1.675781 C 2.621094 -2.074219 2.5625 -2.375 2.441406 -2.582031 C 2.320312 -2.789062 2.125 -2.890625 1.855469 -2.890625 C 1.703125 -2.890625 1.546875 -2.855469 1.390625 -2.785156 C 1.234375 -2.710938 1.09375 -2.621094 0.964844 -2.511719 L 0.964844 -0.601562 C 1.109375 -0.53125 1.234375 -0.484375 1.34375 -0.453125 C 1.453125 -0.425781 1.574219 -0.410156 1.703125 -0.410156 C 1.988281 -0.410156 2.214844 -0.511719 2.378906 -0.714844 C 2.542969 -0.917969 2.621094 -1.238281 2.621094 -1.675781 M 3.203125 -1.722656 C 3.203125 -1.175781 3.070312 -0.738281 2.804688 -0.40625 C 2.539062 -0.0742188 2.207031 0.09375 1.8125 0.09375 C 1.628906 0.09375 1.476562 0.0703125 1.347656 0.0234375 C 1.21875 -0.0195312 1.09375 -0.078125 0.964844 -0.15625 L 0.929688 0 L 0.40625 0 L 0.40625 -4.644531 L 0.964844 -4.644531 L 0.964844 -2.984375 C 1.109375 -3.109375 1.261719 -3.214844 1.425781 -3.300781 C 1.589844 -3.382812 1.777344 -3.425781 1.988281 -3.425781 C 2.363281 -3.425781 2.660156 -3.273438 2.875 -2.972656 C 3.09375 -2.671875 3.203125 -2.253906 3.203125 -1.722656 Z "/>
</g>
<g id="glyph-5-3">
<path d="M 1.851562 0.078125 C 1.320312 0.078125 0.910156 -0.0703125 0.617188 -0.371094 C 0.324219 -0.671875 0.175781 -1.097656 0.175781 -1.648438 C 0.175781 -2.191406 0.316406 -2.621094 0.601562 -2.945312 C 0.886719 -3.265625 1.257812 -3.425781 1.71875 -3.425781 C 1.925781 -3.425781 2.109375 -3.394531 2.269531 -3.335938 C 2.425781 -3.277344 2.566406 -3.183594 2.683594 -3.054688 C 2.804688 -2.929688 2.894531 -2.773438 2.960938 -2.589844 C 3.023438 -2.40625 3.054688 -2.179688 3.054688 -1.914062 L 3.054688 -1.609375 L 0.746094 -1.609375 C 0.746094 -1.21875 0.84375 -0.925781 1.039062 -0.71875 C 1.234375 -0.515625 1.503906 -0.410156 1.847656 -0.410156 C 1.96875 -0.410156 2.089844 -0.425781 2.210938 -0.453125 C 2.328125 -0.480469 2.433594 -0.515625 2.53125 -0.5625 C 2.632812 -0.605469 2.71875 -0.652344 2.785156 -0.695312 C 2.855469 -0.738281 2.914062 -0.777344 2.960938 -0.816406 L 2.992188 -0.816406 L 2.992188 -0.203125 C 2.925781 -0.175781 2.84375 -0.144531 2.746094 -0.105469 C 2.652344 -0.0664062 2.5625 -0.0351562 2.484375 -0.015625 C 2.375 0.015625 2.277344 0.0390625 2.1875 0.0546875 C 2.101562 0.0703125 1.988281 0.078125 1.851562 0.078125 M 2.507812 -2.039062 C 2.503906 -2.1875 2.488281 -2.320312 2.457031 -2.429688 C 2.421875 -2.539062 2.378906 -2.628906 2.316406 -2.707031 C 2.253906 -2.789062 2.167969 -2.851562 2.066406 -2.898438 C 1.964844 -2.941406 1.835938 -2.960938 1.6875 -2.960938 C 1.535156 -2.960938 1.410156 -2.941406 1.304688 -2.894531 C 1.199219 -2.851562 1.105469 -2.785156 1.019531 -2.699219 C 0.9375 -2.613281 0.875 -2.515625 0.828125 -2.410156 C 0.785156 -2.304688 0.757812 -2.179688 0.746094 -2.039062 Z "/>
</g>
<g id="glyph-6-0">
</g>
<g id="glyph-6-1">
<path d="M 1.0625 -3.105469 L 1.0625 -2.371094 L 2.4375 -2.371094 L 2.4375 -3.105469 L 1.0625 -3.105469 M 0.660156 -3.484375 L 2.867188 -3.484375 L 2.867188 -2 L 0.660156 -2 L 0.660156 -3.484375 M 0.328125 -4.382812 L 3.121094 -4.382812 L 3.121094 -3.972656 L 0.328125 -3.972656 L 0.328125 -4.382812 M 3.175781 -3.550781 L 5.828125 -3.550781 L 5.828125 -3.128906 L 3.175781 -3.128906 L 3.175781 -3.550781 M 4.40625 -2.640625 L 4.816406 -2.640625 L 4.816406 -0.269531 C 4.816406 -0.203125 4.816406 -0.152344 4.824219 -0.113281 C 4.832031 -0.0742188 4.839844 -0.0507812 4.859375 -0.0351562 C 4.878906 -0.0273438 4.902344 -0.0195312 4.925781 -0.015625 C 4.949219 -0.0078125 4.976562 -0.0078125 5.011719 -0.0078125 C 5.039062 -0.0078125 5.082031 -0.0078125 5.136719 -0.0078125 C 5.191406 -0.0078125 5.238281 -0.0078125 5.273438 -0.0078125 C 5.308594 -0.0078125 5.347656 -0.0078125 5.378906 -0.0117188 C 5.414062 -0.015625 5.441406 -0.0234375 5.457031 -0.0351562 C 5.496094 -0.0585938 5.527344 -0.113281 5.542969 -0.207031 C 5.550781 -0.261719 5.558594 -0.347656 5.5625 -0.464844 C 5.566406 -0.582031 5.566406 -0.71875 5.566406 -0.875 C 5.613281 -0.832031 5.667969 -0.796875 5.738281 -0.761719 C 5.808594 -0.726562 5.871094 -0.699219 5.933594 -0.679688 C 5.929688 -0.539062 5.921875 -0.398438 5.910156 -0.257812 C 5.898438 -0.121094 5.882812 -0.0195312 5.867188 0.0429688 C 5.824219 0.160156 5.757812 0.242188 5.664062 0.28125 C 5.625 0.304688 5.570312 0.320312 5.503906 0.328125 C 5.433594 0.339844 5.375 0.34375 5.316406 0.34375 C 5.289062 0.34375 5.25 0.34375 5.195312 0.34375 C 5.144531 0.34375 5.09375 0.34375 5.042969 0.34375 C 4.992188 0.34375 4.953125 0.34375 4.925781 0.34375 C 4.859375 0.34375 4.792969 0.335938 4.722656 0.320312 C 4.65625 0.304688 4.59375 0.28125 4.546875 0.246094 C 4.496094 0.203125 4.460938 0.148438 4.4375 0.078125 C 4.417969 0.00390625 4.40625 -0.125 4.40625 -0.316406 L 4.40625 -2.640625 M 4.027344 -5.121094 L 4.46875 -5.121094 C 4.460938 -4.742188 4.453125 -4.347656 4.4375 -3.933594 C 4.425781 -3.523438 4.394531 -3.109375 4.347656 -2.695312 C 4.300781 -2.277344 4.222656 -1.875 4.117188 -1.484375 C 4.011719 -1.09375 3.871094 -0.730469 3.695312 -0.394531 C 3.515625 -0.0585938 3.289062 0.238281 3.007812 0.496094 C 2.96875 0.449219 2.917969 0.402344 2.855469 0.347656 C 2.789062 0.296875 2.726562 0.253906 2.671875 0.21875 C 2.941406 -0.015625 3.164062 -0.292969 3.332031 -0.613281 C 3.503906 -0.933594 3.636719 -1.28125 3.730469 -1.652344 C 3.828125 -2.027344 3.894531 -2.410156 3.9375 -2.808594 C 3.980469 -3.203125 4.007812 -3.601562 4.015625 -3.992188 C 4.023438 -4.386719 4.027344 -4.761719 4.027344 -5.121094 M 1.578125 -2.113281 L 1.992188 -2.113281 L 1.992188 0 C 1.992188 0.101562 1.980469 0.183594 1.957031 0.242188 C 1.929688 0.300781 1.882812 0.347656 1.816406 0.386719 C 1.746094 0.414062 1.65625 0.433594 1.550781 0.441406 C 1.441406 0.449219 1.308594 0.453125 1.148438 0.453125 C 1.140625 0.394531 1.121094 0.328125 1.09375 0.257812 C 1.066406 0.183594 1.035156 0.121094 1.007812 0.0664062 C 1.121094 0.0703125 1.222656 0.0742188 1.3125 0.0742188 C 1.402344 0.0742188 1.464844 0.0703125 1.496094 0.0664062 C 1.550781 0.0664062 1.578125 0.0390625 1.578125 -0.0117188 L 1.578125 -2.113281 M 0.867188 -1.675781 L 1.253906 -1.589844 C 1.183594 -1.316406 1.09375 -1.042969 0.988281 -0.773438 C 0.878906 -0.503906 0.761719 -0.273438 0.636719 -0.0898438 C 0.609375 -0.113281 0.578125 -0.136719 0.539062 -0.164062 C 0.496094 -0.195312 0.457031 -0.222656 0.414062 -0.25 C 0.371094 -0.277344 0.335938 -0.300781 0.304688 -0.316406 C 0.433594 -0.488281 0.542969 -0.695312 0.636719 -0.933594 C 0.734375 -1.175781 0.8125 -1.421875 0.867188 -1.675781 M 2.238281 -1.59375 L 2.566406 -1.742188 C 2.667969 -1.574219 2.761719 -1.390625 2.847656 -1.1875 C 2.933594 -0.988281 2.992188 -0.8125 3.023438 -0.667969 L 2.675781 -0.5 C 2.644531 -0.652344 2.585938 -0.828125 2.503906 -1.035156 C 2.425781 -1.242188 2.335938 -1.429688 2.238281 -1.59375 M 4.691406 -4.667969 L 5.003906 -4.847656 C 5.132812 -4.714844 5.253906 -4.566406 5.375 -4.398438 C 5.496094 -4.234375 5.582031 -4.085938 5.640625 -3.960938 L 5.308594 -3.753906 C 5.277344 -3.835938 5.226562 -3.933594 5.160156 -4.039062 C 5.09375 -4.144531 5.019531 -4.253906 4.941406 -4.367188 C 4.859375 -4.476562 4.777344 -4.578125 4.691406 -4.667969 M 1.355469 -5.046875 L 1.777344 -5.144531 C 1.851562 -5.011719 1.921875 -4.863281 1.988281 -4.707031 C 2.054688 -4.546875 2.105469 -4.410156 2.132812 -4.300781 L 1.691406 -4.179688 C 1.664062 -4.292969 1.617188 -4.433594 1.554688 -4.597656 C 1.492188 -4.761719 1.425781 -4.914062 1.355469 -5.046875 Z "/>
</g>
<g id="glyph-6-2">
<path d="M 3.539062 -1.765625 L 3.996094 -1.765625 L 3.996094 -0.0117188 C 3.996094 0.0976562 3.980469 0.183594 3.953125 0.246094 C 3.925781 0.3125 3.871094 0.359375 3.789062 0.390625 C 3.707031 0.421875 3.601562 0.441406 3.472656 0.449219 C 3.34375 0.457031 3.183594 0.457031 2.988281 0.457031 C 2.980469 0.402344 2.960938 0.335938 2.9375 0.257812 C 2.910156 0.183594 2.882812 0.117188 2.855469 0.0625 C 2.980469 0.0664062 3.101562 0.0664062 3.214844 0.0664062 C 3.328125 0.0664062 3.402344 0.0664062 3.433594 0.0664062 C 3.472656 0.0664062 3.496094 0.0625 3.511719 0.0507812 C 3.53125 0.0351562 3.539062 0.015625 3.539062 -0.0195312 L 3.539062 -1.765625 M 2.230469 -2.65625 C 2.222656 -2.6875 2.210938 -2.726562 2.195312 -2.773438 C 2.183594 -2.824219 2.167969 -2.871094 2.152344 -2.921875 C 2.132812 -2.96875 2.117188 -3.011719 2.101562 -3.050781 C 2.164062 -3.058594 2.230469 -3.082031 2.308594 -3.121094 C 2.382812 -3.15625 2.464844 -3.207031 2.554688 -3.261719 C 2.625 -3.308594 2.730469 -3.382812 2.878906 -3.492188 C 3.023438 -3.601562 3.1875 -3.730469 3.367188 -3.878906 C 3.546875 -4.027344 3.714844 -4.183594 3.867188 -4.34375 L 4.246094 -4.148438 C 3.964844 -3.890625 3.675781 -3.652344 3.382812 -3.429688 C 3.085938 -3.210938 2.792969 -3.019531 2.503906 -2.867188 L 2.503906 -2.855469 C 2.503906 -2.855469 2.492188 -2.847656 2.460938 -2.835938 C 2.433594 -2.824219 2.402344 -2.808594 2.363281 -2.785156 C 2.328125 -2.765625 2.296875 -2.746094 2.269531 -2.722656 C 2.242188 -2.699219 2.230469 -2.679688 2.230469 -2.65625 M 2.230469 -2.65625 L 2.222656 -2.964844 L 2.460938 -3.105469 L 4.308594 -3.214844 C 4.292969 -3.160156 4.273438 -3.097656 4.257812 -3.027344 C 4.238281 -2.957031 4.222656 -2.898438 4.214844 -2.855469 C 3.804688 -2.824219 3.472656 -2.800781 3.222656 -2.78125 C 2.972656 -2.761719 2.78125 -2.742188 2.648438 -2.730469 C 2.515625 -2.71875 2.421875 -2.707031 2.363281 -2.695312 C 2.300781 -2.683594 2.257812 -2.671875 2.230469 -2.65625 M 2.058594 -1.367188 C 2.050781 -1.402344 2.039062 -1.441406 2.027344 -1.488281 C 2.011719 -1.535156 1.996094 -1.582031 1.980469 -1.632812 C 1.964844 -1.683594 1.949219 -1.730469 1.929688 -1.765625 C 2.015625 -1.777344 2.117188 -1.816406 2.238281 -1.875 C 2.355469 -1.9375 2.492188 -2.015625 2.652344 -2.109375 C 2.742188 -2.15625 2.871094 -2.238281 3.039062 -2.351562 C 3.210938 -2.464844 3.402344 -2.605469 3.621094 -2.765625 C 3.839844 -2.925781 4.066406 -3.101562 4.300781 -3.289062 C 4.53125 -3.480469 4.757812 -3.675781 4.96875 -3.875 L 5.304688 -3.625 C 4.832031 -3.203125 4.347656 -2.820312 3.847656 -2.476562 C 3.347656 -2.128906 2.855469 -1.828125 2.371094 -1.570312 L 2.371094 -1.558594 C 2.371094 -1.558594 2.355469 -1.554688 2.324219 -1.542969 C 2.292969 -1.53125 2.257812 -1.515625 2.214844 -1.496094 C 2.171875 -1.476562 2.136719 -1.457031 2.105469 -1.433594 C 2.074219 -1.410156 2.058594 -1.390625 2.058594 -1.367188 M 2.058594 -1.367188 L 2.054688 -1.699219 L 2.328125 -1.859375 L 5.210938 -2.101562 C 5.210938 -2.046875 5.214844 -1.980469 5.214844 -1.90625 C 5.21875 -1.832031 5.21875 -1.773438 5.226562 -1.730469 C 4.683594 -1.675781 4.230469 -1.632812 3.871094 -1.601562 C 3.511719 -1.570312 3.21875 -1.539062 2.996094 -1.519531 C 2.773438 -1.496094 2.601562 -1.476562 2.476562 -1.457031 C 2.355469 -1.4375 2.261719 -1.421875 2.203125 -1.410156 C 2.144531 -1.398438 2.097656 -1.386719 2.058594 -1.367188 M 4.621094 -5.230469 L 4.949219 -4.875 C 4.714844 -4.738281 4.4375 -4.605469 4.128906 -4.480469 C 3.816406 -4.351562 3.492188 -4.238281 3.152344 -4.128906 C 2.816406 -4.023438 2.484375 -3.925781 2.15625 -3.835938 C 2.148438 -3.886719 2.128906 -3.945312 2.097656 -4.015625 C 2.070312 -4.082031 2.039062 -4.144531 2.015625 -4.191406 C 2.335938 -4.28125 2.65625 -4.382812 2.980469 -4.496094 C 3.308594 -4.605469 3.613281 -4.722656 3.898438 -4.847656 C 4.183594 -4.972656 4.425781 -5.101562 4.621094 -5.230469 M 4.523438 -1.203125 L 4.882812 -1.394531 C 5 -1.265625 5.121094 -1.128906 5.238281 -0.980469 C 5.359375 -0.832031 5.472656 -0.6875 5.574219 -0.542969 C 5.675781 -0.402344 5.753906 -0.269531 5.804688 -0.152344 L 5.421875 0.0625 C 5.367188 -0.0585938 5.292969 -0.1875 5.195312 -0.335938 C 5.101562 -0.484375 4.996094 -0.632812 4.875 -0.785156 C 4.757812 -0.9375 4.640625 -1.078125 4.523438 -1.203125 M 4.507812 -2.558594 L 4.847656 -2.761719 C 4.964844 -2.644531 5.085938 -2.511719 5.207031 -2.363281 C 5.328125 -2.21875 5.445312 -2.074219 5.554688 -1.9375 C 5.664062 -1.796875 5.753906 -1.675781 5.816406 -1.570312 L 5.457031 -1.332031 C 5.394531 -1.4375 5.3125 -1.5625 5.207031 -1.707031 C 5.101562 -1.851562 4.988281 -2 4.867188 -2.148438 C 4.746094 -2.296875 4.628906 -2.433594 4.507812 -2.558594 M 1.546875 -5.097656 L 1.96875 -4.972656 C 1.847656 -4.625 1.710938 -4.277344 1.550781 -3.9375 C 1.386719 -3.597656 1.214844 -3.277344 1.023438 -2.980469 C 0.835938 -2.679688 0.636719 -2.410156 0.433594 -2.175781 C 0.421875 -2.210938 0.398438 -2.257812 0.371094 -2.316406 C 0.339844 -2.371094 0.304688 -2.429688 0.273438 -2.488281 C 0.238281 -2.542969 0.207031 -2.589844 0.175781 -2.628906 C 0.359375 -2.832031 0.539062 -3.066406 0.707031 -3.332031 C 0.878906 -3.59375 1.035156 -3.878906 1.175781 -4.179688 C 1.316406 -4.480469 1.441406 -4.785156 1.546875 -5.097656 M 1.003906 -3.507812 L 1.4375 -3.949219 L 1.449219 -3.933594 L 1.449219 0.476562 L 1.003906 0.476562 L 1.003906 -3.507812 M 2.558594 -1.324219 L 2.988281 -1.191406 C 2.910156 -1.039062 2.816406 -0.882812 2.707031 -0.71875 C 2.597656 -0.554688 2.484375 -0.394531 2.363281 -0.246094 C 2.246094 -0.09375 2.125 0.0390625 2.003906 0.160156 C 1.960938 0.117188 1.90625 0.0742188 1.839844 0.03125 C 1.773438 -0.015625 1.71875 -0.0546875 1.667969 -0.0859375 C 1.78125 -0.195312 1.894531 -0.320312 2.011719 -0.460938 C 2.125 -0.601562 2.230469 -0.746094 2.324219 -0.894531 C 2.421875 -1.042969 2.5 -1.1875 2.558594 -1.324219 Z "/>
</g>
<g id="glyph-7-0">
<path d="M 0.980469 0 L 0.417969 0 L 0.417969 -3.332031 L 0.980469 -3.332031 L 0.980469 0 M 1.015625 -3.890625 L 0.378906 -3.890625 L 0.378906 -4.472656 L 1.015625 -4.472656 Z "/>
</g>
<g id="glyph-7-1">
<path d="M 4.1875 0 L 4.1875 -1.925781 C 4.1875 -2.082031 4.183594 -2.222656 4.171875 -2.351562 C 4.160156 -2.484375 4.132812 -2.585938 4.097656 -2.660156 C 4.058594 -2.738281 4 -2.796875 3.925781 -2.835938 C 3.851562 -2.871094 3.753906 -2.890625 3.628906 -2.890625 C 3.511719 -2.890625 3.390625 -2.855469 3.257812 -2.785156 C 3.125 -2.714844 2.988281 -2.613281 2.847656 -2.480469 C 2.847656 -2.445312 2.851562 -2.40625 2.855469 -2.359375 C 2.855469 -2.3125 2.859375 -2.257812 2.859375 -2.191406 L 2.859375 0 L 2.296875 0 L 2.296875 -1.925781 C 2.296875 -2.082031 2.292969 -2.222656 2.28125 -2.351562 C 2.269531 -2.484375 2.242188 -2.585938 2.203125 -2.660156 C 2.164062 -2.738281 2.109375 -2.796875 2.035156 -2.835938 C 1.960938 -2.871094 1.863281 -2.890625 1.738281 -2.890625 C 1.613281 -2.890625 1.488281 -2.851562 1.355469 -2.777344 C 1.222656 -2.703125 1.09375 -2.605469 0.964844 -2.488281 L 0.964844 0 L 0.40625 0 L 0.40625 -3.332031 L 0.964844 -3.332031 L 0.964844 -2.960938 C 1.113281 -3.109375 1.257812 -3.222656 1.402344 -3.304688 C 1.546875 -3.386719 1.707031 -3.425781 1.878906 -3.425781 C 2.078125 -3.425781 2.25 -3.378906 2.402344 -3.292969 C 2.554688 -3.203125 2.671875 -3.054688 2.75 -2.847656 C 2.921875 -3.039062 3.085938 -3.183594 3.246094 -3.277344 C 3.40625 -3.375 3.582031 -3.425781 3.769531 -3.425781 C 3.914062 -3.425781 4.046875 -3.402344 4.164062 -3.359375 C 4.28125 -3.3125 4.382812 -3.242188 4.46875 -3.140625 C 4.558594 -3.039062 4.628906 -2.914062 4.675781 -2.761719 C 4.726562 -2.613281 4.75 -2.421875 4.75 -2.191406 L 4.75 0 Z "/>
</g>
<g id="glyph-7-2">
<path d="M 3.203125 -1.753906 C 3.203125 -1.199219 3.070312 -0.757812 2.804688 -0.429688 C 2.539062 -0.0976562 2.203125 0.0664062 1.796875 0.0664062 C 1.632812 0.0664062 1.484375 0.046875 1.359375 0.0078125 C 1.230469 -0.0273438 1.101562 -0.0859375 0.964844 -0.167969 L 0.964844 1.230469 L 0.40625 1.230469 L 0.40625 -3.332031 L 0.964844 -3.332031 L 0.964844 -2.984375 C 1.105469 -3.109375 1.261719 -3.214844 1.429688 -3.296875 C 1.601562 -3.382812 1.785156 -3.425781 1.988281 -3.425781 C 2.367188 -3.425781 2.667969 -3.273438 2.878906 -2.972656 C 3.09375 -2.667969 3.203125 -2.261719 3.203125 -1.753906 M 2.621094 -1.691406 C 2.621094 -2.070312 2.5625 -2.367188 2.441406 -2.578125 C 2.320312 -2.785156 2.121094 -2.890625 1.851562 -2.890625 C 1.691406 -2.890625 1.539062 -2.855469 1.390625 -2.785156 C 1.242188 -2.714844 1.101562 -2.625 0.964844 -2.511719 L 0.964844 -0.625 C 1.113281 -0.550781 1.238281 -0.503906 1.34375 -0.476562 C 1.449219 -0.453125 1.570312 -0.4375 1.703125 -0.4375 C 1.992188 -0.4375 2.21875 -0.546875 2.382812 -0.757812 C 2.542969 -0.972656 2.621094 -1.28125 2.621094 -1.691406 Z "/>
</g>
<g id="glyph-7-3">
<path d="M 0.980469 0 L 0.417969 0 L 0.417969 -4.644531 L 0.980469 -4.644531 Z "/>
</g>
<g id="glyph-7-4">
<path d="M 1.730469 0.0742188 C 1.5 0.0742188 1.292969 0.0390625 1.101562 -0.03125 C 0.910156 -0.101562 0.746094 -0.207031 0.609375 -0.351562 C 0.472656 -0.496094 0.363281 -0.675781 0.289062 -0.894531 C 0.214844 -1.113281 0.175781 -1.367188 0.175781 -1.660156 C 0.175781 -1.953125 0.214844 -2.207031 0.292969 -2.417969 C 0.371094 -2.632812 0.476562 -2.8125 0.609375 -2.957031 C 0.738281 -3.101562 0.902344 -3.214844 1.097656 -3.292969 C 1.296875 -3.371094 1.503906 -3.410156 1.730469 -3.410156 C 1.914062 -3.410156 2.089844 -3.382812 2.261719 -3.332031 C 2.429688 -3.28125 2.582031 -3.222656 2.714844 -3.152344 L 2.714844 -2.523438 L 2.683594 -2.523438 C 2.644531 -2.558594 2.589844 -2.597656 2.527344 -2.640625 C 2.464844 -2.683594 2.390625 -2.730469 2.300781 -2.773438 C 2.222656 -2.816406 2.132812 -2.847656 2.027344 -2.878906 C 1.921875 -2.910156 1.820312 -2.925781 1.722656 -2.925781 C 1.429688 -2.925781 1.199219 -2.8125 1.023438 -2.59375 C 0.847656 -2.375 0.757812 -2.0625 0.757812 -1.660156 C 0.757812 -1.269531 0.84375 -0.960938 1.011719 -0.742188 C 1.183594 -0.523438 1.417969 -0.410156 1.722656 -0.410156 C 1.90625 -0.410156 2.078125 -0.449219 2.242188 -0.523438 C 2.410156 -0.601562 2.554688 -0.699219 2.683594 -0.816406 L 2.714844 -0.816406 L 2.714844 -0.1875 C 2.660156 -0.164062 2.589844 -0.128906 2.507812 -0.09375 C 2.421875 -0.0585938 2.347656 -0.03125 2.28125 -0.0117188 C 2.183594 0.015625 2.097656 0.0390625 2.023438 0.0507812 C 1.949219 0.0664062 1.851562 0.0742188 1.730469 0.0742188 Z "/>
</g>
<g id="glyph-7-5">
<path d="M 2.269531 -0.820312 L 2.269531 -1.746094 C 2.132812 -1.734375 1.964844 -1.71875 1.761719 -1.695312 C 1.558594 -1.675781 1.394531 -1.644531 1.269531 -1.609375 C 1.117188 -1.5625 0.996094 -1.492188 0.898438 -1.398438 C 0.800781 -1.304688 0.75 -1.171875 0.75 -1.003906 C 0.75 -0.8125 0.804688 -0.667969 0.914062 -0.570312 C 1.019531 -0.472656 1.175781 -0.421875 1.382812 -0.421875 C 1.5625 -0.421875 1.722656 -0.460938 1.863281 -0.539062 C 2.007812 -0.613281 2.140625 -0.710938 2.269531 -0.820312 M 2.269531 -0.355469 C 2.222656 -0.320312 2.160156 -0.273438 2.085938 -0.214844 C 2.007812 -0.152344 1.933594 -0.105469 1.863281 -0.0703125 C 1.761719 -0.015625 1.667969 0.0234375 1.574219 0.0507812 C 1.480469 0.078125 1.351562 0.09375 1.183594 0.09375 C 1.046875 0.09375 0.917969 0.0664062 0.792969 0.015625 C 0.671875 -0.0351562 0.5625 -0.109375 0.46875 -0.203125 C 0.378906 -0.292969 0.308594 -0.40625 0.253906 -0.542969 C 0.199219 -0.675781 0.171875 -0.816406 0.171875 -0.964844 C 0.171875 -1.199219 0.222656 -1.394531 0.320312 -1.554688 C 0.417969 -1.71875 0.570312 -1.847656 0.78125 -1.941406 C 0.96875 -2.027344 1.191406 -2.085938 1.445312 -2.121094 C 1.699219 -2.152344 1.972656 -2.175781 2.269531 -2.191406 L 2.269531 -2.300781 C 2.269531 -2.433594 2.246094 -2.539062 2.207031 -2.617188 C 2.167969 -2.699219 2.113281 -2.761719 2.039062 -2.804688 C 1.96875 -2.851562 1.882812 -2.878906 1.777344 -2.894531 C 1.675781 -2.910156 1.570312 -2.917969 1.460938 -2.917969 C 1.328125 -2.917969 1.175781 -2.898438 1.003906 -2.859375 C 0.828125 -2.820312 0.652344 -2.765625 0.476562 -2.691406 L 0.445312 -2.691406 L 0.445312 -3.261719 C 0.546875 -3.292969 0.695312 -3.324219 0.890625 -3.359375 C 1.082031 -3.394531 1.273438 -3.414062 1.460938 -3.414062 C 1.691406 -3.414062 1.882812 -3.394531 2.039062 -3.359375 C 2.199219 -3.324219 2.339844 -3.257812 2.464844 -3.164062 C 2.585938 -3.074219 2.675781 -2.957031 2.734375 -2.8125 C 2.796875 -2.664062 2.824219 -2.488281 2.824219 -2.28125 L 2.824219 0 L 2.269531 0 Z "/>
</g>
<g id="glyph-7-6">
<path d="M 3.027344 0 L 2.464844 0 L 2.464844 -1.898438 C 2.464844 -2.050781 2.457031 -2.195312 2.441406 -2.324219 C 2.425781 -2.457031 2.398438 -2.5625 2.355469 -2.644531 C 2.3125 -2.726562 2.246094 -2.789062 2.167969 -2.828125 C 2.085938 -2.871094 1.972656 -2.890625 1.832031 -2.890625 C 1.691406 -2.890625 1.550781 -2.855469 1.402344 -2.78125 C 1.253906 -2.703125 1.109375 -2.609375 0.964844 -2.488281 L 0.964844 0 L 0.40625 0 L 0.40625 -3.332031 L 0.964844 -3.332031 L 0.964844 -2.960938 C 1.132812 -3.113281 1.300781 -3.226562 1.460938 -3.304688 C 1.625 -3.386719 1.796875 -3.425781 1.976562 -3.425781 C 2.304688 -3.425781 2.5625 -3.316406 2.746094 -3.101562 C 2.933594 -2.886719 3.027344 -2.574219 3.027344 -2.164062 Z "/>
</g>
<g id="glyph-7-7">
<path d="M 1.414062 0.0664062 C 1.109375 0.0664062 0.871094 -0.0195312 0.699219 -0.195312 C 0.527344 -0.371094 0.441406 -0.644531 0.441406 -1.019531 L 0.441406 -2.867188 L 0.0625 -2.867188 L 0.0625 -3.332031 L 0.441406 -3.332031 L 0.441406 -4.289062 L 1.003906 -4.289062 L 1.003906 -3.332031 L 2.035156 -3.332031 L 2.035156 -2.867188 L 1.003906 -2.867188 L 1.003906 -1.28125 C 1.003906 -1.113281 1.003906 -0.984375 1.011719 -0.890625 C 1.015625 -0.800781 1.039062 -0.714844 1.082031 -0.636719 C 1.113281 -0.566406 1.167969 -0.515625 1.246094 -0.480469 C 1.320312 -0.445312 1.421875 -0.425781 1.550781 -0.425781 C 1.644531 -0.425781 1.730469 -0.441406 1.816406 -0.46875 C 1.902344 -0.492188 1.964844 -0.515625 2.003906 -0.535156 L 2.035156 -0.535156 L 2.035156 -0.03125 C 1.929688 0 1.824219 0.0234375 1.714844 0.0390625 C 1.605469 0.0585938 1.503906 0.0664062 1.414062 0.0664062 Z "/>
</g>
<g id="glyph-8-0">
<path d="M 3.074219 -3.246094 C 3.25 -3.246094 3.40625 -3.203125 3.542969 -3.121094 C 3.683594 -3.035156 3.792969 -2.925781 3.878906 -2.785156 C 3.960938 -2.644531 4.003906 -2.488281 4.003906 -2.316406 C 4.003906 -2.148438 3.960938 -1.992188 3.878906 -1.851562 C 3.792969 -1.707031 3.683594 -1.597656 3.542969 -1.511719 C 3.402344 -1.429688 3.246094 -1.386719 3.074219 -1.386719 C 2.902344 -1.386719 2.746094 -1.429688 2.605469 -1.511719 C 2.464844 -1.597656 2.355469 -1.707031 2.269531 -1.851562 C 2.1875 -1.992188 2.144531 -2.148438 2.144531 -2.316406 C 2.144531 -2.488281 2.1875 -2.644531 2.269531 -2.785156 C 2.355469 -2.925781 2.464844 -3.035156 2.609375 -3.121094 C 2.75 -3.203125 2.90625 -3.246094 3.074219 -3.246094 M 3.074219 -1.691406 C 3.246094 -1.695312 3.390625 -1.757812 3.511719 -1.875 C 3.636719 -1.992188 3.695312 -2.140625 3.695312 -2.316406 C 3.691406 -2.429688 3.664062 -2.535156 3.609375 -2.628906 C 3.554688 -2.722656 3.480469 -2.796875 3.386719 -2.851562 C 3.292969 -2.90625 3.1875 -2.933594 3.074219 -2.9375 C 2.964844 -2.933594 2.863281 -2.90625 2.769531 -2.851562 C 2.675781 -2.796875 2.597656 -2.722656 2.539062 -2.628906 C 2.480469 -2.535156 2.449219 -2.429688 2.449219 -2.316406 C 2.453125 -2.203125 2.484375 -2.097656 2.542969 -2.003906 C 2.597656 -1.910156 2.671875 -1.835938 2.765625 -1.777344 C 2.855469 -1.722656 2.960938 -1.691406 3.074219 -1.691406 Z "/>
</g>
</g>
</defs>
<g fill="rgb(86.666667%, 86.666667%, 86.666667%)" fill-opacity="1">
<use xlink:href="#glyph-0-0" x="30" y="26.110352"/>
<use xlink:href="#glyph-0-1" x="36" y="26.110352"/>
<use xlink:href="#glyph-0-2" x="42" y="26.110352"/>
<use xlink:href="#glyph-0-3" x="48" y="26.110352"/>
<use xlink:href="#glyph-0-4" x="54" y="26.110352"/>
<use xlink:href="#glyph-0-5" x="60" y="26.110352"/>
<use xlink:href="#glyph-0-6" x="66" y="26.110352"/>
<use xlink:href="#glyph-0-7" x="72" y="26.110352"/>
<use xlink:href="#glyph-0-8" x="78" y="26.110352"/>
<use xlink:href="#glyph-0-9" x="84" y="26.110352"/>
<use xlink:href="#glyph-0-10" x="90" y="26.110352"/>
<use xlink:href="#glyph-0-11" x="96" y="26.110352"/>
</g>
<g fill="rgb(86.666667%, 86.666667%, 86.666667%)" fill-opacity="1">
<use xlink:href="#glyph-1-0" x="97" y="26.113281"/>
<use xlink:href="#glyph-1-1" x="101" y="26.113281"/>
</g>
<g fill="rgb(86.666667%, 86.666667%, 86.666667%)" fill-opacity="1">
<use xlink:href="#glyph-2-0" x="105" y="26.110352"/>
<use xlink:href="#glyph-2-1" x="106" y="26.110352"/>
<use xlink:href="#glyph-2-0" x="112" y="26.110352"/>
</g>
<g fill="rgb(86.666667%, 86.666667%, 86.666667%)" fill-opacity="1">
<use xlink:href="#glyph-3-0" x="113" y="26.113281"/>
<use xlink:href="#glyph-3-1" x="117" y="26.113281"/>
</g>
<g fill="rgb(86.666667%, 86.666667%, 86.666667%)" fill-opacity="1">
<use xlink:href="#glyph-4-0" x="121" y="26.110352"/>
<use xlink:href="#glyph-4-1" x="127" y="26.110352"/>
<use xlink:href="#glyph-4-2" x="133" y="26.110352"/>
<use xlink:href="#glyph-4-3" x="139" y="26.110352"/>
</g>
<g fill="rgb(86.666667%, 86.666667%, 86.666667%)" fill-opacity="1">
<use xlink:href="#glyph-5-0" x="140" y="26.113281"/>
<use xlink:href="#glyph-5-1" x="143" y="26.113281"/>
<use xlink:href="#glyph-5-2" x="146" y="26.113281"/>
<use xlink:href="#glyph-5-3" x="149" y="26.113281"/>
</g>
<g fill="rgb(86.666667%, 86.666667%, 86.666667%)" fill-opacity="1">
<use xlink:href="#glyph-6-0" x="152" y="26.110352"/>
<use xlink:href="#glyph-6-1" x="153" y="26.110352"/>
<use xlink:href="#glyph-6-2" x="159" y="26.110352"/>
<use xlink:href="#glyph-6-0" x="165" y="26.110352"/>
</g>
<g fill="rgb(86.666667%, 86.666667%, 86.666667%)" fill-opacity="1">
<use xlink:href="#glyph-7-0" x="166" y="26.113281"/>
<use xlink:href="#glyph-7-1" x="167" y="26.113281"/>
<use xlink:href="#glyph-7-2" x="172" y="26.113281"/>
<use xlink:href="#glyph-7-3" x="175" y="26.113281"/>
<use xlink:href="#glyph-7-0" x="176.00293" y="26.113281"/>
<use xlink:href="#glyph-7-4" x="177" y="26.113281"/>
<use xlink:href="#glyph-7-5" x="180" y="26.113281"/>
<use xlink:href="#glyph-7-6" x="183" y="26.113281"/>
<use xlink:href="#glyph-7-7" x="186" y="26.113281"/>
</g>
<g fill="rgb(86.666667%, 86.666667%, 86.666667%)" fill-opacity="1">
<use xlink:href="#glyph-8-0" x="188" y="26.110352"/>
</g>
</svg>
