<?xml version="1.0" encoding="UTF-8"?>
<svg xmlns="http://www.w3.org/2000/svg" xmlns:xlink="http://www.w3.org/1999/xlink" width="854" height="480" viewBox="0 0 854 480">
<defs>
<g>
<g id="glyph-0-0">
<path d="M 3.007812 0 L 2.523438 0 L 2.523438 -1.78125 L 0.851562 -1.78125 L 0.851562 0 L 0.367188 0 L 0.367188 -3.636719 L 0.851562 -3.636719 L 0.851562 -2.210938 L 2.523438 -2.210938 L 2.523438 -3.636719 L 3.007812 -3.636719 Z "/>
</g>
<g id="glyph-0-1">
<path d="M 2.476562 -2.726562 L 1.007812 1.007812 L 0.515625 1.007812 L 1.007812 -0.132812 L 0.015625 -2.726562 L 0.511719 -2.726562 L 1.253906 -0.707031 L 1.996094 -2.726562 Z "/>
</g>
<g id="glyph-0-2">
<path d="M 2.621094 -1.4375 C 2.621094 -0.980469 2.511719 -0.621094 2.292969 -0.351562 C 2.078125 -0.0820312 1.800781 0.0546875 1.46875 0.0546875 C 1.335938 0.0546875 1.214844 0.0390625 1.109375 0.0078125 C 1.007812 -0.0234375 0.898438 -0.0703125 0.789062 -0.136719 L 0.789062 1.007812 L 0.332031 1.007812 L 0.332031 -2.726562 L 0.789062 -2.726562 L 0.789062 -2.441406 C 0.90625 -2.542969 1.03125 -2.628906 1.171875 -2.699219 C 1.308594 -2.769531 1.460938 -2.804688 1.625 -2.804688 C 1.9375 -2.804688 2.183594 -2.679688 2.355469 -2.429688 C 2.53125 -2.183594 2.621094 -1.851562 2.621094 -1.4375 M 2.144531 -1.382812 C 2.144531 -1.695312 2.097656 -1.9375 1.996094 -2.109375 C 1.898438 -2.28125 1.738281 -2.367188 1.515625 -2.367188 C 1.382812 -2.367188 1.257812 -2.335938 1.136719 -2.277344 C 1.015625 -2.222656 0.898438 -2.148438 0.789062 -2.054688 L 0.789062 -0.511719 C 0.910156 -0.453125 1.015625 -0.410156 1.101562 -0.390625 C 1.183594 -0.371094 1.285156 -0.359375 1.394531 -0.359375 C 1.632812 -0.359375 1.816406 -0.445312 1.949219 -0.621094 C 2.078125 -0.792969 2.144531 -1.050781 2.144531 -1.382812 Z "/>
</g>
<g id="glyph-0-3">
<path d="M 1.515625 0.0625 C 1.082031 0.0625 0.746094 -0.0585938 0.503906 -0.304688 C 0.265625 -0.550781 0.144531 -0.898438 0.144531 -1.347656 C 0.144531 -1.792969 0.261719 -2.144531 0.492188 -2.410156 C 0.726562 -2.671875 1.03125 -2.804688 1.40625 -2.804688 C 1.574219 -2.804688 1.726562 -2.777344 1.855469 -2.730469 C 1.984375 -2.679688 2.097656 -2.605469 2.195312 -2.5 C 2.292969 -2.394531 2.371094 -2.269531 2.421875 -2.117188 C 2.472656 -1.96875 2.5 -1.78125 2.5 -1.566406 L 2.5 -1.316406 L 0.609375 -1.316406 C 0.609375 -1 0.691406 -0.757812 0.851562 -0.589844 C 1.007812 -0.421875 1.230469 -0.335938 1.511719 -0.335938 C 1.613281 -0.335938 1.710938 -0.347656 1.808594 -0.371094 C 1.90625 -0.394531 1.992188 -0.421875 2.070312 -0.460938 C 2.152344 -0.496094 2.222656 -0.53125 2.28125 -0.566406 C 2.335938 -0.601562 2.382812 -0.636719 2.421875 -0.667969 L 2.449219 -0.667969 L 2.449219 -0.164062 C 2.394531 -0.144531 2.328125 -0.117188 2.25 -0.0859375 C 2.167969 -0.0546875 2.097656 -0.03125 2.035156 -0.0117188 C 1.945312 0.0117188 1.863281 0.03125 1.789062 0.0429688 C 1.71875 0.0585938 1.625 0.0625 1.515625 0.0625 M 2.054688 -1.667969 C 2.050781 -1.792969 2.035156 -1.898438 2.007812 -1.988281 C 1.984375 -2.078125 1.945312 -2.152344 1.898438 -2.214844 C 1.84375 -2.28125 1.773438 -2.335938 1.691406 -2.371094 C 1.605469 -2.40625 1.503906 -2.425781 1.378906 -2.425781 C 1.257812 -2.425781 1.152344 -2.40625 1.066406 -2.371094 C 0.984375 -2.332031 0.90625 -2.28125 0.835938 -2.210938 C 0.765625 -2.136719 0.714844 -2.058594 0.679688 -1.972656 C 0.644531 -1.882812 0.621094 -1.78125 0.609375 -1.667969 Z "/>
</g>
<g id="glyph-0-4">
<path d="M 1.777344 -2.234375 L 1.753906 -2.234375 C 1.71875 -2.242188 1.683594 -2.25 1.644531 -2.253906 C 1.605469 -2.253906 1.558594 -2.253906 1.507812 -2.257812 C 1.382812 -2.253906 1.257812 -2.230469 1.136719 -2.175781 C 1.015625 -2.121094 0.898438 -2.042969 0.789062 -1.9375 L 0.789062 0 L 0.332031 0 L 0.332031 -2.726562 L 0.789062 -2.726562 L 0.789062 -2.320312 C 0.957031 -2.46875 1.105469 -2.574219 1.230469 -2.636719 C 1.355469 -2.695312 1.476562 -2.726562 1.59375 -2.726562 C 1.640625 -2.726562 1.675781 -2.726562 1.699219 -2.722656 C 1.722656 -2.722656 1.75 -2.71875 1.777344 -2.710938 Z "/>
</g>
<g id="glyph-0-5">
<path d="M 1.414062 0.0625 C 1.230469 0.0625 1.058594 0.03125 0.902344 -0.0273438 C 0.746094 -0.0820312 0.609375 -0.171875 0.5 -0.289062 C 0.386719 -0.40625 0.296875 -0.554688 0.238281 -0.730469 C 0.175781 -0.910156 0.144531 -1.117188 0.144531 -1.359375 C 0.144531 -1.597656 0.175781 -1.804688 0.242188 -1.980469 C 0.304688 -2.152344 0.390625 -2.300781 0.5 -2.417969 C 0.605469 -2.539062 0.738281 -2.628906 0.898438 -2.695312 C 1.058594 -2.757812 1.230469 -2.789062 1.414062 -2.789062 C 1.566406 -2.789062 1.710938 -2.769531 1.847656 -2.726562 C 1.988281 -2.683594 2.113281 -2.636719 2.222656 -2.582031 L 2.222656 -2.066406 L 2.195312 -2.066406 C 2.164062 -2.09375 2.121094 -2.125 2.070312 -2.160156 C 2.019531 -2.195312 1.957031 -2.234375 1.882812 -2.269531 C 1.820312 -2.304688 1.742188 -2.332031 1.65625 -2.355469 C 1.570312 -2.378906 1.488281 -2.390625 1.410156 -2.390625 C 1.171875 -2.390625 0.980469 -2.300781 0.835938 -2.121094 C 0.691406 -1.941406 0.621094 -1.6875 0.621094 -1.359375 C 0.621094 -1.039062 0.691406 -0.785156 0.828125 -0.605469 C 0.96875 -0.425781 1.160156 -0.335938 1.410156 -0.335938 C 1.558594 -0.335938 1.699219 -0.367188 1.835938 -0.429688 C 1.972656 -0.492188 2.089844 -0.570312 2.195312 -0.667969 L 2.222656 -0.667969 L 2.222656 -0.152344 C 2.175781 -0.132812 2.117188 -0.105469 2.050781 -0.078125 C 1.980469 -0.046875 1.921875 -0.0234375 1.867188 -0.0078125 C 1.789062 0.0117188 1.71875 0.03125 1.65625 0.0429688 C 1.59375 0.0546875 1.515625 0.0625 1.414062 0.0625 Z "/>
</g>
<g id="glyph-0-6">
<path d="M 2.457031 0 L 1.996094 0 L 1.996094 -0.304688 C 1.855469 -0.179688 1.722656 -0.0859375 1.59375 -0.0195312 C 1.46875 0.0429688 1.324219 0.0742188 1.167969 0.0742188 C 1.050781 0.0742188 0.9375 0.0546875 0.832031 0.015625 C 0.730469 -0.0234375 0.636719 -0.0820312 0.558594 -0.167969 C 0.480469 -0.253906 0.421875 -0.359375 0.378906 -0.488281 C 0.335938 -0.617188 0.3125 -0.773438 0.3125 -0.957031 L 0.3125 -2.726562 L 0.773438 -2.726562 L 0.773438 -1.175781 C 0.773438 -1.03125 0.777344 -0.910156 0.789062 -0.8125 C 0.796875 -0.71875 0.820312 -0.636719 0.859375 -0.5625 C 0.898438 -0.492188 0.949219 -0.441406 1.011719 -0.410156 C 1.078125 -0.378906 1.167969 -0.359375 1.289062 -0.359375 C 1.402344 -0.359375 1.519531 -0.394531 1.648438 -0.457031 C 1.773438 -0.519531 1.890625 -0.597656 1.996094 -0.691406 L 1.996094 -2.726562 L 2.457031 -2.726562 Z "/>
</g>
<g id="glyph-0-7">
<path d="M 2.144531 -1.371094 C 2.144531 -1.699219 2.097656 -1.945312 1.996094 -2.113281 C 1.898438 -2.28125 1.738281 -2.367188 1.519531 -2.367188 C 1.394531 -2.367188 1.265625 -2.335938 1.140625 -2.277344 C 1.011719 -2.21875 0.894531 -2.144531 0.789062 -2.054688 L 0.789062 -0.492188 C 0.90625 -0.4375 1.007812 -0.394531 1.097656 -0.371094 C 1.1875 -0.347656 1.285156 -0.335938 1.394531 -0.335938 C 1.628906 -0.335938 1.8125 -0.421875 1.945312 -0.585938 C 2.078125 -0.75 2.144531 -1.015625 2.144531 -1.371094 M 2.621094 -1.410156 C 2.621094 -0.960938 2.511719 -0.605469 2.296875 -0.332031 C 2.078125 -0.0585938 1.808594 0.0742188 1.480469 0.0742188 C 1.332031 0.0742188 1.207031 0.0585938 1.101562 0.0195312 C 0.996094 -0.015625 0.894531 -0.0664062 0.789062 -0.125 L 0.761719 0 L 0.332031 0 L 0.332031 -3.796875 L 0.789062 -3.796875 L 0.789062 -2.441406 C 0.90625 -2.546875 1.03125 -2.632812 1.167969 -2.699219 C 1.300781 -2.769531 1.453125 -2.804688 1.625 -2.804688 C 1.933594 -2.804688 2.175781 -2.679688 2.351562 -2.433594 C 2.53125 -2.1875 2.621094 -1.84375 2.621094 -1.410156 Z "/>
</g>
<g id="glyph-1-0">
</g>
<g id="glyph-1-1">
<path d="M 0.515625 1.394531 L 0.515625 -4.191406 L 0.828125 -4.191406 L 0.835938 1.394531 Z "/>
</g>
<g id="glyph-2-0">
<path d="M 1.636719 0 L 0.226562 0 L 0.226562 -0.371094 L 0.691406 -0.371094 L 0.691406 -3.265625 L 0.226562 -3.265625 L 0.226562 -3.636719 L 1.636719 -3.636719 L 1.636719 -3.265625 L 1.175781 -3.265625 L 1.175781 -0.371094 L 1.636719 -0.371094 Z "/>
</g>
<g id="glyph-2-1">
<path d="M 3.429688 0 L 3.429688 -1.578125 C 3.429688 -1.703125 3.421875 -1.820312 3.414062 -1.925781 C 3.402344 -2.03125 3.382812 -2.113281 3.351562 -2.175781 C 3.320312 -2.242188 3.273438 -2.289062 3.210938 -2.320312 C 3.152344 -2.351562 3.070312 -2.367188 2.96875 -2.367188 C 2.875 -2.367188 2.773438 -2.335938 2.664062 -2.277344 C 2.554688 -2.222656 2.445312 -2.136719 2.328125 -2.027344 C 2.332031 -2 2.332031 -1.96875 2.335938 -1.929688 C 2.335938 -1.890625 2.339844 -1.847656 2.339844 -1.792969 L 2.339844 0 L 1.878906 0 L 1.878906 -1.578125 C 1.878906 -1.703125 1.875 -1.820312 1.867188 -1.925781 C 1.855469 -2.03125 1.835938 -2.113281 1.804688 -2.175781 C 1.773438 -2.242188 1.726562 -2.289062 1.664062 -2.320312 C 1.605469 -2.351562 1.523438 -2.367188 1.421875 -2.367188 C 1.320312 -2.367188 1.21875 -2.335938 1.109375 -2.273438 C 1 -2.210938 0.894531 -2.132812 0.789062 -2.035156 L 0.789062 0 L 0.332031 0 L 0.332031 -2.726562 L 0.789062 -2.726562 L 0.789062 -2.425781 C 0.910156 -2.542969 1.03125 -2.636719 1.148438 -2.703125 C 1.265625 -2.769531 1.398438 -2.804688 1.539062 -2.804688 C 1.699219 -2.804688 1.84375 -2.765625 1.964844 -2.691406 C 2.089844 -2.621094 2.1875 -2.5 2.25 -2.332031 C 2.390625 -2.484375 2.523438 -2.601562 2.65625 -2.683594 C 2.789062 -2.761719 2.929688 -2.804688 3.085938 -2.804688 C 3.203125 -2.804688 3.308594 -2.785156 3.40625 -2.746094 C 3.5 -2.710938 3.585938 -2.652344 3.65625 -2.570312 C 3.730469 -2.488281 3.785156 -2.382812 3.828125 -2.261719 C 3.867188 -2.136719 3.886719 -1.980469 3.886719 -1.792969 L 3.886719 0 Z "/>
</g>
<g id="glyph-2-2">
<path d="M 2.621094 -1.4375 C 2.621094 -0.980469 2.511719 -0.621094 2.292969 -0.351562 C 2.078125 -0.0820312 1.800781 0.0546875 1.46875 0.0546875 C 1.335938 0.0546875 1.214844 0.0390625 1.109375 0.0078125 C 1.007812 -0.0234375 0.898438 -0.0703125 0.789062 -0.136719 L 0.789062 1.007812 L 0.332031 1.007812 L 0.332031 -2.726562 L 0.789062 -2.726562 L 0.789062 -2.441406 C 0.90625 -2.542969 1.03125 -2.628906 1.171875 -2.699219 C 1.308594 -2.769531 1.460938 -2.804688 1.625 -2.804688 C 1.9375 -2.804688 2.183594 -2.679688 2.355469 -2.429688 C 2.53125 -2.183594 2.621094 -1.851562 2.621094 -1.4375 M 2.144531 -1.382812 C 2.144531 -1.695312 2.097656 -1.9375 1.996094 -2.109375 C 1.898438 -2.28125 1.738281 -2.367188 1.515625 -2.367188 C 1.382812 -2.367188 1.257812 -2.335938 1.136719 -2.277344 C 1.015625 -2.222656 0.898438 -2.148438 0.789062 -2.054688 L 0.789062 -0.511719 C 0.910156 -0.453125 1.015625 -0.410156 1.101562 -0.390625 C 1.183594 -0.371094 1.285156 -0.359375 1.394531 -0.359375 C 1.632812 -0.359375 1.816406 -0.445312 1.949219 -0.621094 C 2.078125 -0.792969 2.144531 -1.050781 2.144531 -1.382812 Z "/>
</g>
<g id="glyph-2-3">
<path d="M 0.800781 0 L 0.34375 0 L 0.34375 -3.796875 L 0.800781 -3.796875 Z "/>
</g>
<g id="glyph-2-4">
<path d="M 0.800781 0 L 0.34375 0 L 0.34375 -2.726562 L 0.800781 -2.726562 L 0.800781 0 M 0.832031 -3.183594 L 0.308594 -3.183594 L 0.308594 -3.660156 L 0.832031 -3.660156 Z "/>
</g>
<g id="glyph-2-5">
<path d="M 1.414062 0.0625 C 1.230469 0.0625 1.058594 0.03125 0.902344 -0.0273438 C 0.746094 -0.0820312 0.609375 -0.171875 0.5 -0.289062 C 0.386719 -0.40625 0.296875 -0.554688 0.238281 -0.730469 C 0.175781 -0.910156 0.144531 -1.117188 0.144531 -1.359375 C 0.144531 -1.597656 0.175781 -1.804688 0.242188 -1.980469 C 0.304688 -2.152344 0.390625 -2.300781 0.5 -2.417969 C 0.605469 -2.539062 0.738281 -2.628906 0.898438 -2.695312 C 1.058594 -2.757812 1.230469 -2.789062 1.414062 -2.789062 C 1.566406 -2.789062 1.710938 -2.769531 1.847656 -2.726562 C 1.988281 -2.683594 2.113281 -2.636719 2.222656 -2.582031 L 2.222656 -2.066406 L 2.195312 -2.066406 C 2.164062 -2.09375 2.121094 -2.125 2.070312 -2.160156 C 2.019531 -2.195312 1.957031 -2.234375 1.882812 -2.269531 C 1.820312 -2.304688 1.742188 -2.332031 1.65625 -2.355469 C 1.570312 -2.378906 1.488281 -2.390625 1.410156 -2.390625 C 1.171875 -2.390625 0.980469 -2.300781 0.835938 -2.121094 C 0.691406 -1.941406 0.621094 -1.6875 0.621094 -1.359375 C 0.621094 -1.039062 0.691406 -0.785156 0.828125 -0.605469 C 0.96875 -0.425781 1.160156 -0.335938 1.410156 -0.335938 C 1.558594 -0.335938 1.699219 -0.367188 1.835938 -0.429688 C 1.972656 -0.492188 2.089844 -0.570312 2.195312 -0.667969 L 2.222656 -0.667969 L 2.222656 -0.152344 C 2.175781 -0.132812 2.117188 -0.105469 2.050781 -0.078125 C 1.980469 -0.046875 1.921875 -0.0234375 1.867188 -0.0078125 C 1.789062 0.0117188 1.71875 0.03125 1.65625 0.0429688 C 1.59375 0.0546875 1.515625 0.0625 1.414062 0.0625 Z "/>
</g>
<g id="glyph-2-6">
<path d="M 1.855469 -0.671875 L 1.855469 -1.429688 C 1.746094 -1.417969 1.609375 -1.40625 1.441406 -1.386719 C 1.273438 -1.371094 1.140625 -1.347656 1.039062 -1.316406 C 0.914062 -1.277344 0.816406 -1.222656 0.734375 -1.144531 C 0.65625 -1.066406 0.613281 -0.957031 0.617188 -0.820312 C 0.613281 -0.664062 0.660156 -0.546875 0.746094 -0.464844 C 0.835938 -0.386719 0.964844 -0.347656 1.132812 -0.347656 C 1.277344 -0.347656 1.410156 -0.378906 1.527344 -0.441406 C 1.644531 -0.503906 1.753906 -0.582031 1.855469 -0.671875 M 1.855469 -0.289062 C 1.816406 -0.261719 1.769531 -0.222656 1.707031 -0.175781 C 1.644531 -0.125 1.582031 -0.0859375 1.523438 -0.0546875 C 1.441406 -0.015625 1.363281 0.0195312 1.289062 0.0429688 C 1.210938 0.0625 1.105469 0.0742188 0.96875 0.0742188 C 0.855469 0.0742188 0.75 0.0546875 0.648438 0.0117188 C 0.546875 -0.03125 0.460938 -0.0898438 0.382812 -0.164062 C 0.308594 -0.242188 0.25 -0.332031 0.207031 -0.441406 C 0.164062 -0.554688 0.140625 -0.667969 0.140625 -0.789062 C 0.140625 -0.980469 0.179688 -1.140625 0.261719 -1.273438 C 0.339844 -1.40625 0.46875 -1.511719 0.640625 -1.589844 C 0.792969 -1.660156 0.972656 -1.707031 1.179688 -1.734375 C 1.390625 -1.761719 1.613281 -1.78125 1.855469 -1.792969 L 1.855469 -1.882812 C 1.855469 -1.988281 1.839844 -2.078125 1.804688 -2.140625 C 1.773438 -2.207031 1.726562 -2.257812 1.671875 -2.296875 C 1.609375 -2.332031 1.539062 -2.355469 1.453125 -2.371094 C 1.371094 -2.382812 1.285156 -2.386719 1.195312 -2.386719 C 1.089844 -2.386719 0.964844 -2.371094 0.820312 -2.339844 C 0.675781 -2.308594 0.535156 -2.261719 0.390625 -2.203125 L 0.363281 -2.203125 L 0.363281 -2.667969 C 0.449219 -2.691406 0.570312 -2.71875 0.726562 -2.75 C 0.886719 -2.777344 1.042969 -2.792969 1.195312 -2.792969 C 1.382812 -2.792969 1.542969 -2.777344 1.671875 -2.75 C 1.796875 -2.71875 1.914062 -2.667969 2.015625 -2.589844 C 2.117188 -2.515625 2.191406 -2.417969 2.238281 -2.300781 C 2.289062 -2.179688 2.3125 -2.035156 2.3125 -1.867188 L 2.3125 0 L 1.855469 0 Z "/>
</g>
<g id="glyph-2-7">
<path d="M 2.476562 0 L 2.015625 0 L 2.015625 -1.554688 C 2.015625 -1.679688 2.011719 -1.792969 2 -1.902344 C 1.984375 -2.011719 1.960938 -2.097656 1.929688 -2.164062 C 1.890625 -2.230469 1.839844 -2.28125 1.773438 -2.316406 C 1.707031 -2.347656 1.613281 -2.367188 1.5 -2.367188 C 1.386719 -2.367188 1.265625 -2.335938 1.144531 -2.273438 C 1.023438 -2.214844 0.90625 -2.132812 0.789062 -2.035156 L 0.789062 0 L 0.332031 0 L 0.332031 -2.726562 L 0.789062 -2.726562 L 0.789062 -2.425781 C 0.925781 -2.546875 1.0625 -2.640625 1.195312 -2.703125 C 1.328125 -2.769531 1.46875 -2.804688 1.617188 -2.804688 C 1.886719 -2.804688 2.097656 -2.714844 2.25 -2.539062 C 2.398438 -2.359375 2.476562 -2.105469 2.476562 -1.769531 Z "/>
</g>
<g id="glyph-2-8">
<path d="M 1.15625 0.0546875 C 0.90625 0.0546875 0.710938 -0.015625 0.570312 -0.160156 C 0.429688 -0.300781 0.359375 -0.527344 0.359375 -0.835938 L 0.359375 -2.347656 L 0.0507812 -2.347656 L 0.0507812 -2.726562 L 0.359375 -2.726562 L 0.359375 -3.511719 L 0.820312 -3.511719 L 0.820312 -2.726562 L 1.664062 -2.726562 L 1.664062 -2.347656 L 0.820312 -2.347656 L 0.820312 -1.050781 C 0.820312 -0.910156 0.824219 -0.804688 0.828125 -0.730469 C 0.832031 -0.65625 0.851562 -0.585938 0.882812 -0.519531 C 0.910156 -0.464844 0.957031 -0.421875 1.019531 -0.390625 C 1.078125 -0.363281 1.164062 -0.347656 1.269531 -0.347656 C 1.34375 -0.347656 1.417969 -0.359375 1.488281 -0.382812 C 1.558594 -0.402344 1.605469 -0.421875 1.636719 -0.4375 L 1.664062 -0.4375 L 1.664062 -0.0234375 C 1.578125 0 1.492188 0.0195312 1.402344 0.03125 C 1.3125 0.046875 1.230469 0.0546875 1.15625 0.0546875 Z "/>
</g>
<g id="glyph-3-0">
</g>
<g id="glyph-3-1">
<path d="M 0.515625 1.394531 L 0.515625 -4.191406 L 0.828125 -4.191406 L 0.835938 1.394531 Z "/>
</g>
<g id="glyph-4-0">
<path d="M 1.21875 0 L 1.21875 -3.207031 L -0.00390625 -3.207031 L -0.00390625 -3.636719 L 2.921875 -3.636719 L 2.921875 -3.207031 L 1.703125 -3.207031 L 1.703125 0 Z "/>
</g>
<g id="glyph-4-1">
<path d="M 1.777344 -2.234375 L 1.753906 -2.234375 C 1.71875 -2.242188 1.683594 -2.25 1.644531 -2.253906 C 1.605469 -2.253906 1.558594 -2.253906 1.507812 -2.257812 C 1.382812 -2.253906 1.257812 -2.230469 1.136719 -2.175781 C 1.015625 -2.121094 0.898438 -2.042969 0.789062 -1.9375 L 0.789062 0 L 0.332031 0 L 0.332031 -2.726562 L 0.789062 -2.726562 L 0.789062 -2.320312 C 0.957031 -2.46875 1.105469 -2.574219 1.230469 -2.636719 C 1.355469 -2.695312 1.476562 -2.726562 1.59375 -2.726562 C 1.640625 -2.726562 1.675781 -2.726562 1.699219 -2.722656 C 1.722656 -2.722656 1.75 -2.71875 1.777344 -2.710938 Z "/>
</g>
<g id="glyph-4-2">
<path d="M 2.457031 0 L 1.996094 0 L 1.996094 -0.304688 C 1.855469 -0.179688 1.722656 -0.0859375 1.59375 -0.0195312 C 1.46875 0.0429688 1.324219 0.0742188 1.167969 0.0742188 C 1.050781 0.0742188 0.9375 0.0546875 0.832031 0.015625 C 0.730469 -0.0234375 0.636719 -0.0820312 0.558594 -0.167969 C 0.480469 -0.253906 0.421875 -0.359375 0.378906 -0.488281 C 0.335938 -0.617188 0.3125 -0.773438 0.3125 -0.957031 L 0.3125 -2.726562 L 0.773438 -2.726562 L 0.773438 -1.175781 C 0.773438 -1.03125 0.777344 -0.910156 0.789062 -0.8125 C 0.796875 -0.71875 0.820312 -0.636719 0.859375 -0.5625 C 0.898438 -0.492188 0.949219 -0.441406 1.011719 -0.410156 C 1.078125 -0.378906 1.167969 -0.359375 1.289062 -0.359375 C 1.402344 -0.359375 1.519531 -0.394531 1.648438 -0.457031 C 1.773438 -0.519531 1.890625 -0.597656 1.996094 -0.691406 L 1.996094 -2.726562 L 2.457031 -2.726562 Z "/>
</g>
<g id="glyph-4-3">
<path d="M 1.15625 0.0546875 C 0.90625 0.0546875 0.710938 -0.015625 0.570312 -0.160156 C 0.429688 -0.300781 0.359375 -0.527344 0.359375 -0.835938 L 0.359375 -2.347656 L 0.0507812 -2.347656 L 0.0507812 -2.726562 L 0.359375 -2.726562 L 0.359375 -3.511719 L 0.820312 -3.511719 L 0.820312 -2.726562 L 1.664062 -2.726562 L 1.664062 -2.347656 L 0.820312 -2.347656 L 0.820312 -1.050781 C 0.820312 -0.910156 0.824219 -0.804688 0.828125 -0.730469 C 0.832031 -0.65625 0.851562 -0.585938 0.882812 -0.519531 C 0.910156 -0.464844 0.957031 -0.421875 1.019531 -0.390625 C 1.078125 -0.363281 1.164062 -0.347656 1.269531 -0.347656 C 1.34375 -0.347656 1.417969 -0.359375 1.488281 -0.382812 C 1.558594 -0.402344 1.605469 -0.421875 1.636719 -0.4375 L 1.664062 -0.4375 L 1.664062 -0.0234375 C 1.578125 0 1.492188 0.0195312 1.402344 0.03125 C 1.3125 0.046875 1.230469 0.0546875 1.15625 0.0546875 Z "/>
</g>
<g id="glyph-4-4">
<path d="M 2.476562 0 L 2.015625 0 L 2.015625 -1.554688 C 2.015625 -1.679688 2.011719 -1.792969 2 -1.902344 C 1.984375 -2.011719 1.960938 -2.097656 1.929688 -2.164062 C 1.890625 -2.230469 1.839844 -2.28125 1.773438 -2.316406 C 1.707031 -2.347656 1.613281 -2.367188 1.5 -2.367188 C 1.386719 -2.367188 1.265625 -2.335938 1.144531 -2.273438 C 1.023438 -2.214844 0.90625 -2.132812 0.789062 -2.035156 L 0.789062 0 L 0.332031 0 L 0.332031 -3.796875 L 0.789062 -3.796875 L 0.789062 -2.425781 C 0.925781 -2.546875 1.0625 -2.640625 1.195312 -2.703125 C 1.328125 -2.769531 1.46875 -2.804688 1.617188 -2.804688 C 1.886719 -2.804688 2.097656 -2.714844 2.25 -2.539062 C 2.398438 -2.359375 2.476562 -2.105469 2.476562 -1.769531 Z "/>
</g>
<g id="glyph-4-5">
</g>
<g id="glyph-4-6">
<path d="M 1.855469 -0.671875 L 1.855469 -1.429688 C 1.746094 -1.417969 1.609375 -1.40625 1.441406 -1.386719 C 1.273438 -1.371094 1.140625 -1.347656 1.039062 -1.316406 C 0.914062 -1.277344 0.816406 -1.222656 0.734375 -1.144531 C 0.65625 -1.066406 0.613281 -0.957031 0.617188 -0.820312 C 0.613281 -0.664062 0.660156 -0.546875 0.746094 -0.464844 C 0.835938 -0.386719 0.964844 -0.347656 1.132812 -0.347656 C 1.277344 -0.347656 1.410156 -0.378906 1.527344 -0.441406 C 1.644531 -0.503906 1.753906 -0.582031 1.855469 -0.671875 M 1.855469 -0.289062 C 1.816406 -0.261719 1.769531 -0.222656 1.707031 -0.175781 C 1.644531 -0.125 1.582031 -0.0859375 1.523438 -0.0546875 C 1.441406 -0.015625 1.363281 0.0195312 1.289062 0.0429688 C 1.210938 0.0625 1.105469 0.0742188 0.96875 0.0742188 C 0.855469 0.0742188 0.75 0.0546875 0.648438 0.0117188 C 0.546875 -0.03125 0.460938 -0.0898438 0.382812 -0.164062 C 0.308594 -0.242188 0.25 -0.332031 0.207031 -0.441406 C 0.164062 -0.554688 0.140625 -0.667969 0.140625 -0.789062 C 0.140625 -0.980469 0.179688 -1.140625 0.261719 -1.273438 C 0.339844 -1.40625 0.46875 -1.511719 0.640625 -1.589844 C 0.792969 -1.660156 0.972656 -1.707031 1.179688 -1.734375 C 1.390625 -1.761719 1.613281 -1.78125 1.855469 -1.792969 L 1.855469 -1.882812 C 1.855469 -1.988281 1.839844 -2.078125 1.804688 -2.140625 C 1.773438 -2.207031 1.726562 -2.257812 1.671875 -2.296875 C 1.609375 -2.332031 1.539062 -2.355469 1.453125 -2.371094 C 1.371094 -2.382812 1.285156 -2.386719 1.195312 -2.386719 C 1.089844 -2.386719 0.964844 -2.371094 0.820312 -2.339844 C 0.675781 -2.308594 0.535156 -2.261719 0.390625 -2.203125 L 0.363281 -2.203125 L 0.363281 -2.667969 C 0.449219 -2.691406 0.570312 -2.71875 0.726562 -2.75 C 0.886719 -2.777344 1.042969 -2.792969 1.195312 -2.792969 C 1.382812 -2.792969 1.542969 -2.777344 1.671875 -2.75 C 1.796875 -2.71875 1.914062 -2.667969 2.015625 -2.589844 C 2.117188 -2.515625 2.191406 -2.417969 2.238281 -2.300781 C 2.289062 -2.179688 2.3125 -2.035156 2.3125 -1.867188 L 2.3125 0 L 1.855469 0 Z "/>
</g>
<g id="glyph-4-7">
<path d="M 2.144531 -1.371094 C 2.144531 -1.699219 2.097656 -1.945312 1.996094 -2.113281 C 1.898438 -2.28125 1.738281 -2.367188 1.519531 -2.367188 C 1.394531 -2.367188 1.265625 -2.335938 1.140625 -2.277344 C 1.011719 -2.21875 0.894531 -2.144531 0.789062 -2.054688 L 0.789062 -0.492188 C 0.90625 -0.4375 1.007812 -0.394531 1.097656 -0.371094 C 1.1875 -0.347656 1.285156 -0.335938 1.394531 -0.335938 C 1.628906 -0.335938 1.8125 -0.421875 1.945312 -0.585938 C 2.078125 -0.75 2.144531 -1.015625 2.144531 -1.371094 M 2.621094 -1.410156 C 2.621094 -0.960938 2.511719 -0.605469 2.296875 -0.332031 C 2.078125 -0.0585938 1.808594 0.0742188 1.480469 0.0742188 C 1.332031 0.0742188 1.207031 0.0585938 1.101562 0.0195312 C 0.996094 -0.015625 0.894531 -0.0664062 0.789062 -0.125 L 0.761719 0 L 0.332031 0 L 0.332031 -3.796875 L 0.789062 -3.796875 L 0.789062 -2.441406 C 0.90625 -2.546875 1.03125 -2.632812 1.167969 -2.699219 C 1.300781 -2.769531 1.453125 -2.804688 1.625 -2.804688 C 1.933594 -2.804688 2.175781 -2.679688 2.351562 -2.433594 C 2.53125 -2.1875 2.621094 -1.84375 2.621094 -1.410156 Z "/>
</g>
<g id="glyph-4-8">
<path d="M 0.800781 0 L 0.34375 0 L 0.34375 -3.796875 L 0.800781 -3.796875 Z "/>
</g>
<g id="glyph-4-9">
<path d="M 1.515625 0.0625 C 1.082031 0.0625 0.746094 -0.0585938 0.503906 -0.304688 C 0.265625 -0.550781 0.144531 -0.898438 0.144531 -1.347656 C 0.144531 -1.792969 0.261719 -2.144531 0.492188 -2.410156 C 0.726562 -2.671875 1.03125 -2.804688 1.40625 -2.804688 C 1.574219 -2.804688 1.726562 -2.777344 1.855469 -2.730469 C 1.984375 -2.679688 2.097656 -2.605469 2.195312 -2.5 C 2.292969 -2.394531 2.371094 -2.269531 2.421875 -2.117188 C 2.472656 -1.96875 2.5 -1.78125 2.5 -1.566406 L 2.5 -1.316406 L 0.609375 -1.316406 C 0.609375 -1 0.691406 -0.757812 0.851562 -0.589844 C 1.007812 -0.421875 1.230469 -0.335938 1.511719 -0.335938 C 1.613281 -0.335938 1.710938 -0.347656 1.808594 -0.371094 C 1.90625 -0.394531 1.992188 -0.421875 2.070312 -0.460938 C 2.152344 -0.496094 2.222656 -0.53125 2.28125 -0.566406 C 2.335938 -0.601562 2.382812 -0.636719 2.421875 -0.667969 L 2.449219 -0.667969 L 2.449219 -0.164062 C 2.394531 -0.144531 2.328125 -0.117188 2.25 -0.0859375 C 2.167969 -0.0546875 2.097656 -0.03125 2.035156 -0.0117188 C 1.945312 0.0117188 1.863281 0.03125 1.789062 0.0429688 C 1.71875 0.0585938 1.625 0.0625 1.515625 0.0625 M 2.054688 -1.667969 C 2.050781 -1.792969 2.035156 -1.898438 2.007812 -1.988281 C 1.984375 -2.078125 1.945312 -2.152344 1.898438 -2.214844 C 1.84375 -2.28125 1.773438 -2.335938 1.691406 -2.371094 C 1.605469 -2.40625 1.503906 -2.425781 1.378906 -2.425781 C 1.257812 -2.425781 1.152344 -2.40625 1.066406 -2.371094 C 0.984375 -2.332031 0.90625 -2.28125 0.835938 -2.210938 C 0.765625 -2.136719 0.714844 -2.058594 0.679688 -1.972656 C 0.644531 -1.882812 0.621094 -1.78125 0.609375 -1.667969 Z "/>
</g>
<g id="glyph-5-0">
</g>
<g id="glyph-5-1">
<path d="M 0.515625 1.394531 L 0.515625 -4.191406 L 0.828125 -4.191406 L 0.835938 1.394531 Z "/>
</g>
<g id="glyph-6-0">
<path d="M 3.015625 0 L 2.390625 0 L 1.0625 -1.691406 L 0.851562 -1.453125 L 0.851562 0 L 0.367188 0 L 0.367188 -3.636719 L 0.851562 -3.636719 L 0.851562 -1.960938 L 2.339844 -3.636719 L 2.929688 -3.636719 L 1.425781 -2.011719 Z "/>
</g>
<g id="glyph-6-1">
<path d="M 1.855469 -0.671875 L 1.855469 -1.429688 C 1.746094 -1.417969 1.609375 -1.40625 1.441406 -1.386719 C 1.273438 -1.371094 1.140625 -1.347656 1.039062 -1.316406 C 0.914062 -1.277344 0.816406 -1.222656 0.734375 -1.144531 C 0.65625 -1.066406 0.613281 -0.957031 0.617188 -0.820312 C 0.613281 -0.664062 0.660156 -0.546875 0.746094 -0.464844 C 0.835938 -0.386719 0.964844 -0.347656 1.132812 -0.347656 C 1.277344 -0.347656 1.410156 -0.378906 1.527344 -0.441406 C 1.644531 -0.503906 1.753906 -0.582031 1.855469 -0.671875 M 1.855469 -0.289062 C 1.816406 -0.261719 1.769531 -0.222656 1.707031 -0.175781 C 1.644531 -0.125 1.582031 -0.0859375 1.523438 -0.0546875 C 1.441406 -0.015625 1.363281 0.0195312 1.289062 0.0429688 C 1.210938 0.0625 1.105469 0.0742188 0.96875 0.0742188 C 0.855469 0.0742188 0.75 0.0546875 0.648438 0.0117188 C 0.546875 -0.03125 0.460938 -0.0898438 0.382812 -0.164062 C 0.308594 -0.242188 0.25 -0.332031 0.207031 -0.441406 C 0.164062 -0.554688 0.140625 -0.667969 0.140625 -0.789062 C 0.140625 -0.980469 0.179688 -1.140625 0.261719 -1.273438 C 0.339844 -1.40625 0.46875 -1.511719 0.640625 -1.589844 C 0.792969 -1.660156 0.972656 -1.707031 1.179688 -1.734375 C 1.390625 -1.761719 1.613281 -1.78125 1.855469 -1.792969 L 1.855469 -1.882812 C 1.855469 -1.988281 1.839844 -2.078125 1.804688 -2.140625 C 1.773438 -2.207031 1.726562 -2.257812 1.671875 -2.296875 C 1.609375 -2.332031 1.539062 -2.355469 1.453125 -2.371094 C 1.371094 -2.382812 1.285156 -2.386719 1.195312 -2.386719 C 1.089844 -2.386719 0.964844 -2.371094 0.820312 -2.339844 C 0.675781 -2.308594 0.535156 -2.261719 0.390625 -2.203125 L 0.363281 -2.203125 L 0.363281 -2.667969 C 0.449219 -2.691406 0.570312 -2.71875 0.726562 -2.75 C 0.886719 -2.777344 1.042969 -2.792969 1.195312 -2.792969 C 1.382812 -2.792969 1.542969 -2.777344 1.671875 -2.75 C 1.796875 -2.71875 1.914062 -2.667969 2.015625 -2.589844 C 2.117188 -2.515625 2.191406 -2.417969 2.238281 -2.300781 C 2.289062 -2.179688 2.3125 -2.035156 2.3125 -1.867188 L 2.3125 0 L 1.855469 0 Z "/>
</g>
<g id="glyph-6-2">
<path d="M 1.777344 -2.234375 L 1.753906 -2.234375 C 1.71875 -2.242188 1.683594 -2.25 1.644531 -2.253906 C 1.605469 -2.253906 1.558594 -2.253906 1.507812 -2.257812 C 1.382812 -2.253906 1.257812 -2.230469 1.136719 -2.175781 C 1.015625 -2.121094 0.898438 -2.042969 0.789062 -1.9375 L 0.789062 0 L 0.332031 0 L 0.332031 -2.726562 L 0.789062 -2.726562 L 0.789062 -2.320312 C 0.957031 -2.46875 1.105469 -2.574219 1.230469 -2.636719 C 1.355469 -2.695312 1.476562 -2.726562 1.59375 -2.726562 C 1.640625 -2.726562 1.675781 -2.726562 1.699219 -2.722656 C 1.722656 -2.722656 1.75 -2.71875 1.777344 -2.710938 Z "/>
</g>
<g id="glyph-6-3">
<path d="M 2.476562 0 L 2.015625 0 L 2.015625 -1.554688 C 2.015625 -1.679688 2.011719 -1.792969 2 -1.902344 C 1.984375 -2.011719 1.960938 -2.097656 1.929688 -2.164062 C 1.890625 -2.230469 1.839844 -2.28125 1.773438 -2.316406 C 1.707031 -2.347656 1.613281 -2.367188 1.5 -2.367188 C 1.386719 -2.367188 1.265625 -2.335938 1.144531 -2.273438 C 1.023438 -2.214844 0.90625 -2.132812 0.789062 -2.035156 L 0.789062 0 L 0.332031 0 L 0.332031 -2.726562 L 0.789062 -2.726562 L 0.789062 -2.425781 C 0.925781 -2.546875 1.0625 -2.640625 1.195312 -2.703125 C 1.328125 -2.769531 1.46875 -2.804688 1.617188 -2.804688 C 1.886719 -2.804688 2.097656 -2.714844 2.25 -2.539062 C 2.398438 -2.359375 2.476562 -2.105469 2.476562 -1.769531 Z "/>
</g>
<g id="glyph-6-4">
<path d="M 2.457031 0 L 1.996094 0 L 1.996094 -0.304688 C 1.855469 -0.179688 1.722656 -0.0859375 1.59375 -0.0195312 C 1.46875 0.0429688 1.324219 0.0742188 1.167969 0.0742188 C 1.050781 0.0742188 0.9375 0.0546875 0.832031 0.015625 C 0.730469 -0.0234375 0.636719 -0.0820312 0.558594 -0.167969 C 0.480469 -0.253906 0.421875 -0.359375 0.378906 -0.488281 C 0.335938 -0.617188 0.3125 -0.773438 0.3125 -0.957031 L 0.3125 -2.726562 L 0.773438 -2.726562 L 0.773438 -1.175781 C 0.773438 -1.03125 0.777344 -0.910156 0.789062 -0.8125 C 0.796875 -0.71875 0.820312 -0.636719 0.859375 -0.5625 C 0.898438 -0.492188 0.949219 -0.441406 1.011719 -0.410156 C 1.078125 -0.378906 1.167969 -0.359375 1.289062 -0.359375 C 1.402344 -0.359375 1.519531 -0.394531 1.648438 -0.457031 C 1.773438 -0.519531 1.890625 -0.597656 1.996094 -0.691406 L 1.996094 -2.726562 L 2.457031 -2.726562 Z "/>
</g>
<g id="glyph-6-5">
<path d="M 1.972656 -0.738281 L 1.972656 -2.234375 C 1.859375 -2.292969 1.753906 -2.332031 1.65625 -2.355469 C 1.558594 -2.378906 1.464844 -2.390625 1.367188 -2.390625 C 1.132812 -2.390625 0.953125 -2.304688 0.816406 -2.132812 C 0.683594 -1.960938 0.617188 -1.71875 0.617188 -1.398438 C 0.617188 -1.097656 0.667969 -0.867188 0.769531 -0.707031 C 0.871094 -0.550781 1.035156 -0.472656 1.265625 -0.472656 C 1.382812 -0.472656 1.507812 -0.496094 1.632812 -0.542969 C 1.757812 -0.589844 1.871094 -0.65625 1.972656 -0.738281 M 0.429688 0.4375 C 0.460938 0.449219 0.507812 0.46875 0.566406 0.488281 C 0.625 0.511719 0.695312 0.53125 0.773438 0.550781 C 0.855469 0.574219 0.933594 0.589844 1.007812 0.601562 C 1.078125 0.617188 1.15625 0.621094 1.242188 0.621094 C 1.382812 0.621094 1.5 0.605469 1.601562 0.566406 C 1.699219 0.527344 1.777344 0.476562 1.832031 0.410156 C 1.882812 0.34375 1.917969 0.265625 1.941406 0.179688 C 1.960938 0.0898438 1.972656 -0.0117188 1.972656 -0.121094 L 1.972656 -0.359375 C 1.847656 -0.253906 1.726562 -0.175781 1.609375 -0.125 C 1.488281 -0.0703125 1.339844 -0.046875 1.164062 -0.046875 C 0.851562 -0.046875 0.605469 -0.160156 0.421875 -0.394531 C 0.234375 -0.625 0.144531 -0.957031 0.144531 -1.390625 C 0.144531 -1.617188 0.175781 -1.816406 0.238281 -1.992188 C 0.304688 -2.164062 0.386719 -2.3125 0.496094 -2.4375 C 0.597656 -2.554688 0.71875 -2.644531 0.859375 -2.707031 C 1 -2.769531 1.144531 -2.804688 1.292969 -2.804688 C 1.4375 -2.804688 1.558594 -2.785156 1.660156 -2.753906 C 1.765625 -2.71875 1.867188 -2.671875 1.972656 -2.609375 L 2 -2.726562 L 2.429688 -2.726562 L 2.429688 -0.308594 C 2.429688 0.152344 2.332031 0.492188 2.128906 0.707031 C 1.925781 0.925781 1.617188 1.03125 1.203125 1.03125 C 1.070312 1.03125 0.933594 1.023438 0.792969 1 C 0.65625 0.980469 0.527344 0.953125 0.40625 0.914062 L 0.40625 0.4375 Z "/>
</g>
<g id="glyph-6-6">
<path d="M 2.476562 0 L 2.015625 0 L 2.015625 -1.554688 C 2.015625 -1.679688 2.011719 -1.792969 2 -1.902344 C 1.984375 -2.011719 1.960938 -2.097656 1.929688 -2.164062 C 1.890625 -2.230469 1.839844 -2.28125 1.773438 -2.316406 C 1.707031 -2.347656 1.613281 -2.367188 1.5 -2.367188 C 1.386719 -2.367188 1.265625 -2.335938 1.144531 -2.273438 C 1.023438 -2.214844 0.90625 -2.132812 0.789062 -2.035156 L 0.789062 0 L 0.332031 0 L 0.332031 -3.796875 L 0.789062 -3.796875 L 0.789062 -2.425781 C 0.925781 -2.546875 1.0625 -2.640625 1.195312 -2.703125 C 1.328125 -2.769531 1.46875 -2.804688 1.617188 -2.804688 C 1.886719 -2.804688 2.097656 -2.714844 2.25 -2.539062 C 2.398438 -2.359375 2.476562 -2.105469 2.476562 -1.769531 Z "/>
</g>
<g id="glyph-6-7">
</g>
<g id="glyph-6-8">
<path d="M 3.484375 0 L 3 0 L 3 -3.132812 L 2.054688 -1 L 1.761719 -1 L 0.820312 -3.132812 L 0.820312 0 L 0.367188 0 L 0.367188 -3.636719 L 1.027344 -3.636719 L 1.9375 -1.609375 L 2.8125 -3.636719 L 3.484375 -3.636719 Z "/>
</g>
<g id="glyph-6-9">
<path d="M 2.621094 -1.4375 C 2.621094 -0.980469 2.511719 -0.621094 2.292969 -0.351562 C 2.078125 -0.0820312 1.800781 0.0546875 1.46875 0.0546875 C 1.335938 0.0546875 1.214844 0.0390625 1.109375 0.0078125 C 1.007812 -0.0234375 0.898438 -0.0703125 0.789062 -0.136719 L 0.789062 1.007812 L 0.332031 1.007812 L 0.332031 -2.726562 L 0.789062 -2.726562 L 0.789062 -2.441406 C 0.90625 -2.542969 1.03125 -2.628906 1.171875 -2.699219 C 1.308594 -2.769531 1.460938 -2.804688 1.625 -2.804688 C 1.9375 -2.804688 2.183594 -2.679688 2.355469 -2.429688 C 2.53125 -2.183594 2.621094 -1.851562 2.621094 -1.4375 M 2.144531 -1.382812 C 2.144531 -1.695312 2.097656 -1.9375 1.996094 -2.109375 C 1.898438 -2.28125 1.738281 -2.367188 1.515625 -2.367188 C 1.382812 -2.367188 1.257812 -2.335938 1.136719 -2.277344 C 1.015625 -2.222656 0.898438 -2.148438 0.789062 -2.054688 L 0.789062 -0.511719 C 0.910156 -0.453125 1.015625 -0.410156 1.101562 -0.390625 C 1.183594 -0.371094 1.285156 -0.359375 1.394531 -0.359375 C 1.632812 -0.359375 1.816406 -0.445312 1.949219 -0.621094 C 2.078125 -0.792969 2.144531 -1.050781 2.144531 -1.382812 Z "/>
</g>
</g>
</defs>
<g fill="rgb(86.666667%, 86.666667%, 86.666667%)" fill-opacity="1">
<use xlink:href="#glyph-0-0" x="30" y="25.00293"/>
<use xlink:href="#glyph-0-1" x="33" y="25.00293"/>
<use xlink:href="#glyph-0-2" x="35" y="25.00293"/>
<use xlink:href="#glyph-0-3" x="38" y="25.00293"/>
<use xlink:href="#glyph-0-4" x="41" y="25.00293"/>
<use xlink:href="#glyph-0-5" x="42.988281" y="25.00293"/>
<use xlink:href="#glyph-0-6" x="45" y="25.00293"/>
<use xlink:href="#glyph-0-7" x="48" y="25.00293"/>
<use xlink:href="#glyph-0-3" x="51" y="25.00293"/>
</g>
<g fill="rgb(86.666667%, 86.666667%, 86.666667%)" fill-opacity="1">
<use xlink:href="#glyph-1-0" x="54" y="25"/>
<use xlink:href="#glyph-1-0" x="55" y="25"/>
<use xlink:href="#glyph-1-1" x="56" y="25"/>
<use xlink:href="#glyph-1-0" x="57" y="25"/>
<use xlink:href="#glyph-1-0" x="58" y="25"/>
</g>
<g fill="rgb(86.666667%, 86.666667%, 86.666667%)" fill-opacity="1">
<use xlink:href="#glyph-2-0" x="59" y="25.00293"/>
<use xlink:href="#glyph-2-1" x="60.988281" y="25.00293"/>
<use xlink:href="#glyph-2-2" x="65" y="25.00293"/>
<use xlink:href="#glyph-2-3" x="68" y="25.00293"/>
<use xlink:href="#glyph-2-4" x="69.00293" y="25.00293"/>
<use xlink:href="#glyph-2-5" x="70" y="25.00293"/>
<use xlink:href="#glyph-2-6" x="72" y="25.00293"/>
<use xlink:href="#glyph-2-7" x="75" y="25.00293"/>
<use xlink:href="#glyph-2-8" x="78" y="25.00293"/>
</g>
<g fill="rgb(86.666667%, 86.666667%, 86.666667%)" fill-opacity="1">
<use xlink:href="#glyph-3-0" x="80" y="25"/>
<use xlink:href="#glyph-3-0" x="81" y="25"/>
<use xlink:href="#glyph-3-1" x="82" y="25"/>
<use xlink:href="#glyph-3-0" x="83" y="25"/>
<use xlink:href="#glyph-3-0" x="84" y="25"/>
</g>
<g fill="rgb(86.666667%, 86.666667%, 86.666667%)" fill-opacity="1">
<use xlink:href="#glyph-4-0" x="85" y="25.00293"/>
<use xlink:href="#glyph-4-1" x="87.768555" y="25.00293"/>
<use xlink:href="#glyph-4-2" x="90" y="25.00293"/>
<use xlink:href="#glyph-4-3" x="93" y="25.00293"/>
<use xlink:href="#glyph-4-4" x="95" y="25.00293"/>
<use xlink:href="#glyph-4-5" x="98" y="25.00293"/>
<use xlink:href="#glyph-4-0" x="100" y="25.00293"/>
<use xlink:href="#glyph-4-6" x="102.723633" y="25.00293"/>
<use xlink:href="#glyph-4-7" x="105" y="25.00293"/>
<use xlink:href="#glyph-4-8" x="108" y="25.00293"/>
<use xlink:href="#glyph-4-9" x="109" y="25.00293"/>
</g>
<g fill="rgb(86.666667%, 86.666667%, 86.666667%)" fill-opacity="1">
<use xlink:href="#glyph-5-0" x="112" y="25"/>
<use xlink:href="#glyph-5-0" x="113" y="25"/>
<use xlink:href="#glyph-5-1" x="114" y="25"/>
<use xlink:href="#glyph-5-0" x="115" y="25"/>
<use xlink:href="#glyph-5-0" x="116" y="25"/>
</g>
<g fill="rgb(86.666667%, 86.666667%, 86.666667%)" fill-opacity="1">
<use xlink:href="#glyph-6-0" x="117" y="25.00293"/>
<use xlink:href="#glyph-6-1" x="119.945312" y="25.00293"/>
<use xlink:href="#glyph-6-2" x="123" y="25.00293"/>
<use xlink:href="#glyph-6-3" x="125" y="25.00293"/>
<use xlink:href="#glyph-6-1" x="128" y="25.00293"/>
<use xlink:href="#glyph-6-4" x="131" y="25.00293"/>
<use xlink:href="#glyph-6-5" x="134" y="25.00293"/>
<use xlink:href="#glyph-6-6" x="137" y="25.00293"/>
<use xlink:href="#glyph-6-7" x="140" y="25.00293"/>
<use xlink:href="#glyph-6-8" x="142" y="25.00293"/>
<use xlink:href="#glyph-6-1" x="146" y="25.00293"/>
<use xlink:href="#glyph-6-9" x="149" y="25.00293"/>
</g>
</svg>
