<?xml version="1.0" encoding="UTF-8"?>
<svg xmlns="http://www.w3.org/2000/svg" xmlns:xlink="http://www.w3.org/1999/xlink" width="854" height="480" viewBox="0 0 854 480">
<defs>
<g>
<g id="glyph-0-0">
<path d="M 1.488281 0 L 1.488281 -3.917969 L -0.00390625 -3.917969 L -0.00390625 -4.441406 L 3.570312 -4.441406 L 3.570312 -3.917969 L 2.078125 -3.917969 L 2.078125 0 Z "/>
</g>
<g id="glyph-0-1">
<path d="M 4.445312 -3.332031 L 3.601562 0 L 3.082031 0 L 2.269531 -2.570312 L 1.460938 0 L 0.941406 0 L 0.0898438 -3.332031 L 0.675781 -3.332031 L 1.261719 -0.75 L 2.054688 -3.332031 L 2.515625 -3.332031 L 3.328125 -0.75 L 3.882812 -3.332031 Z "/>
</g>
<g id="glyph-0-2">
<path d="M 3.148438 -1.664062 C 3.148438 -1.105469 3.011719 -0.671875 2.742188 -0.367188 C 2.472656 -0.0585938 2.113281 0.09375 1.660156 0.09375 C 1.199219 0.09375 0.832031 -0.0664062 0.570312 -0.378906 C 0.304688 -0.695312 0.171875 -1.125 0.171875 -1.664062 C 0.171875 -2.222656 0.308594 -2.65625 0.582031 -2.960938 C 0.855469 -3.269531 1.214844 -3.425781 1.660156 -3.425781 C 2.113281 -3.425781 2.472656 -3.273438 2.742188 -2.964844 C 3.011719 -2.65625 3.148438 -2.222656 3.148438 -1.664062 M 2.570312 -1.664062 C 2.570312 -2.097656 2.492188 -2.417969 2.332031 -2.628906 C 2.175781 -2.835938 1.953125 -2.941406 1.660156 -2.941406 C 1.371094 -2.941406 1.144531 -2.835938 0.984375 -2.628906 C 0.828125 -2.417969 0.75 -2.097656 0.75 -1.664062 C 0.75 -1.246094 0.828125 -0.929688 0.984375 -0.714844 C 1.144531 -0.5 1.371094 -0.390625 1.660156 -0.390625 C 1.949219 -0.390625 2.171875 -0.496094 2.332031 -0.707031 C 2.488281 -0.921875 2.570312 -1.238281 2.570312 -1.664062 Z "/>
</g>
<g id="glyph-0-3">
<path d="M 1.953125 -1.675781 L 0.269531 -1.675781 L 0.269531 -2.214844 L 1.953125 -2.214844 Z "/>
</g>
<g id="glyph-0-4">
<path d="M 3.027344 0 L 0.449219 0 L 0.449219 -4.441406 L 1.042969 -4.441406 L 1.042969 -0.523438 L 3.027344 -0.523438 Z "/>
</g>
<g id="glyph-0-5">
<path d="M 1.851562 0.078125 C 1.320312 0.078125 0.910156 -0.0703125 0.617188 -0.371094 C 0.324219 -0.671875 0.175781 -1.097656 0.175781 -1.648438 C 0.175781 -2.191406 0.316406 -2.621094 0.601562 -2.945312 C 0.886719 -3.265625 1.257812 -3.425781 1.71875 -3.425781 C 1.925781 -3.425781 2.109375 -3.394531 2.269531 -3.335938 C 2.425781 -3.277344 2.566406 -3.183594 2.683594 -3.054688 C 2.804688 -2.929688 2.894531 -2.773438 2.960938 -2.589844 C 3.023438 -2.40625 3.054688 -2.179688 3.054688 -1.914062 L 3.054688 -1.609375 L 0.746094 -1.609375 C 0.746094 -1.21875 0.84375 -0.925781 1.039062 -0.71875 C 1.234375 -0.515625 1.503906 -0.410156 1.847656 -0.410156 C 1.96875 -0.410156 2.089844 -0.425781 2.210938 -0.453125 C 2.328125 -0.480469 2.433594 -0.515625 2.53125 -0.5625 C 2.632812 -0.605469 2.71875 -0.652344 2.785156 -0.695312 C 2.855469 -0.738281 2.914062 -0.777344 2.960938 -0.816406 L 2.992188 -0.816406 L 2.992188 -0.203125 C 2.925781 -0.175781 2.84375 -0.144531 2.746094 -0.105469 C 2.652344 -0.0664062 2.5625 -0.0351562 2.484375 -0.015625 C 2.375 0.015625 2.277344 0.0390625 2.1875 0.0546875 C 2.101562 0.0703125 1.988281 0.078125 1.851562 0.078125 M 2.507812 -2.039062 C 2.503906 -2.1875 2.488281 -2.320312 2.457031 -2.429688 C 2.421875 -2.539062 2.378906 -2.628906 2.316406 -2.707031 C 2.253906 -2.789062 2.167969 -2.851562 2.066406 -2.898438 C 1.964844 -2.941406 1.835938 -2.960938 1.6875 -2.960938 C 1.535156 -2.960938 1.410156 -2.941406 1.304688 -2.894531 C 1.199219 -2.851562 1.105469 -2.785156 1.019531 -2.699219 C 0.9375 -2.613281 0.875 -2.515625 0.828125 -2.410156 C 0.785156 -2.304688 0.757812 -2.179688 0.746094 -2.039062 Z "/>
</g>
<g id="glyph-0-6">
<path d="M 3.027344 -3.332031 L 1.769531 0 L 1.265625 0 L 0.0195312 -3.332031 L 0.625 -3.332031 L 1.535156 -0.761719 L 2.441406 -3.332031 Z "/>
</g>
<g id="glyph-0-7">
<path d="M 0.980469 0 L 0.417969 0 L 0.417969 -4.644531 L 0.980469 -4.644531 Z "/>
</g>
<g id="glyph-1-0">
</g>
<g id="glyph-1-1">
<path d="M 0.832031 -4.859375 L 5.71875 -4.859375 L 5.71875 -4.507812 L 0.832031 -4.507812 L 0.832031 -4.859375 M 3.453125 -3.433594 L 5.675781 -3.433594 L 5.675781 -3.0625 L 3.453125 -3.0625 L 3.453125 -3.433594 M 1.429688 -0.878906 L 5.371094 -0.878906 L 5.371094 -0.527344 L 1.429688 -0.527344 L 1.429688 -0.878906 M 1.007812 -0.03125 L 5.769531 -0.03125 L 5.769531 0.316406 L 1.007812 0.316406 L 1.007812 -0.03125 M 3.195312 -1.203125 L 3.640625 -1.203125 L 3.640625 0.207031 L 3.195312 0.207031 L 3.195312 -1.203125 M 0.640625 -4.859375 L 1.058594 -4.859375 L 1.058594 -2.707031 C 1.058594 -2.480469 1.050781 -2.230469 1.039062 -1.964844 C 1.027344 -1.699219 1.003906 -1.425781 0.96875 -1.152344 C 0.933594 -0.875 0.882812 -0.609375 0.816406 -0.351562 C 0.75 -0.09375 0.660156 0.144531 0.550781 0.359375 C 0.527344 0.335938 0.492188 0.308594 0.445312 0.28125 C 0.402344 0.253906 0.355469 0.226562 0.308594 0.199219 C 0.261719 0.171875 0.21875 0.152344 0.183594 0.140625 C 0.289062 -0.0625 0.375 -0.285156 0.4375 -0.527344 C 0.5 -0.765625 0.546875 -1.011719 0.574219 -1.265625 C 0.601562 -1.515625 0.621094 -1.765625 0.628906 -2.011719 C 0.636719 -2.261719 0.640625 -2.492188 0.640625 -2.707031 L 0.640625 -4.859375 M 2.976562 -2.9375 L 3.34375 -2.9375 L 3.34375 -1.570312 C 3.34375 -1.480469 3.332031 -1.414062 3.308594 -1.371094 C 3.285156 -1.328125 3.242188 -1.296875 3.171875 -1.269531 C 3.101562 -1.246094 3.007812 -1.230469 2.894531 -1.226562 C 2.777344 -1.222656 2.632812 -1.222656 2.457031 -1.222656 C 2.449219 -1.261719 2.433594 -1.308594 2.410156 -1.355469 C 2.386719 -1.40625 2.367188 -1.449219 2.347656 -1.492188 C 2.472656 -1.488281 2.585938 -1.484375 2.6875 -1.484375 C 2.789062 -1.484375 2.855469 -1.484375 2.882812 -1.484375 C 2.945312 -1.484375 2.976562 -1.511719 2.976562 -1.5625 L 2.976562 -2.9375 M 4.789062 -4.128906 L 5.058594 -4.296875 C 5.164062 -4.203125 5.269531 -4.09375 5.378906 -3.976562 C 5.484375 -3.855469 5.5625 -3.75 5.617188 -3.660156 L 5.335938 -3.476562 C 5.28125 -3.566406 5.203125 -3.671875 5.097656 -3.796875 C 4.996094 -3.921875 4.894531 -4.03125 4.789062 -4.128906 M 4.722656 -3.234375 C 4.800781 -2.851562 4.929688 -2.503906 5.109375 -2.199219 C 5.289062 -1.894531 5.523438 -1.671875 5.816406 -1.527344 C 5.773438 -1.492188 5.722656 -1.441406 5.671875 -1.375 C 5.617188 -1.308594 5.578125 -1.25 5.546875 -1.199219 C 5.238281 -1.375 4.992188 -1.640625 4.804688 -1.988281 C 4.621094 -2.335938 4.484375 -2.730469 4.398438 -3.164062 L 4.722656 -3.234375 M 4.296875 -4.339844 L 4.648438 -4.339844 L 4.648438 -3.433594 C 4.648438 -3.191406 4.625 -2.9375 4.578125 -2.675781 C 4.53125 -2.414062 4.4375 -2.164062 4.289062 -1.921875 C 4.144531 -1.679688 3.917969 -1.453125 3.613281 -1.242188 C 3.578125 -1.28125 3.535156 -1.328125 3.484375 -1.378906 C 3.433594 -1.429688 3.386719 -1.46875 3.335938 -1.503906 C 3.546875 -1.644531 3.71875 -1.796875 3.847656 -1.957031 C 3.976562 -2.121094 4.070312 -2.285156 4.136719 -2.453125 C 4.203125 -2.621094 4.246094 -2.789062 4.265625 -2.957031 C 4.285156 -3.125 4.296875 -3.285156 4.296875 -3.441406 L 4.296875 -4.339844 M 1.503906 -2.9375 L 3.152344 -2.9375 L 3.152344 -2.671875 L 1.503906 -2.671875 L 1.503906 -2.9375 M 1.722656 -4.015625 L 1.722656 -3.378906 L 2.921875 -3.378906 L 2.921875 -4.015625 L 1.722656 -4.015625 M 1.40625 -4.265625 L 3.257812 -4.265625 L 3.257812 -3.128906 L 1.40625 -3.128906 L 1.40625 -4.265625 M 1.613281 -3.8125 L 2.773438 -3.8125 L 2.773438 -3.582031 L 1.613281 -3.582031 L 1.613281 -3.8125 M 1.300781 -2.9375 L 1.667969 -2.9375 L 1.667969 -1.179688 L 1.300781 -1.179688 L 1.300781 -2.9375 M 1.492188 -2.449219 L 3.140625 -2.449219 L 3.140625 -2.210938 L 1.492188 -2.210938 L 1.492188 -2.449219 M 1.515625 -1.984375 L 3.164062 -1.984375 L 3.164062 -1.742188 L 1.515625 -1.742188 Z "/>
</g>
<g id="glyph-1-2">
<path d="M 1.613281 -2.730469 L 1.925781 -2.839844 C 2.007812 -2.667969 2.082031 -2.476562 2.15625 -2.265625 C 2.230469 -2.058594 2.28125 -1.886719 2.308594 -1.746094 L 1.972656 -1.613281 C 1.957031 -1.710938 1.929688 -1.824219 1.894531 -1.953125 C 1.859375 -2.082031 1.816406 -2.214844 1.765625 -2.347656 C 1.71875 -2.484375 1.667969 -2.613281 1.613281 -2.730469 M 1.113281 -1.15625 L 1.441406 -1.226562 C 1.480469 -1.019531 1.511719 -0.796875 1.542969 -0.554688 C 1.574219 -0.3125 1.59375 -0.101562 1.601562 0.0742188 L 1.265625 0.160156 C 1.261719 -0.0195312 1.242188 -0.230469 1.214844 -0.476562 C 1.183594 -0.722656 1.148438 -0.945312 1.113281 -1.15625 M 0.476562 -1.203125 L 0.832031 -1.136719 C 0.796875 -0.875 0.753906 -0.609375 0.703125 -0.34375 C 0.648438 -0.0742188 0.59375 0.15625 0.53125 0.347656 C 0.496094 0.328125 0.441406 0.304688 0.371094 0.273438 C 0.296875 0.246094 0.242188 0.226562 0.195312 0.214844 C 0.265625 0.0273438 0.320312 -0.195312 0.367188 -0.449219 C 0.410156 -0.703125 0.449219 -0.957031 0.476562 -1.203125 M 0.34375 -2.847656 C 0.335938 -2.875 0.324219 -2.914062 0.308594 -2.964844 C 0.292969 -3.011719 0.277344 -3.0625 0.261719 -3.113281 C 0.246094 -3.164062 0.230469 -3.207031 0.214844 -3.246094 C 0.261719 -3.257812 0.3125 -3.292969 0.363281 -3.351562 C 0.414062 -3.410156 0.46875 -3.488281 0.53125 -3.582031 C 0.578125 -3.640625 0.644531 -3.753906 0.738281 -3.910156 C 0.828125 -4.070312 0.929688 -4.257812 1.035156 -4.472656 C 1.144531 -4.6875 1.238281 -4.90625 1.3125 -5.125 L 1.691406 -4.960938 C 1.542969 -4.621094 1.371094 -4.28125 1.183594 -3.949219 C 0.992188 -3.613281 0.800781 -3.324219 0.605469 -3.078125 L 0.605469 -3.074219 C 0.605469 -3.074219 0.589844 -3.066406 0.566406 -3.050781 C 0.539062 -3.03125 0.507812 -3.011719 0.46875 -2.992188 C 0.433594 -2.96875 0.402344 -2.945312 0.378906 -2.917969 C 0.355469 -2.890625 0.34375 -2.867188 0.34375 -2.847656 M 0.34375 -2.847656 L 0.335938 -3.164062 L 0.53125 -3.292969 L 1.570312 -3.386719 C 1.558594 -3.328125 1.550781 -3.265625 1.546875 -3.203125 C 1.542969 -3.136719 1.539062 -3.082031 1.535156 -3.035156 C 1.300781 -3.007812 1.109375 -2.984375 0.960938 -2.964844 C 0.8125 -2.949219 0.699219 -2.933594 0.617188 -2.917969 C 0.535156 -2.902344 0.476562 -2.890625 0.4375 -2.882812 C 0.398438 -2.871094 0.367188 -2.859375 0.34375 -2.847656 M 0.378906 -1.464844 C 0.375 -1.496094 0.363281 -1.535156 0.347656 -1.582031 C 0.332031 -1.632812 0.316406 -1.679688 0.300781 -1.730469 C 0.28125 -1.785156 0.265625 -1.828125 0.25 -1.863281 C 0.3125 -1.875 0.375 -1.917969 0.445312 -1.996094 C 0.515625 -2.070312 0.59375 -2.164062 0.683594 -2.277344 C 0.734375 -2.335938 0.804688 -2.429688 0.894531 -2.558594 C 0.988281 -2.691406 1.089844 -2.84375 1.203125 -3.023438 C 1.316406 -3.199219 1.433594 -3.390625 1.550781 -3.597656 C 1.664062 -3.808594 1.773438 -4.015625 1.871094 -4.230469 L 2.21875 -4.007812 C 2.070312 -3.726562 1.910156 -3.449219 1.738281 -3.171875 C 1.566406 -2.894531 1.386719 -2.628906 1.203125 -2.378906 C 1.019531 -2.128906 0.832031 -1.902344 0.640625 -1.691406 L 0.640625 -1.6875 C 0.640625 -1.6875 0.628906 -1.679688 0.605469 -1.664062 C 0.582031 -1.652344 0.550781 -1.632812 0.511719 -1.609375 C 0.476562 -1.585938 0.445312 -1.5625 0.417969 -1.539062 C 0.390625 -1.515625 0.378906 -1.492188 0.378906 -1.464844 M 0.378906 -1.464844 L 0.367188 -1.789062 L 0.566406 -1.925781 L 2.109375 -2.144531 C 2.101562 -2.09375 2.09375 -2.03125 2.09375 -1.964844 C 2.089844 -1.898438 2.09375 -1.84375 2.097656 -1.800781 C 1.742188 -1.746094 1.457031 -1.699219 1.242188 -1.660156 C 1.03125 -1.625 0.867188 -1.59375 0.75 -1.570312 C 0.636719 -1.546875 0.554688 -1.527344 0.5 -1.511719 C 0.449219 -1.5 0.40625 -1.484375 0.378906 -1.464844 M 1.773438 -1.285156 L 2.070312 -1.382812 C 2.144531 -1.195312 2.214844 -0.988281 2.28125 -0.769531 C 2.347656 -0.550781 2.398438 -0.359375 2.433594 -0.203125 L 2.113281 -0.0859375 C 2.082031 -0.25 2.03125 -0.441406 1.96875 -0.667969 C 1.902344 -0.890625 1.835938 -1.097656 1.773438 -1.285156 M 4.425781 -3.332031 L 4.894531 -3.246094 C 4.847656 -3.0625 4.792969 -2.875 4.742188 -2.683594 C 4.6875 -2.492188 4.640625 -2.328125 4.59375 -2.195312 L 4.214844 -2.277344 C 4.246094 -2.371094 4.273438 -2.480469 4.300781 -2.605469 C 4.324219 -2.730469 4.351562 -2.855469 4.375 -2.984375 C 4.398438 -3.113281 4.414062 -3.226562 4.425781 -3.332031 M 2.371094 -4.539062 L 5.761719 -4.539062 L 5.761719 -3.617188 L 5.335938 -3.617188 L 5.335938 -4.148438 L 2.792969 -4.148438 L 2.792969 -3.53125 L 2.371094 -3.53125 L 2.371094 -4.539062 M 3.074219 -3.738281 L 3.484375 -3.640625 C 3.414062 -3.382812 3.328125 -3.113281 3.230469 -2.832031 C 3.128906 -2.554688 3.011719 -2.28125 2.882812 -2.019531 C 2.75 -1.757812 2.597656 -1.527344 2.433594 -1.324219 C 2.402344 -1.371094 2.363281 -1.421875 2.316406 -1.484375 C 2.265625 -1.546875 2.222656 -1.59375 2.1875 -1.632812 C 2.335938 -1.820312 2.464844 -2.03125 2.578125 -2.273438 C 2.691406 -2.511719 2.792969 -2.761719 2.875 -3.015625 C 2.957031 -3.269531 3.023438 -3.511719 3.074219 -3.738281 M 3.476562 -3.464844 L 5.785156 -3.464844 L 5.785156 -3.085938 L 3.476562 -3.085938 L 3.476562 -3.464844 M 3.820312 -1.351562 L 5.449219 -1.351562 L 5.449219 -0.976562 L 3.820312 -0.976562 L 3.820312 -1.351562 M 3.605469 -2.46875 L 5.671875 -2.46875 L 5.671875 0.453125 L 5.261719 0.453125 L 5.261719 -2.089844 L 4.003906 -2.089844 L 4.003906 0.484375 L 3.605469 0.484375 L 3.605469 -2.46875 M 2.738281 -2.40625 L 3.105469 -2.773438 L 3.121094 -2.761719 L 3.121094 0.484375 L 2.738281 0.484375 L 2.738281 -2.40625 M 3.671875 -5 L 4.03125 -5.164062 C 4.109375 -5.058594 4.183594 -4.941406 4.253906 -4.816406 C 4.324219 -4.6875 4.375 -4.578125 4.40625 -4.480469 L 4.015625 -4.296875 C 3.984375 -4.394531 3.9375 -4.507812 3.875 -4.640625 C 3.808594 -4.773438 3.742188 -4.894531 3.671875 -5 M 3.835938 -0.175781 L 5.449219 -0.175781 L 5.449219 0.195312 L 3.835938 0.195312 Z "/>
</g>
</g>
</defs>
<g fill="rgb(97.647059%, 71.764706%, 45.882353%)" fill-opacity="1">
<use xlink:href="#glyph-0-0" x="30" y="26.113281"/>
<use xlink:href="#glyph-0-1" x="32.716797" y="26.113281"/>
<use xlink:href="#glyph-0-2" x="37" y="26.113281"/>
<use xlink:href="#glyph-0-3" x="40" y="26.113281"/>
<use xlink:href="#glyph-0-4" x="42" y="26.113281"/>
<use xlink:href="#glyph-0-5" x="45" y="26.113281"/>
<use xlink:href="#glyph-0-6" x="48" y="26.113281"/>
<use xlink:href="#glyph-0-5" x="50.976562" y="26.113281"/>
<use xlink:href="#glyph-0-7" x="54" y="26.113281"/>
</g>
<g fill="rgb(97.647059%, 71.764706%, 45.882353%)" fill-opacity="1">
<use xlink:href="#glyph-1-0" x="55" y="26.110352"/>
<use xlink:href="#glyph-1-1" x="56" y="26.110352"/>
<use xlink:href="#glyph-1-2" x="62" y="26.110352"/>
</g>
</svg>
