<?xml version="1.0" encoding="UTF-8"?>
<svg xmlns="http://www.w3.org/2000/svg" xmlns:xlink="http://www.w3.org/1999/xlink" width="854" height="480" viewBox="0 0 854 480">
<defs>
<g>
<g id="glyph-0-0">
<path d="M 1.605469 -3.953125 L 1.929688 -4.234375 C 2.085938 -4.164062 2.253906 -4.078125 2.425781 -3.980469 C 2.597656 -3.882812 2.757812 -3.78125 2.910156 -3.679688 C 3.0625 -3.578125 3.1875 -3.480469 3.285156 -3.394531 L 2.945312 -3.078125 C 2.851562 -3.167969 2.730469 -3.265625 2.582031 -3.371094 C 2.433594 -3.476562 2.273438 -3.578125 2.101562 -3.683594 C 1.933594 -3.789062 1.765625 -3.878906 1.605469 -3.953125 M 4.5625 -4.832031 L 4.65625 -4.832031 L 4.742188 -4.847656 L 5.046875 -4.664062 C 4.839844 -4.292969 4.574219 -3.957031 4.25 -3.65625 C 3.925781 -3.359375 3.5625 -3.09375 3.164062 -2.867188 C 2.769531 -2.636719 2.351562 -2.445312 1.921875 -2.285156 C 1.488281 -2.125 1.0625 -1.996094 0.640625 -1.902344 C 0.617188 -1.96875 0.585938 -2.042969 0.542969 -2.125 C 0.5 -2.207031 0.457031 -2.277344 0.414062 -2.332031 C 0.820312 -2.40625 1.230469 -2.511719 1.640625 -2.65625 C 2.054688 -2.796875 2.453125 -2.972656 2.832031 -3.179688 C 3.210938 -3.386719 3.550781 -3.621094 3.847656 -3.882812 C 4.148438 -4.148438 4.386719 -4.4375 4.5625 -4.753906 L 4.5625 -4.832031 M 2.421875 -4.832031 L 4.675781 -4.832031 L 4.675781 -4.421875 L 2.421875 -4.421875 L 2.421875 -4.832031 M 2.894531 -5.378906 L 3.4375 -5.265625 C 3.140625 -4.925781 2.773438 -4.601562 2.335938 -4.292969 C 1.898438 -3.988281 1.382812 -3.714844 0.792969 -3.476562 C 0.769531 -3.515625 0.742188 -3.558594 0.703125 -3.605469 C 0.664062 -3.652344 0.625 -3.695312 0.582031 -3.734375 C 0.539062 -3.773438 0.5 -3.808594 0.460938 -3.832031 C 0.847656 -3.96875 1.195312 -4.125 1.507812 -4.292969 C 1.820312 -4.464844 2.089844 -4.644531 2.324219 -4.832031 C 2.558594 -5.019531 2.75 -5.199219 2.894531 -5.378906 M 2.421875 -1.617188 L 2.78125 -1.890625 C 2.945312 -1.804688 3.117188 -1.707031 3.300781 -1.59375 C 3.480469 -1.480469 3.652344 -1.367188 3.808594 -1.25 C 3.964844 -1.132812 4.09375 -1.019531 4.199219 -0.914062 L 3.820312 -0.605469 C 3.726562 -0.714844 3.601562 -0.824219 3.445312 -0.941406 C 3.292969 -1.058594 3.125 -1.179688 2.945312 -1.296875 C 2.765625 -1.417969 2.59375 -1.523438 2.421875 -1.617188 M 5.488281 -2.59375 L 5.589844 -2.59375 L 5.679688 -2.613281 L 5.992188 -2.441406 C 5.789062 -1.976562 5.519531 -1.574219 5.183594 -1.234375 C 4.84375 -0.890625 4.460938 -0.605469 4.023438 -0.375 C 3.589844 -0.140625 3.125 0.046875 2.628906 0.191406 C 2.132812 0.335938 1.625 0.445312 1.105469 0.523438 C 1.089844 0.460938 1.058594 0.382812 1.019531 0.296875 C 0.980469 0.210938 0.9375 0.140625 0.894531 0.0898438 C 1.386719 0.03125 1.875 -0.0664062 2.347656 -0.195312 C 2.824219 -0.324219 3.265625 -0.492188 3.675781 -0.703125 C 4.089844 -0.910156 4.449219 -1.167969 4.761719 -1.464844 C 5.078125 -1.765625 5.316406 -2.117188 5.488281 -2.515625 L 5.488281 -2.59375 M 3.417969 -2.59375 L 5.617188 -2.59375 L 5.617188 -2.179688 L 3.417969 -2.179688 L 3.417969 -2.59375 M 3.929688 -3.1875 L 4.464844 -3.066406 C 4.140625 -2.691406 3.726562 -2.335938 3.21875 -2 C 2.714844 -1.664062 2.109375 -1.371094 1.40625 -1.125 C 1.386719 -1.164062 1.363281 -1.207031 1.324219 -1.253906 C 1.289062 -1.300781 1.253906 -1.34375 1.21875 -1.390625 C 1.179688 -1.433594 1.144531 -1.46875 1.113281 -1.496094 C 1.558594 -1.640625 1.964844 -1.804688 2.332031 -1.988281 C 2.699219 -2.171875 3.015625 -2.367188 3.285156 -2.574219 C 3.550781 -2.785156 3.765625 -2.988281 3.929688 -3.1875 Z "/>
</g>
<g id="glyph-0-1">
<path d="M 2.183594 -4.976562 L 5.921875 -4.984375 L 5.917969 0.453125 L 5.460938 0.460938 L 5.460938 -4.554688 L 2.625 -4.554688 L 2.625 0.503906 L 2.183594 0.503906 L 2.183594 -4.976562 M 2.886719 -3.621094 L 5.246094 -3.621094 L 5.246094 -3.253906 L 2.894531 -3.253906 L 2.886719 -3.621094 M 2.421875 -0.300781 L 5.710938 -0.308594 L 5.71875 0.121094 L 2.429688 0.128906 L 2.421875 -0.300781 M 3.867188 -4.351562 L 4.25 -4.351562 L 4.25 -2.324219 L 3.859375 -2.324219 L 3.867188 -4.351562 M 3.527344 -2.191406 L 3.527344 -1.195312 L 4.613281 -1.195312 L 4.605469 -2.191406 L 3.527344 -2.191406 M 3.15625 -2.550781 L 4.988281 -2.550781 L 4.996094 -0.835938 L 3.15625 -0.835938 L 3.15625 -2.550781 M 1.519531 -5.335938 L 1.960938 -5.207031 C 1.839844 -4.84375 1.691406 -4.488281 1.523438 -4.128906 C 1.355469 -3.773438 1.171875 -3.441406 0.976562 -3.125 C 0.78125 -2.808594 0.578125 -2.53125 0.363281 -2.289062 C 0.347656 -2.324219 0.324219 -2.375 0.296875 -2.4375 C 0.269531 -2.5 0.238281 -2.5625 0.203125 -2.625 C 0.171875 -2.691406 0.136719 -2.742188 0.109375 -2.78125 C 0.300781 -2.988281 0.484375 -3.230469 0.65625 -3.503906 C 0.832031 -3.777344 0.992188 -4.074219 1.140625 -4.386719 C 1.289062 -4.699219 1.414062 -5.015625 1.519531 -5.335938 M 0.984375 -3.777344 L 1.4375 -4.222656 L 1.4375 0.515625 L 0.984375 0.515625 Z "/>
</g>
<g id="glyph-0-2">
</g>
<g id="glyph-1-0">
<path d="M 4.378906 0 L 4.378906 -2.015625 C 4.378906 -2.175781 4.375 -2.324219 4.363281 -2.460938 C 4.347656 -2.597656 4.324219 -2.703125 4.285156 -2.78125 C 4.242188 -2.863281 4.183594 -2.925781 4.105469 -2.964844 C 4.027344 -3.003906 3.925781 -3.023438 3.792969 -3.023438 C 3.671875 -3.023438 3.542969 -2.984375 3.40625 -2.914062 C 3.265625 -2.839844 3.125 -2.730469 2.976562 -2.59375 C 2.976562 -2.558594 2.980469 -2.515625 2.984375 -2.464844 C 2.988281 -2.417969 2.988281 -2.359375 2.988281 -2.292969 L 2.988281 0 L 2.402344 0 L 2.402344 -2.015625 C 2.402344 -2.175781 2.394531 -2.324219 2.382812 -2.460938 C 2.371094 -2.597656 2.34375 -2.703125 2.304688 -2.78125 C 2.265625 -2.863281 2.203125 -2.925781 2.128906 -2.964844 C 2.050781 -3.003906 1.945312 -3.023438 1.816406 -3.023438 C 1.6875 -3.023438 1.554688 -2.984375 1.417969 -2.90625 C 1.277344 -2.824219 1.140625 -2.726562 1.011719 -2.601562 L 1.011719 0 L 0.425781 0 L 0.425781 -3.484375 L 1.011719 -3.484375 L 1.011719 -3.097656 C 1.164062 -3.25 1.316406 -3.371094 1.46875 -3.457031 C 1.617188 -3.539062 1.785156 -3.582031 1.964844 -3.582031 C 2.171875 -3.582031 2.355469 -3.535156 2.511719 -3.441406 C 2.671875 -3.347656 2.792969 -3.195312 2.875 -2.980469 C 3.054688 -3.175781 3.226562 -3.328125 3.394531 -3.429688 C 3.5625 -3.53125 3.746094 -3.582031 3.945312 -3.582031 C 4.09375 -3.582031 4.230469 -3.558594 4.351562 -3.511719 C 4.476562 -3.464844 4.582031 -3.390625 4.671875 -3.285156 C 4.765625 -3.179688 4.839844 -3.046875 4.890625 -2.890625 C 4.941406 -2.730469 4.964844 -2.53125 4.964844 -2.292969 L 4.964844 0 Z "/>
</g>
<g id="glyph-1-1">
<path d="M 1.023438 0 L 0.4375 0 L 0.4375 -3.484375 L 1.023438 -3.484375 L 1.023438 0 M 1.0625 -4.066406 L 0.394531 -4.066406 L 0.394531 -4.675781 L 1.0625 -4.675781 Z "/>
</g>
<g id="glyph-1-2">
<path d="M 3.164062 0 L 2.578125 0 L 2.578125 -1.984375 C 2.578125 -2.144531 2.570312 -2.292969 2.554688 -2.433594 C 2.539062 -2.570312 2.507812 -2.679688 2.464844 -2.765625 C 2.417969 -2.851562 2.351562 -2.917969 2.265625 -2.960938 C 2.179688 -3 2.0625 -3.023438 1.914062 -3.023438 C 1.769531 -3.023438 1.621094 -2.984375 1.464844 -2.90625 C 1.308594 -2.828125 1.160156 -2.726562 1.011719 -2.601562 L 1.011719 0 L 0.425781 0 L 0.425781 -3.484375 L 1.011719 -3.484375 L 1.011719 -3.097656 C 1.183594 -3.253906 1.359375 -3.375 1.527344 -3.457031 C 1.699219 -3.539062 1.878906 -3.582031 2.070312 -3.582031 C 2.410156 -3.582031 2.679688 -3.46875 2.875 -3.242188 C 3.066406 -3.015625 3.164062 -2.691406 3.164062 -2.261719 Z "/>
</g>
<g id="glyph-1-3">
<path d="M 1.480469 0.0703125 C 1.160156 0.0703125 0.910156 -0.0234375 0.730469 -0.203125 C 0.550781 -0.386719 0.460938 -0.675781 0.460938 -1.066406 L 0.460938 -3 L 0.0664062 -3 L 0.0664062 -3.484375 L 0.460938 -3.484375 L 0.460938 -4.484375 L 1.046875 -4.484375 L 1.046875 -3.484375 L 2.128906 -3.484375 L 2.128906 -3 L 1.046875 -3 L 1.046875 -1.339844 C 1.046875 -1.164062 1.050781 -1.027344 1.058594 -0.933594 C 1.0625 -0.835938 1.085938 -0.746094 1.128906 -0.664062 C 1.164062 -0.589844 1.222656 -0.539062 1.300781 -0.5 C 1.378906 -0.464844 1.488281 -0.445312 1.621094 -0.445312 C 1.71875 -0.445312 1.808594 -0.460938 1.898438 -0.488281 C 1.988281 -0.515625 2.054688 -0.539062 2.09375 -0.558594 L 2.128906 -0.558594 L 2.128906 -0.03125 C 2.015625 0 1.90625 0.0234375 1.792969 0.0429688 C 1.679688 0.0585938 1.574219 0.0703125 1.480469 0.0703125 Z "/>
</g>
<g id="glyph-1-4">
<path d="M 1.9375 0.0820312 C 1.382812 0.0820312 0.949219 -0.0742188 0.644531 -0.386719 C 0.335938 -0.703125 0.183594 -1.144531 0.183594 -1.722656 C 0.183594 -2.289062 0.332031 -2.742188 0.628906 -3.078125 C 0.925781 -3.414062 1.316406 -3.582031 1.796875 -3.582031 C 2.011719 -3.582031 2.203125 -3.550781 2.371094 -3.488281 C 2.539062 -3.425781 2.683594 -3.328125 2.808594 -3.195312 C 2.933594 -3.0625 3.027344 -2.898438 3.09375 -2.707031 C 3.160156 -2.515625 3.195312 -2.277344 3.195312 -2 L 3.195312 -1.679688 L 0.78125 -1.679688 C 0.78125 -1.277344 0.882812 -0.964844 1.085938 -0.75 C 1.289062 -0.539062 1.570312 -0.429688 1.929688 -0.429688 C 2.058594 -0.429688 2.1875 -0.445312 2.308594 -0.472656 C 2.433594 -0.503906 2.546875 -0.539062 2.644531 -0.585938 C 2.75 -0.632812 2.839844 -0.679688 2.914062 -0.726562 C 2.988281 -0.769531 3.046875 -0.8125 3.09375 -0.851562 L 3.128906 -0.851562 L 3.128906 -0.210938 C 3.058594 -0.183594 2.976562 -0.152344 2.875 -0.109375 C 2.769531 -0.0703125 2.679688 -0.0390625 2.597656 -0.015625 C 2.484375 0.015625 2.382812 0.0390625 2.289062 0.0546875 C 2.195312 0.0742188 2.078125 0.0820312 1.9375 0.0820312 M 2.625 -2.128906 C 2.621094 -2.289062 2.601562 -2.425781 2.566406 -2.539062 C 2.535156 -2.652344 2.488281 -2.75 2.425781 -2.828125 C 2.355469 -2.917969 2.265625 -2.984375 2.160156 -3.03125 C 2.054688 -3.074219 1.921875 -3.097656 1.761719 -3.097656 C 1.605469 -3.097656 1.472656 -3.074219 1.363281 -3.027344 C 1.253906 -2.980469 1.15625 -2.914062 1.066406 -2.824219 C 0.980469 -2.730469 0.914062 -2.628906 0.867188 -2.519531 C 0.820312 -2.40625 0.792969 -2.277344 0.78125 -2.128906 Z "/>
</g>
<g id="glyph-1-5">
<path d="M 2.269531 -2.855469 L 2.238281 -2.855469 C 2.195312 -2.867188 2.148438 -2.875 2.101562 -2.878906 C 2.050781 -2.882812 1.992188 -2.882812 1.925781 -2.882812 C 1.765625 -2.882812 1.609375 -2.847656 1.453125 -2.78125 C 1.296875 -2.710938 1.148438 -2.609375 1.011719 -2.472656 L 1.011719 0 L 0.425781 0 L 0.425781 -3.484375 L 1.011719 -3.484375 L 1.011719 -2.96875 C 1.226562 -3.15625 1.410156 -3.289062 1.570312 -3.367188 C 1.730469 -3.445312 1.882812 -3.484375 2.035156 -3.484375 C 2.09375 -3.484375 2.140625 -3.484375 2.167969 -3.480469 C 2.199219 -3.476562 2.234375 -3.472656 2.269531 -3.464844 Z "/>
</g>
<g id="glyph-2-0">
</g>
<g id="glyph-2-1">
<path d="M 4.773438 -4.773438 L 5.269531 -4.773438 L 5.269531 -0.179688 C 5.269531 -0.0078125 5.246094 0.121094 5.199219 0.214844 C 5.148438 0.304688 5.058594 0.371094 4.933594 0.414062 C 4.808594 0.457031 4.636719 0.480469 4.410156 0.488281 C 4.1875 0.496094 3.917969 0.5 3.597656 0.5 C 3.589844 0.453125 3.574219 0.398438 3.550781 0.335938 C 3.527344 0.273438 3.5 0.210938 3.476562 0.148438 C 3.449219 0.0820312 3.425781 0.0273438 3.398438 -0.0195312 C 3.570312 -0.0117188 3.738281 -0.00390625 3.902344 -0.00390625 C 4.066406 0 4.207031 0 4.328125 0 C 4.449219 0 4.535156 0 4.585938 0 C 4.65625 -0.0078125 4.703125 -0.0234375 4.730469 -0.046875 C 4.757812 -0.0703125 4.773438 -0.117188 4.773438 -0.183594 L 4.773438 -4.773438 M 1.007812 -3.496094 L 1.476562 -3.496094 L 1.476562 -0.59375 L 1.007812 -0.59375 L 1.007812 -3.496094 M 1.207031 -3.496094 L 3.628906 -3.496094 L 3.628906 -1.105469 L 1.207031 -1.105469 L 1.207031 -1.566406 L 3.15625 -1.566406 L 3.15625 -3.035156 L 1.207031 -3.035156 L 1.207031 -3.496094 M 0.359375 -4.914062 L 6.058594 -4.914062 L 6.058594 -4.433594 L 0.359375 -4.433594 Z "/>
</g>
<g id="glyph-2-2">
<path d="M 2.332031 -4.363281 L 2.761719 -4.570312 C 2.902344 -4.414062 3.035156 -4.246094 3.167969 -4.0625 C 3.300781 -3.878906 3.421875 -3.699219 3.527344 -3.523438 C 3.632812 -3.347656 3.714844 -3.183594 3.777344 -3.035156 L 3.316406 -2.792969 C 3.261719 -2.9375 3.183594 -3.101562 3.078125 -3.289062 C 2.976562 -3.472656 2.859375 -3.660156 2.726562 -3.847656 C 2.597656 -4.035156 2.464844 -4.207031 2.332031 -4.363281 M 0.230469 -0.683594 C 0.445312 -0.769531 0.699219 -0.871094 0.988281 -0.992188 C 1.273438 -1.109375 1.578125 -1.238281 1.902344 -1.375 C 2.222656 -1.515625 2.542969 -1.652344 2.863281 -1.789062 L 2.972656 -1.324219 C 2.675781 -1.191406 2.375 -1.054688 2.070312 -0.921875 C 1.761719 -0.785156 1.46875 -0.652344 1.183594 -0.527344 C 0.898438 -0.402344 0.636719 -0.289062 0.402344 -0.183594 L 0.230469 -0.683594 M 4.0625 -1.519531 L 4.433594 -1.839844 C 4.582031 -1.6875 4.742188 -1.523438 4.910156 -1.355469 C 5.078125 -1.183594 5.242188 -1.011719 5.40625 -0.832031 C 5.566406 -0.65625 5.71875 -0.488281 5.859375 -0.324219 C 6 -0.164062 6.113281 -0.015625 6.203125 0.113281 L 5.796875 0.492188 C 5.707031 0.359375 5.59375 0.210938 5.460938 0.0429688 C 5.332031 -0.121094 5.183594 -0.296875 5.023438 -0.476562 C 4.867188 -0.65625 4.703125 -0.839844 4.539062 -1.019531 C 4.375 -1.199219 4.21875 -1.367188 4.0625 -1.519531 M 4.945312 -5.042969 L 5.46875 -4.988281 C 5.386719 -4.25 5.273438 -3.589844 5.125 -3.007812 C 4.976562 -2.429688 4.777344 -1.917969 4.527344 -1.472656 C 4.277344 -1.027344 3.960938 -0.640625 3.574219 -0.3125 C 3.1875 0.015625 2.71875 0.296875 2.160156 0.53125 C 2.136719 0.496094 2.105469 0.453125 2.058594 0.398438 C 2.011719 0.347656 1.960938 0.292969 1.910156 0.242188 C 1.859375 0.191406 1.816406 0.148438 1.777344 0.113281 C 2.328125 -0.0898438 2.792969 -0.34375 3.164062 -0.640625 C 3.539062 -0.941406 3.84375 -1.300781 4.082031 -1.722656 C 4.320312 -2.140625 4.507812 -2.625 4.640625 -3.171875 C 4.777344 -3.71875 4.878906 -4.34375 4.945312 -5.042969 M 1.003906 -5.023438 L 1.496094 -5.042969 L 1.609375 -0.816406 L 1.117188 -0.796875 Z "/>
</g>
<g id="glyph-2-3">
<path d="M 0.867188 -5.078125 L 5.980469 -5.078125 L 5.980469 -4.714844 L 0.867188 -4.714844 L 0.867188 -5.078125 M 3.609375 -3.589844 L 5.9375 -3.589844 L 5.9375 -3.199219 L 3.609375 -3.199219 L 3.609375 -3.589844 M 1.496094 -0.921875 L 5.617188 -0.921875 L 5.617188 -0.550781 L 1.496094 -0.550781 L 1.496094 -0.921875 M 1.054688 -0.03125 L 6.03125 -0.03125 L 6.03125 0.332031 L 1.054688 0.332031 L 1.054688 -0.03125 M 3.339844 -1.257812 L 3.808594 -1.257812 L 3.808594 0.21875 L 3.339844 0.21875 L 3.339844 -1.257812 M 0.671875 -5.078125 L 1.105469 -5.078125 L 1.105469 -2.832031 C 1.105469 -2.59375 1.097656 -2.332031 1.085938 -2.054688 C 1.074219 -1.773438 1.050781 -1.492188 1.011719 -1.203125 C 0.976562 -0.917969 0.921875 -0.636719 0.851562 -0.367188 C 0.78125 -0.0976562 0.691406 0.152344 0.574219 0.378906 C 0.550781 0.351562 0.511719 0.324219 0.464844 0.292969 C 0.417969 0.265625 0.371094 0.234375 0.324219 0.207031 C 0.273438 0.179688 0.230469 0.160156 0.191406 0.148438 C 0.300781 -0.0664062 0.390625 -0.296875 0.457031 -0.550781 C 0.523438 -0.800781 0.570312 -1.058594 0.601562 -1.324219 C 0.628906 -1.585938 0.648438 -1.847656 0.65625 -2.105469 C 0.667969 -2.363281 0.671875 -2.605469 0.671875 -2.832031 L 0.671875 -5.078125 M 3.113281 -3.074219 L 3.496094 -3.074219 L 3.496094 -1.640625 C 3.496094 -1.546875 3.484375 -1.480469 3.460938 -1.433594 C 3.4375 -1.390625 3.386719 -1.355469 3.316406 -1.328125 C 3.242188 -1.304688 3.148438 -1.289062 3.023438 -1.285156 C 2.902344 -1.28125 2.75 -1.277344 2.570312 -1.277344 C 2.558594 -1.320312 2.542969 -1.367188 2.519531 -1.417969 C 2.496094 -1.46875 2.476562 -1.515625 2.453125 -1.558594 C 2.585938 -1.554688 2.703125 -1.550781 2.8125 -1.550781 C 2.917969 -1.550781 2.984375 -1.550781 3.015625 -1.550781 C 3.078125 -1.550781 3.113281 -1.582031 3.113281 -1.636719 L 3.113281 -3.074219 M 5.007812 -4.320312 L 5.289062 -4.492188 C 5.402344 -4.394531 5.511719 -4.28125 5.621094 -4.15625 C 5.734375 -4.03125 5.816406 -3.921875 5.871094 -3.828125 L 5.578125 -3.636719 C 5.523438 -3.730469 5.441406 -3.839844 5.332031 -3.972656 C 5.222656 -4.101562 5.117188 -4.21875 5.007812 -4.320312 M 4.9375 -3.378906 C 5.019531 -2.980469 5.152344 -2.621094 5.339844 -2.300781 C 5.527344 -1.980469 5.777344 -1.746094 6.082031 -1.597656 C 6.035156 -1.558594 5.984375 -1.503906 5.929688 -1.4375 C 5.875 -1.371094 5.832031 -1.308594 5.800781 -1.253906 C 5.476562 -1.441406 5.21875 -1.714844 5.023438 -2.078125 C 4.832031 -2.445312 4.691406 -2.855469 4.601562 -3.308594 L 4.9375 -3.378906 M 4.492188 -4.535156 L 4.863281 -4.535156 L 4.863281 -3.589844 C 4.863281 -3.335938 4.835938 -3.070312 4.789062 -2.796875 C 4.738281 -2.527344 4.636719 -2.261719 4.484375 -2.007812 C 4.332031 -1.757812 4.09375 -1.519531 3.777344 -1.296875 C 3.742188 -1.339844 3.699219 -1.386719 3.644531 -1.441406 C 3.59375 -1.492188 3.539062 -1.539062 3.488281 -1.570312 C 3.710938 -1.722656 3.886719 -1.878906 4.023438 -2.046875 C 4.15625 -2.214844 4.257812 -2.386719 4.324219 -2.566406 C 4.394531 -2.742188 4.4375 -2.917969 4.460938 -3.09375 C 4.480469 -3.265625 4.492188 -3.433594 4.492188 -3.597656 L 4.492188 -4.535156 M 1.570312 -3.074219 L 3.296875 -3.074219 L 3.296875 -2.792969 L 1.570312 -2.792969 L 1.570312 -3.074219 M 1.800781 -4.199219 L 1.800781 -3.535156 L 3.054688 -3.535156 L 3.054688 -4.199219 L 1.800781 -4.199219 M 1.46875 -4.460938 L 3.40625 -4.460938 L 3.40625 -3.269531 L 1.46875 -3.269531 L 1.46875 -4.460938 M 1.6875 -3.988281 L 2.902344 -3.988281 L 2.902344 -3.746094 L 1.6875 -3.746094 L 1.6875 -3.988281 M 1.359375 -3.074219 L 1.746094 -3.074219 L 1.746094 -1.234375 L 1.359375 -1.234375 L 1.359375 -3.074219 M 1.558594 -2.5625 L 3.285156 -2.5625 L 3.285156 -2.3125 L 1.558594 -2.3125 L 1.558594 -2.5625 M 1.585938 -2.078125 L 3.308594 -2.078125 L 3.308594 -1.820312 L 1.585938 -1.820312 Z "/>
</g>
<g id="glyph-2-4">
<path d="M 1.6875 -2.855469 L 2.011719 -2.972656 C 2.097656 -2.789062 2.179688 -2.585938 2.253906 -2.371094 C 2.332031 -2.152344 2.386719 -1.972656 2.414062 -1.828125 L 2.0625 -1.6875 C 2.046875 -1.789062 2.019531 -1.90625 1.980469 -2.042969 C 1.941406 -2.175781 1.898438 -2.3125 1.847656 -2.457031 C 1.796875 -2.597656 1.742188 -2.734375 1.6875 -2.855469 M 1.164062 -1.207031 L 1.507812 -1.285156 C 1.546875 -1.066406 1.582031 -0.832031 1.613281 -0.578125 C 1.644531 -0.324219 1.664062 -0.105469 1.675781 0.078125 L 1.324219 0.167969 C 1.316406 -0.0195312 1.300781 -0.242188 1.269531 -0.5 C 1.238281 -0.753906 1.203125 -0.992188 1.164062 -1.207031 M 0.5 -1.257812 L 0.867188 -1.1875 C 0.835938 -0.914062 0.789062 -0.640625 0.734375 -0.359375 C 0.679688 -0.078125 0.621094 0.164062 0.554688 0.363281 C 0.515625 0.34375 0.460938 0.316406 0.386719 0.289062 C 0.3125 0.257812 0.25 0.238281 0.203125 0.222656 C 0.277344 0.0273438 0.335938 -0.203125 0.382812 -0.46875 C 0.429688 -0.734375 0.46875 -1 0.5 -1.257812 M 0.359375 -2.976562 C 0.347656 -3.007812 0.335938 -3.046875 0.324219 -3.097656 C 0.308594 -3.148438 0.292969 -3.203125 0.273438 -3.253906 C 0.257812 -3.308594 0.242188 -3.355469 0.222656 -3.394531 C 0.273438 -3.40625 0.328125 -3.441406 0.378906 -3.503906 C 0.433594 -3.566406 0.492188 -3.644531 0.554688 -3.746094 C 0.601562 -3.808594 0.675781 -3.921875 0.769531 -4.089844 C 0.867188 -4.253906 0.96875 -4.453125 1.082031 -4.675781 C 1.195312 -4.902344 1.292969 -5.128906 1.375 -5.359375 L 1.769531 -5.1875 C 1.613281 -4.832031 1.433594 -4.476562 1.238281 -4.128906 C 1.039062 -3.777344 0.835938 -3.476562 0.632812 -3.21875 L 0.632812 -3.214844 C 0.632812 -3.214844 0.617188 -3.207031 0.589844 -3.1875 C 0.5625 -3.171875 0.53125 -3.152344 0.492188 -3.128906 C 0.453125 -3.105469 0.421875 -3.078125 0.394531 -3.050781 C 0.371094 -3.023438 0.359375 -3 0.359375 -2.976562 M 0.359375 -2.976562 L 0.351562 -3.308594 L 0.554688 -3.445312 L 1.640625 -3.539062 C 1.628906 -3.480469 1.621094 -3.417969 1.617188 -3.347656 C 1.613281 -3.28125 1.609375 -3.222656 1.605469 -3.175781 C 1.359375 -3.144531 1.160156 -3.121094 1.007812 -3.101562 C 0.851562 -3.082031 0.730469 -3.066406 0.644531 -3.050781 C 0.558594 -3.035156 0.496094 -3.023438 0.457031 -3.011719 C 0.417969 -3 0.382812 -2.988281 0.359375 -2.976562 M 0.394531 -1.535156 C 0.390625 -1.5625 0.382812 -1.605469 0.363281 -1.65625 C 0.347656 -1.707031 0.332031 -1.757812 0.3125 -1.8125 C 0.296875 -1.863281 0.277344 -1.910156 0.261719 -1.949219 C 0.324219 -1.960938 0.394531 -2.007812 0.464844 -2.085938 C 0.539062 -2.164062 0.621094 -2.265625 0.714844 -2.382812 C 0.765625 -2.441406 0.839844 -2.539062 0.9375 -2.675781 C 1.03125 -2.8125 1.140625 -2.972656 1.257812 -3.160156 C 1.378906 -3.34375 1.5 -3.546875 1.621094 -3.761719 C 1.742188 -3.980469 1.851562 -4.199219 1.957031 -4.421875 L 2.320312 -4.191406 C 2.164062 -3.898438 2 -3.605469 1.816406 -3.316406 C 1.636719 -3.027344 1.449219 -2.75 1.257812 -2.488281 C 1.066406 -2.226562 0.871094 -1.988281 0.671875 -1.769531 L 0.671875 -1.761719 C 0.671875 -1.761719 0.65625 -1.757812 0.632812 -1.742188 C 0.605469 -1.726562 0.574219 -1.707031 0.535156 -1.683594 C 0.5 -1.660156 0.464844 -1.636719 0.4375 -1.609375 C 0.410156 -1.585938 0.394531 -1.558594 0.394531 -1.535156 M 0.394531 -1.535156 L 0.382812 -1.871094 L 0.59375 -2.011719 L 2.203125 -2.242188 C 2.195312 -2.1875 2.191406 -2.125 2.1875 -2.054688 C 2.1875 -1.984375 2.1875 -1.925781 2.191406 -1.886719 C 1.820312 -1.824219 1.523438 -1.777344 1.300781 -1.738281 C 1.078125 -1.699219 0.90625 -1.667969 0.785156 -1.640625 C 0.667969 -1.617188 0.578125 -1.597656 0.523438 -1.582031 C 0.46875 -1.566406 0.425781 -1.550781 0.394531 -1.535156 M 1.851562 -1.339844 L 2.164062 -1.445312 C 2.242188 -1.25 2.316406 -1.035156 2.386719 -0.804688 C 2.457031 -0.574219 2.507812 -0.378906 2.542969 -0.210938 L 2.210938 -0.0898438 C 2.175781 -0.261719 2.125 -0.460938 2.058594 -0.695312 C 1.988281 -0.929688 1.921875 -1.144531 1.851562 -1.339844 M 4.625 -3.480469 L 5.117188 -3.394531 C 5.066406 -3.199219 5.011719 -3.003906 4.957031 -2.804688 C 4.902344 -2.605469 4.851562 -2.433594 4.804688 -2.292969 L 4.410156 -2.382812 C 4.4375 -2.480469 4.46875 -2.59375 4.496094 -2.726562 C 4.523438 -2.855469 4.550781 -2.988281 4.574219 -3.121094 C 4.601562 -3.253906 4.617188 -3.375 4.625 -3.480469 M 2.480469 -4.746094 L 6.023438 -4.746094 L 6.023438 -3.78125 L 5.578125 -3.78125 L 5.578125 -4.339844 L 2.917969 -4.339844 L 2.917969 -3.691406 L 2.480469 -3.691406 L 2.480469 -4.746094 M 3.214844 -3.910156 L 3.640625 -3.808594 C 3.570312 -3.535156 3.480469 -3.253906 3.375 -2.960938 C 3.273438 -2.667969 3.152344 -2.386719 3.011719 -2.113281 C 2.875 -1.835938 2.71875 -1.59375 2.542969 -1.386719 C 2.511719 -1.433594 2.472656 -1.488281 2.421875 -1.550781 C 2.371094 -1.617188 2.324219 -1.667969 2.289062 -1.707031 C 2.441406 -1.902344 2.578125 -2.125 2.695312 -2.375 C 2.816406 -2.628906 2.917969 -2.886719 3.007812 -3.152344 C 3.09375 -3.417969 3.164062 -3.671875 3.214844 -3.910156 M 3.636719 -3.621094 L 6.050781 -3.621094 L 6.050781 -3.226562 L 3.636719 -3.226562 L 3.636719 -3.621094 M 3.992188 -1.410156 L 5.699219 -1.410156 L 5.699219 -1.023438 L 3.992188 -1.023438 L 3.992188 -1.410156 M 3.769531 -2.582031 L 5.929688 -2.582031 L 5.929688 0.472656 L 5.5 0.472656 L 5.5 -2.183594 L 4.183594 -2.183594 L 4.183594 0.503906 L 3.769531 0.503906 L 3.769531 -2.582031 M 2.863281 -2.515625 L 3.246094 -2.902344 L 3.265625 -2.886719 L 3.265625 0.503906 L 2.863281 0.503906 L 2.863281 -2.515625 M 3.839844 -5.226562 L 4.21875 -5.398438 C 4.296875 -5.289062 4.375 -5.167969 4.445312 -5.035156 C 4.519531 -4.902344 4.574219 -4.785156 4.605469 -4.683594 L 4.199219 -4.492188 C 4.167969 -4.59375 4.117188 -4.714844 4.050781 -4.851562 C 3.984375 -4.992188 3.914062 -5.117188 3.839844 -5.226562 M 4.011719 -0.183594 L 5.699219 -0.183594 L 5.699219 0.203125 L 4.011719 0.203125 Z "/>
</g>
<g id="glyph-2-5">
<path d="M 1.09375 -2.972656 L 2.675781 -2.972656 L 2.675781 -2.523438 L 1.09375 -2.523438 L 1.09375 -2.972656 M 2.492188 -2.972656 L 2.957031 -2.972656 C 2.957031 -2.972656 2.957031 -2.960938 2.957031 -2.9375 C 2.957031 -2.914062 2.957031 -2.882812 2.953125 -2.851562 C 2.953125 -2.816406 2.953125 -2.789062 2.953125 -2.765625 C 2.941406 -2.289062 2.929688 -1.902344 2.917969 -1.605469 C 2.902344 -1.3125 2.882812 -1.085938 2.859375 -0.933594 C 2.835938 -0.78125 2.800781 -0.671875 2.753906 -0.613281 C 2.703125 -0.554688 2.648438 -0.511719 2.589844 -0.484375 C 2.535156 -0.460938 2.460938 -0.441406 2.371094 -0.429688 C 2.285156 -0.417969 2.175781 -0.417969 2.039062 -0.417969 C 1.902344 -0.421875 1.753906 -0.425781 1.597656 -0.433594 C 1.59375 -0.503906 1.578125 -0.578125 1.554688 -0.660156 C 1.53125 -0.746094 1.5 -0.816406 1.464844 -0.882812 C 1.609375 -0.863281 1.746094 -0.855469 1.871094 -0.851562 C 2 -0.851562 2.089844 -0.851562 2.140625 -0.851562 C 2.1875 -0.851562 2.226562 -0.855469 2.257812 -0.863281 C 2.289062 -0.871094 2.320312 -0.890625 2.34375 -0.921875 C 2.375 -0.957031 2.398438 -1.042969 2.417969 -1.179688 C 2.4375 -1.3125 2.453125 -1.515625 2.464844 -1.792969 C 2.472656 -2.066406 2.484375 -2.433594 2.492188 -2.894531 L 2.492188 -2.972656 M 4.289062 -5.046875 L 4.574219 -5.339844 C 4.710938 -5.277344 4.851562 -5.203125 5 -5.113281 C 5.148438 -5.027344 5.285156 -4.941406 5.410156 -4.851562 C 5.539062 -4.765625 5.644531 -4.683594 5.730469 -4.613281 L 5.429688 -4.28125 C 5.351562 -4.359375 5.246094 -4.441406 5.117188 -4.535156 C 4.988281 -4.625 4.855469 -4.714844 4.707031 -4.804688 C 4.5625 -4.894531 4.421875 -4.976562 4.289062 -5.046875 M 5.207031 -3.316406 L 5.6875 -3.195312 C 5.414062 -2.359375 5.042969 -1.636719 4.570312 -1.023438 C 4.09375 -0.410156 3.535156 0.0898438 2.882812 0.480469 C 2.855469 0.445312 2.820312 0.402344 2.78125 0.355469 C 2.738281 0.304688 2.691406 0.257812 2.648438 0.207031 C 2.605469 0.160156 2.5625 0.117188 2.53125 0.0820312 C 3.175781 -0.257812 3.726562 -0.714844 4.171875 -1.292969 C 4.621094 -1.871094 4.964844 -2.546875 5.207031 -3.316406 M 1.132812 -4.28125 L 6.078125 -4.28125 L 6.078125 -3.8125 L 1.132812 -3.8125 L 1.132812 -4.28125 M 0.816406 -4.28125 L 1.316406 -4.28125 L 1.316406 -2.480469 C 1.316406 -2.253906 1.308594 -2.007812 1.289062 -1.746094 C 1.273438 -1.480469 1.242188 -1.210938 1.195312 -0.9375 C 1.148438 -0.667969 1.078125 -0.402344 0.992188 -0.144531 C 0.902344 0.113281 0.78125 0.347656 0.632812 0.554688 C 0.605469 0.523438 0.570312 0.484375 0.519531 0.441406 C 0.472656 0.398438 0.421875 0.359375 0.367188 0.320312 C 0.3125 0.28125 0.269531 0.253906 0.230469 0.238281 C 0.410156 -0.0273438 0.539062 -0.316406 0.621094 -0.632812 C 0.707031 -0.949219 0.757812 -1.265625 0.78125 -1.585938 C 0.804688 -1.910156 0.816406 -2.207031 0.816406 -2.484375 L 0.816406 -4.28125 M 3.476562 -5.359375 L 3.972656 -5.359375 C 3.96875 -4.769531 3.992188 -4.207031 4.039062 -3.675781 C 4.085938 -3.140625 4.152344 -2.652344 4.234375 -2.207031 C 4.320312 -1.761719 4.425781 -1.375 4.546875 -1.050781 C 4.667969 -0.726562 4.800781 -0.472656 4.949219 -0.292969 C 5.09375 -0.113281 5.25 -0.0273438 5.410156 -0.0273438 C 5.503906 -0.0273438 5.574219 -0.117188 5.621094 -0.296875 C 5.664062 -0.476562 5.695312 -0.78125 5.710938 -1.207031 C 5.765625 -1.15625 5.835938 -1.105469 5.914062 -1.054688 C 5.992188 -1.003906 6.0625 -0.96875 6.128906 -0.945312 C 6.097656 -0.578125 6.054688 -0.292969 6.003906 -0.0898438 C 5.949219 0.113281 5.871094 0.257812 5.773438 0.34375 C 5.671875 0.425781 5.539062 0.464844 5.375 0.464844 C 5.160156 0.464844 4.964844 0.394531 4.785156 0.25 C 4.605469 0.105469 4.449219 -0.101562 4.308594 -0.363281 C 4.171875 -0.628906 4.050781 -0.941406 3.949219 -1.300781 C 3.847656 -1.660156 3.761719 -2.058594 3.691406 -2.492188 C 3.621094 -2.925781 3.566406 -3.386719 3.535156 -3.867188 C 3.5 -4.351562 3.480469 -4.847656 3.476562 -5.359375 Z "/>
</g>
<g id="glyph-2-6">
<path d="M 2.945312 -5.359375 L 3.4375 -5.359375 L 3.4375 -2.113281 C 3.4375 -1.964844 3.417969 -1.851562 3.375 -1.773438 C 3.335938 -1.695312 3.261719 -1.636719 3.148438 -1.597656 C 3.042969 -1.558594 2.902344 -1.535156 2.722656 -1.523438 C 2.542969 -1.511719 2.320312 -1.507812 2.050781 -1.507812 C 2.042969 -1.574219 2.019531 -1.65625 1.988281 -1.75 C 1.953125 -1.84375 1.914062 -1.925781 1.871094 -1.992188 C 2.015625 -1.992188 2.152344 -1.992188 2.277344 -1.992188 C 2.402344 -1.992188 2.511719 -1.992188 2.605469 -1.992188 C 2.699219 -1.992188 2.765625 -1.992188 2.804688 -1.992188 C 2.859375 -1.992188 2.898438 -2.003906 2.917969 -2.019531 C 2.9375 -2.035156 2.945312 -2.070312 2.945312 -2.121094 L 2.945312 -5.359375 M 4.332031 -4.394531 L 4.765625 -4.621094 C 4.953125 -4.40625 5.140625 -4.175781 5.324219 -3.921875 C 5.503906 -3.671875 5.671875 -3.421875 5.820312 -3.175781 C 5.96875 -2.929688 6.085938 -2.707031 6.164062 -2.511719 L 5.6875 -2.25 C 5.613281 -2.445312 5.503906 -2.667969 5.359375 -2.917969 C 5.214844 -3.164062 5.054688 -3.421875 4.875 -3.679688 C 4.695312 -3.941406 4.515625 -4.179688 4.332031 -4.394531 M 4.753906 -2.652344 L 5.253906 -2.5 C 5.101562 -2.046875 4.90625 -1.652344 4.664062 -1.316406 C 4.421875 -0.980469 4.125 -0.691406 3.777344 -0.445312 C 3.433594 -0.203125 3.027344 -0.00390625 2.5625 0.152344 C 2.097656 0.3125 1.570312 0.433594 0.976562 0.523438 C 0.957031 0.453125 0.921875 0.371094 0.871094 0.28125 C 0.824219 0.191406 0.773438 0.113281 0.722656 0.0507812 C 1.289062 -0.0195312 1.792969 -0.125 2.230469 -0.265625 C 2.667969 -0.402344 3.050781 -0.582031 3.378906 -0.796875 C 3.707031 -1.011719 3.984375 -1.269531 4.210938 -1.578125 C 4.4375 -1.886719 4.617188 -2.242188 4.753906 -2.652344 M 1.535156 -4.554688 L 2.058594 -4.429688 C 1.957031 -4.171875 1.832031 -3.90625 1.6875 -3.632812 C 1.542969 -3.359375 1.382812 -3.09375 1.214844 -2.839844 C 1.042969 -2.585938 0.863281 -2.363281 0.671875 -2.171875 C 0.632812 -2.203125 0.589844 -2.234375 0.539062 -2.269531 C 0.492188 -2.308594 0.441406 -2.34375 0.386719 -2.375 C 0.332031 -2.410156 0.285156 -2.4375 0.242188 -2.460938 C 0.429688 -2.640625 0.605469 -2.847656 0.773438 -3.082031 C 0.9375 -3.320312 1.085938 -3.566406 1.21875 -3.820312 C 1.347656 -4.078125 1.453125 -4.320312 1.535156 -4.554688 Z "/>
</g>
<g id="glyph-2-7">
<path d="M 1.589844 -4.25 L 1.597656 -3.898438 L 4.777344 -3.890625 L 4.773438 -4.25 L 1.589844 -4.25 M 1.589844 -4.875 L 1.597656 -4.53125 L 4.777344 -4.523438 L 4.773438 -4.875 L 1.589844 -4.875 M 1.136719 -5.15625 L 5.253906 -5.164062 L 5.253906 -3.605469 L 1.132812 -3.609375 L 1.136719 -5.15625 M 1.46875 -1.746094 L 1.46875 -1.375 L 4.972656 -1.375 L 4.964844 -1.746094 L 1.46875 -1.746094 M 1.46875 -2.390625 L 1.46875 -2.027344 L 4.972656 -2.027344 L 4.964844 -2.382812 L 1.46875 -2.390625 M 1.023438 -2.683594 L 5.4375 -2.683594 L 5.445312 -1.085938 L 1.015625 -1.078125 L 1.023438 -2.683594 M 2.953125 -2.574219 L 3.417969 -2.574219 L 3.417969 0.179688 L 2.953125 0.171875 L 2.953125 -2.574219 M 0.339844 -3.335938 L 6.0625 -3.335938 L 6.0625 -2.972656 L 0.332031 -2.972656 L 0.339844 -3.335938 M 0.835938 -0.726562 L 5.578125 -0.726562 L 5.585938 -0.394531 L 0.835938 -0.390625 L 0.835938 -0.726562 M 0.300781 -0.0195312 L 6.101562 -0.0195312 L 6.09375 0.351562 L 0.300781 0.351562 Z "/>
</g>
<g id="glyph-3-0">
<path d="M 1.023438 0 L 0.4375 0 L 0.4375 -3.484375 L 1.023438 -3.484375 L 1.023438 0 M 1.0625 -4.066406 L 0.394531 -4.066406 L 0.394531 -4.675781 L 1.0625 -4.675781 Z "/>
</g>
<g id="glyph-3-1">
<path d="M 4.378906 0 L 4.378906 -2.015625 C 4.378906 -2.175781 4.375 -2.324219 4.363281 -2.460938 C 4.347656 -2.597656 4.324219 -2.703125 4.285156 -2.78125 C 4.242188 -2.863281 4.183594 -2.925781 4.105469 -2.964844 C 4.027344 -3.003906 3.925781 -3.023438 3.792969 -3.023438 C 3.671875 -3.023438 3.542969 -2.984375 3.40625 -2.914062 C 3.265625 -2.839844 3.125 -2.730469 2.976562 -2.59375 C 2.976562 -2.558594 2.980469 -2.515625 2.984375 -2.464844 C 2.988281 -2.417969 2.988281 -2.359375 2.988281 -2.292969 L 2.988281 0 L 2.402344 0 L 2.402344 -2.015625 C 2.402344 -2.175781 2.394531 -2.324219 2.382812 -2.460938 C 2.371094 -2.597656 2.34375 -2.703125 2.304688 -2.78125 C 2.265625 -2.863281 2.203125 -2.925781 2.128906 -2.964844 C 2.050781 -3.003906 1.945312 -3.023438 1.816406 -3.023438 C 1.6875 -3.023438 1.554688 -2.984375 1.417969 -2.90625 C 1.277344 -2.824219 1.140625 -2.726562 1.011719 -2.601562 L 1.011719 0 L 0.425781 0 L 0.425781 -3.484375 L 1.011719 -3.484375 L 1.011719 -3.097656 C 1.164062 -3.25 1.316406 -3.371094 1.46875 -3.457031 C 1.617188 -3.539062 1.785156 -3.582031 1.964844 -3.582031 C 2.171875 -3.582031 2.355469 -3.535156 2.511719 -3.441406 C 2.671875 -3.347656 2.792969 -3.195312 2.875 -2.980469 C 3.054688 -3.175781 3.226562 -3.328125 3.394531 -3.429688 C 3.5625 -3.53125 3.746094 -3.582031 3.945312 -3.582031 C 4.09375 -3.582031 4.230469 -3.558594 4.351562 -3.511719 C 4.476562 -3.464844 4.582031 -3.390625 4.671875 -3.285156 C 4.765625 -3.179688 4.839844 -3.046875 4.890625 -2.890625 C 4.941406 -2.730469 4.964844 -2.53125 4.964844 -2.292969 L 4.964844 0 Z "/>
</g>
<g id="glyph-3-2">
<path d="M 3.347656 -1.835938 C 3.347656 -1.253906 3.207031 -0.792969 2.929688 -0.449219 C 2.652344 -0.101562 2.300781 0.0703125 1.878906 0.0703125 C 1.707031 0.0703125 1.550781 0.0507812 1.417969 0.0078125 C 1.285156 -0.03125 1.148438 -0.0898438 1.011719 -0.175781 L 1.011719 1.285156 L 0.425781 1.285156 L 0.425781 -3.484375 L 1.011719 -3.484375 L 1.011719 -3.121094 C 1.15625 -3.25 1.316406 -3.359375 1.496094 -3.449219 C 1.671875 -3.539062 1.867188 -3.582031 2.078125 -3.582031 C 2.476562 -3.582031 2.789062 -3.421875 3.011719 -3.105469 C 3.234375 -2.792969 3.347656 -2.367188 3.347656 -1.835938 M 2.742188 -1.769531 C 2.742188 -2.167969 2.679688 -2.472656 2.550781 -2.695312 C 2.425781 -2.914062 2.21875 -3.023438 1.933594 -3.023438 C 1.769531 -3.023438 1.605469 -2.984375 1.453125 -2.914062 C 1.296875 -2.839844 1.148438 -2.742188 1.011719 -2.625 L 1.011719 -0.652344 C 1.164062 -0.578125 1.296875 -0.527344 1.40625 -0.5 C 1.515625 -0.472656 1.640625 -0.457031 1.78125 -0.457031 C 2.085938 -0.457031 2.320312 -0.570312 2.488281 -0.792969 C 2.65625 -1.015625 2.742188 -1.339844 2.742188 -1.769531 Z "/>
</g>
<g id="glyph-3-3">
<path d="M 1.023438 0 L 0.4375 0 L 0.4375 -4.855469 L 1.023438 -4.855469 Z "/>
</g>
<g id="glyph-3-4">
<path d="M 1.808594 0.078125 C 1.570312 0.078125 1.351562 0.0429688 1.152344 -0.03125 C 0.953125 -0.105469 0.78125 -0.21875 0.636719 -0.367188 C 0.492188 -0.519531 0.382812 -0.707031 0.300781 -0.933594 C 0.222656 -1.164062 0.183594 -1.429688 0.183594 -1.738281 C 0.183594 -2.042969 0.226562 -2.308594 0.308594 -2.53125 C 0.390625 -2.753906 0.5 -2.941406 0.636719 -3.089844 C 0.773438 -3.242188 0.945312 -3.359375 1.148438 -3.441406 C 1.355469 -3.523438 1.574219 -3.566406 1.808594 -3.566406 C 2 -3.566406 2.183594 -3.539062 2.363281 -3.484375 C 2.542969 -3.429688 2.699219 -3.367188 2.839844 -3.296875 L 2.839844 -2.640625 L 2.804688 -2.640625 C 2.761719 -2.675781 2.710938 -2.714844 2.644531 -2.761719 C 2.578125 -2.808594 2.5 -2.855469 2.40625 -2.902344 C 2.324219 -2.941406 2.230469 -2.980469 2.117188 -3.011719 C 2.007812 -3.042969 1.902344 -3.058594 1.800781 -3.058594 C 1.496094 -3.058594 1.253906 -2.941406 1.070312 -2.710938 C 0.882812 -2.484375 0.792969 -2.15625 0.792969 -1.738281 C 0.792969 -1.324219 0.882812 -1.003906 1.058594 -0.773438 C 1.238281 -0.546875 1.484375 -0.429688 1.800781 -0.429688 C 1.992188 -0.429688 2.171875 -0.46875 2.347656 -0.550781 C 2.519531 -0.628906 2.671875 -0.730469 2.804688 -0.855469 L 2.839844 -0.855469 L 2.839844 -0.195312 C 2.78125 -0.167969 2.707031 -0.136719 2.621094 -0.0976562 C 2.535156 -0.0585938 2.453125 -0.03125 2.382812 -0.0117188 C 2.285156 0.015625 2.195312 0.0390625 2.113281 0.0546875 C 2.035156 0.0703125 1.933594 0.078125 1.808594 0.078125 Z "/>
</g>
<g id="glyph-3-5">
<path d="M 2.371094 -0.859375 L 2.371094 -1.824219 C 2.230469 -1.8125 2.054688 -1.796875 1.84375 -1.773438 C 1.628906 -1.75 1.457031 -1.722656 1.324219 -1.679688 C 1.167969 -1.632812 1.039062 -1.558594 0.9375 -1.460938 C 0.835938 -1.363281 0.785156 -1.226562 0.785156 -1.046875 C 0.785156 -0.847656 0.84375 -0.699219 0.953125 -0.597656 C 1.066406 -0.492188 1.230469 -0.441406 1.449219 -0.441406 C 1.632812 -0.441406 1.800781 -0.484375 1.949219 -0.5625 C 2.101562 -0.644531 2.238281 -0.742188 2.371094 -0.859375 M 2.371094 -0.371094 C 2.324219 -0.335938 2.257812 -0.285156 2.179688 -0.222656 C 2.097656 -0.160156 2.023438 -0.109375 1.945312 -0.0703125 C 1.84375 -0.0195312 1.742188 0.0234375 1.644531 0.0546875 C 1.550781 0.0820312 1.414062 0.0976562 1.238281 0.0976562 C 1.09375 0.0976562 0.957031 0.0703125 0.828125 0.015625 C 0.699219 -0.0390625 0.585938 -0.113281 0.488281 -0.210938 C 0.394531 -0.308594 0.320312 -0.425781 0.265625 -0.566406 C 0.210938 -0.707031 0.179688 -0.855469 0.179688 -1.011719 C 0.179688 -1.253906 0.230469 -1.457031 0.332031 -1.628906 C 0.4375 -1.796875 0.597656 -1.929688 0.816406 -2.03125 C 1.011719 -2.121094 1.242188 -2.183594 1.511719 -2.214844 C 1.777344 -2.25 2.0625 -2.277344 2.371094 -2.292969 L 2.371094 -2.40625 C 2.371094 -2.542969 2.351562 -2.652344 2.308594 -2.738281 C 2.265625 -2.820312 2.207031 -2.886719 2.132812 -2.933594 C 2.058594 -2.980469 1.96875 -3.011719 1.859375 -3.027344 C 1.75 -3.042969 1.640625 -3.050781 1.527344 -3.050781 C 1.390625 -3.050781 1.230469 -3.03125 1.046875 -2.992188 C 0.863281 -2.949219 0.683594 -2.890625 0.5 -2.8125 L 0.464844 -2.8125 L 0.464844 -3.410156 C 0.574219 -3.441406 0.726562 -3.476562 0.929688 -3.511719 C 1.132812 -3.550781 1.332031 -3.570312 1.527344 -3.570312 C 1.769531 -3.570312 1.96875 -3.550781 2.132812 -3.511719 C 2.296875 -3.476562 2.445312 -3.40625 2.578125 -3.308594 C 2.703125 -3.214844 2.796875 -3.089844 2.859375 -2.9375 C 2.921875 -2.785156 2.953125 -2.601562 2.953125 -2.382812 L 2.953125 0 L 2.371094 0 Z "/>
</g>
<g id="glyph-3-6">
<path d="M 3.164062 0 L 2.578125 0 L 2.578125 -1.984375 C 2.578125 -2.144531 2.570312 -2.292969 2.554688 -2.433594 C 2.539062 -2.570312 2.507812 -2.679688 2.464844 -2.765625 C 2.417969 -2.851562 2.351562 -2.917969 2.265625 -2.960938 C 2.179688 -3 2.0625 -3.023438 1.914062 -3.023438 C 1.769531 -3.023438 1.621094 -2.984375 1.464844 -2.90625 C 1.308594 -2.828125 1.160156 -2.726562 1.011719 -2.601562 L 1.011719 0 L 0.425781 0 L 0.425781 -3.484375 L 1.011719 -3.484375 L 1.011719 -3.097656 C 1.183594 -3.253906 1.359375 -3.375 1.527344 -3.457031 C 1.699219 -3.539062 1.878906 -3.582031 2.070312 -3.582031 C 2.410156 -3.582031 2.679688 -3.46875 2.875 -3.242188 C 3.066406 -3.015625 3.164062 -2.691406 3.164062 -2.261719 Z "/>
</g>
<g id="glyph-3-7">
<path d="M 1.480469 0.0703125 C 1.160156 0.0703125 0.910156 -0.0234375 0.730469 -0.203125 C 0.550781 -0.386719 0.460938 -0.675781 0.460938 -1.066406 L 0.460938 -3 L 0.0664062 -3 L 0.0664062 -3.484375 L 0.460938 -3.484375 L 0.460938 -4.484375 L 1.046875 -4.484375 L 1.046875 -3.484375 L 2.128906 -3.484375 L 2.128906 -3 L 1.046875 -3 L 1.046875 -1.339844 C 1.046875 -1.164062 1.050781 -1.027344 1.058594 -0.933594 C 1.0625 -0.835938 1.085938 -0.746094 1.128906 -0.664062 C 1.164062 -0.589844 1.222656 -0.539062 1.300781 -0.5 C 1.378906 -0.464844 1.488281 -0.445312 1.621094 -0.445312 C 1.71875 -0.445312 1.808594 -0.460938 1.898438 -0.488281 C 1.988281 -0.515625 2.054688 -0.539062 2.09375 -0.558594 L 2.128906 -0.558594 L 2.128906 -0.03125 C 2.015625 0 1.90625 0.0234375 1.792969 0.0429688 C 1.679688 0.0585938 1.574219 0.0703125 1.480469 0.0703125 Z "/>
</g>
<g id="glyph-4-0">
<path d="M 3.214844 -3.394531 C 3.398438 -3.394531 3.5625 -3.347656 3.707031 -3.261719 C 3.851562 -3.175781 3.964844 -3.058594 4.054688 -2.910156 C 4.140625 -2.761719 4.183594 -2.601562 4.183594 -2.421875 C 4.183594 -2.246094 4.140625 -2.085938 4.054688 -1.9375 C 3.964844 -1.785156 3.847656 -1.667969 3.703125 -1.582031 C 3.554688 -1.492188 3.394531 -1.449219 3.214844 -1.449219 C 3.035156 -1.449219 2.871094 -1.492188 2.726562 -1.582031 C 2.578125 -1.667969 2.460938 -1.785156 2.375 -1.9375 C 2.285156 -2.085938 2.242188 -2.246094 2.242188 -2.421875 C 2.242188 -2.601562 2.285156 -2.761719 2.375 -2.910156 C 2.460938 -3.058594 2.578125 -3.175781 2.726562 -3.261719 C 2.878906 -3.347656 3.039062 -3.394531 3.214844 -3.394531 M 3.214844 -1.769531 C 3.394531 -1.773438 3.546875 -1.839844 3.675781 -1.960938 C 3.800781 -2.085938 3.867188 -2.238281 3.867188 -2.421875 C 3.859375 -2.539062 3.832031 -2.648438 3.773438 -2.746094 C 3.714844 -2.84375 3.636719 -2.921875 3.539062 -2.980469 C 3.441406 -3.039062 3.332031 -3.070312 3.214844 -3.074219 C 3.097656 -3.070312 2.992188 -3.039062 2.894531 -2.980469 C 2.796875 -2.921875 2.714844 -2.84375 2.65625 -2.746094 C 2.59375 -2.648438 2.5625 -2.539062 2.5625 -2.421875 C 2.566406 -2.300781 2.597656 -2.195312 2.65625 -2.09375 C 2.71875 -1.996094 2.796875 -1.917969 2.890625 -1.859375 C 2.988281 -1.800781 3.09375 -1.769531 3.214844 -1.769531 Z "/>
</g>
</g>
</defs>
<g fill="rgb(86.666667%, 86.666667%, 86.666667%)" fill-opacity="1">
<use xlink:href="#glyph-0-0" x="30" y="26.388672"/>
<use xlink:href="#glyph-0-1" x="36" y="26.388672"/>
<use xlink:href="#glyph-0-2" x="42" y="26.388672"/>
</g>
<g fill="rgb(86.666667%, 86.666667%, 86.666667%)" fill-opacity="1">
<use xlink:href="#glyph-1-0" x="43" y="26.391602"/>
<use xlink:href="#glyph-1-1" x="48" y="26.391602"/>
<use xlink:href="#glyph-1-2" x="49" y="26.391602"/>
<use xlink:href="#glyph-1-3" x="53" y="26.391602"/>
<use xlink:href="#glyph-1-4" x="55" y="26.391602"/>
<use xlink:href="#glyph-1-5" x="58" y="26.391602"/>
<use xlink:href="#glyph-1-0" x="60" y="26.391602"/>
</g>
<g fill="rgb(86.666667%, 86.666667%, 86.666667%)" fill-opacity="1">
<use xlink:href="#glyph-2-0" x="65" y="26.388672"/>
<use xlink:href="#glyph-2-1" x="66" y="26.388672"/>
<use xlink:href="#glyph-2-2" x="72" y="26.388672"/>
<use xlink:href="#glyph-2-3" x="78" y="26.388672"/>
<use xlink:href="#glyph-2-4" x="84" y="26.388672"/>
<use xlink:href="#glyph-2-5" x="90" y="26.388672"/>
<use xlink:href="#glyph-2-6" x="96" y="26.388672"/>
<use xlink:href="#glyph-2-7" x="102" y="26.388672"/>
<use xlink:href="#glyph-2-0" x="108" y="26.388672"/>
</g>
<g fill="rgb(86.666667%, 86.666667%, 86.666667%)" fill-opacity="1">
<use xlink:href="#glyph-3-0" x="109" y="26.391602"/>
<use xlink:href="#glyph-3-1" x="110" y="26.391602"/>
<use xlink:href="#glyph-3-2" x="115" y="26.391602"/>
<use xlink:href="#glyph-3-3" x="119" y="26.391602"/>
<use xlink:href="#glyph-3-0" x="120.00293" y="26.391602"/>
<use xlink:href="#glyph-3-4" x="121" y="26.391602"/>
<use xlink:href="#glyph-3-5" x="124" y="26.391602"/>
<use xlink:href="#glyph-3-6" x="127" y="26.391602"/>
<use xlink:href="#glyph-3-7" x="131" y="26.391602"/>
</g>
<g fill="rgb(86.666667%, 86.666667%, 86.666667%)" fill-opacity="1">
<use xlink:href="#glyph-4-0" x="133" y="26.388672"/>
</g>
</svg>
