<?xml version="1.0" encoding="UTF-8"?>
<svg xmlns="http://www.w3.org/2000/svg" xmlns:xlink="http://www.w3.org/1999/xlink" width="1920" height="1080" viewBox="0 0 1920 1080">
<defs>
<g>
<g id="glyph-0-0">
<path d="M 5.964844 -8.347656 L 2.316406 -8.347656 L 2.316406 -5.117188 L 5.691406 -5.117188 L 5.691406 -4.132812 L 2.316406 -4.132812 L 2.316406 0 L 1.222656 0 L 1.222656 -9.335938 L 5.964844 -9.335938 Z "/>
</g>
<g id="glyph-0-1">
<path d="M 2.316406 -3.527344 L 2.316406 0 L 1.222656 0 L 1.222656 -9.335938 L 3.789062 -9.335938 C 4.789062 -9.335938 5.5625 -9.09375 6.109375 -8.605469 C 6.660156 -8.121094 6.933594 -7.433594 6.933594 -6.550781 C 6.933594 -5.664062 6.628906 -4.9375 6.019531 -4.375 C 5.410156 -3.8125 4.585938 -3.527344 3.546875 -3.527344 L 2.316406 -3.527344 M 2.316406 -8.347656 L 2.316406 -4.519531 L 3.464844 -4.519531 C 4.21875 -4.519531 4.796875 -4.691406 5.191406 -5.035156 C 5.589844 -5.378906 5.789062 -5.867188 5.789062 -6.496094 C 5.789062 -7.730469 5.058594 -8.347656 3.601562 -8.347656 Z "/>
</g>
<g id="glyph-0-2">
<path d="M 8.203125 -0.636719 C 7.265625 -0.109375 6.222656 0.15625 5.078125 0.15625 C 3.746094 0.15625 2.667969 -0.273438 1.84375 -1.132812 C 1.023438 -1.992188 0.613281 -3.128906 0.613281 -4.542969 C 0.613281 -5.988281 1.070312 -7.175781 1.980469 -8.101562 C 2.894531 -9.027344 4.054688 -9.492188 5.457031 -9.492188 C 6.472656 -9.492188 7.324219 -9.328125 8.015625 -8.996094 L 8.015625 -7.785156 C 7.257812 -8.265625 6.363281 -8.503906 5.332031 -8.503906 C 4.285156 -8.503906 3.429688 -8.140625 2.761719 -7.421875 C 2.09375 -6.703125 1.757812 -5.769531 1.757812 -4.621094 C 1.757812 -3.441406 2.066406 -2.515625 2.6875 -1.839844 C 3.308594 -1.164062 4.152344 -0.828125 5.214844 -0.828125 C 5.945312 -0.828125 6.574219 -0.972656 7.109375 -1.261719 L 7.109375 -3.878906 L 5.066406 -3.878906 L 5.066406 -4.871094 L 8.203125 -4.871094 Z "/>
</g>
<g id="glyph-0-3">
<path d="M 8.449219 0 L 7.238281 0 L 6.25 -2.617188 L 2.292969 -2.617188 L 1.359375 0 L 0.144531 0 L 3.722656 -9.335938 L 4.855469 -9.335938 L 8.449219 0 M 5.890625 -3.601562 L 4.425781 -7.578125 C 4.378906 -7.707031 4.332031 -7.917969 4.285156 -8.203125 L 4.257812 -8.203125 C 4.214844 -7.9375 4.164062 -7.730469 4.109375 -7.578125 L 2.65625 -3.601562 Z "/>
</g>
</g>
</defs>
<g fill="rgb(100%, 100%, 100%)" fill-opacity="1">
<use xlink:href="#glyph-0-0" x="30" y="34.387695"/>
<use xlink:href="#glyph-0-1" x="37" y="34.387695"/>
<use xlink:href="#glyph-0-2" x="44" y="34.387695"/>
<use xlink:href="#glyph-0-3" x="53" y="34.387695"/>
</g>
</svg>
