<?xml version="1.0" encoding="UTF-8"?>
<svg xmlns="http://www.w3.org/2000/svg" xmlns:xlink="http://www.w3.org/1999/xlink" width="1920" height="1080" viewBox="0 0 1920 1080">
<defs>
<g>
<g id="glyph-0-0">
<path d="M 7.492188 -8.546875 L 2.589844 -8.546875 L 2.589844 -5.8125 L 6.804688 -5.8125 L 6.804688 -4.667969 L 2.589844 -4.667969 L 2.589844 0 L 1.300781 0 L 1.300781 -9.695312 L 7.492188 -9.695312 Z "/>
</g>
<g id="glyph-0-1">
<path d="M 7.644531 -6.765625 C 7.644531 -6.335938 7.566406 -5.9375 7.417969 -5.570312 C 7.269531 -5.203125 7.058594 -4.886719 6.789062 -4.617188 C 6.457031 -4.28125 6.0625 -4.03125 5.605469 -3.863281 C 5.148438 -3.695312 4.574219 -3.613281 3.878906 -3.613281 L 2.589844 -3.613281 L 2.589844 0 L 1.300781 0 L 1.300781 -9.695312 L 3.933594 -9.695312 C 4.515625 -9.695312 5.007812 -9.644531 5.410156 -9.546875 C 5.8125 -9.449219 6.171875 -9.296875 6.484375 -9.089844 C 6.851562 -8.839844 7.136719 -8.53125 7.339844 -8.164062 C 7.542969 -7.796875 7.644531 -7.328125 7.644531 -6.765625 M 6.300781 -6.730469 C 6.300781 -7.066406 6.242188 -7.355469 6.125 -7.605469 C 6.007812 -7.851562 5.832031 -8.054688 5.59375 -8.210938 C 5.382812 -8.34375 5.144531 -8.441406 4.878906 -8.5 C 4.613281 -8.558594 4.273438 -8.585938 3.867188 -8.585938 L 2.589844 -8.585938 L 2.589844 -4.714844 L 3.679688 -4.714844 C 4.199219 -4.714844 4.621094 -4.761719 4.949219 -4.851562 C 5.273438 -4.945312 5.539062 -5.09375 5.742188 -5.300781 C 5.945312 -5.507812 6.089844 -5.726562 6.175781 -5.957031 C 6.257812 -6.1875 6.300781 -6.445312 6.300781 -6.730469 Z "/>
</g>
<g id="glyph-0-2">
<path d="M 9.386719 -0.714844 C 8.859375 -0.472656 8.28125 -0.261719 7.652344 -0.0820312 C 7.027344 0.0976562 6.417969 0.1875 5.832031 0.1875 C 5.078125 0.1875 4.386719 0.0859375 3.757812 -0.125 C 3.128906 -0.332031 2.589844 -0.644531 2.148438 -1.0625 C 1.703125 -1.480469 1.355469 -2.007812 1.113281 -2.640625 C 0.871094 -3.269531 0.75 -4.011719 0.75 -4.855469 C 0.75 -6.40625 1.203125 -7.628906 2.105469 -8.523438 C 3.011719 -9.421875 4.253906 -9.871094 5.832031 -9.871094 C 6.382812 -9.871094 6.949219 -9.804688 7.523438 -9.671875 C 8.097656 -9.539062 8.71875 -9.3125 9.382812 -8.996094 L 9.382812 -7.46875 L 9.265625 -7.46875 C 9.128906 -7.570312 8.933594 -7.707031 8.679688 -7.878906 C 8.421875 -8.046875 8.171875 -8.1875 7.921875 -8.300781 C 7.625 -8.433594 7.285156 -8.546875 6.902344 -8.636719 C 6.523438 -8.726562 6.09375 -8.769531 5.613281 -8.769531 C 4.527344 -8.769531 3.667969 -8.421875 3.035156 -7.722656 C 2.40625 -7.027344 2.089844 -6.085938 2.089844 -4.894531 C 2.089844 -3.640625 2.417969 -2.664062 3.078125 -1.96875 C 3.738281 -1.273438 4.636719 -0.925781 5.773438 -0.925781 C 6.191406 -0.925781 6.605469 -0.964844 7.019531 -1.046875 C 7.4375 -1.128906 7.800781 -1.238281 8.113281 -1.367188 L 8.113281 -3.742188 L 5.515625 -3.742188 L 5.515625 -4.875 L 9.386719 -4.875 Z "/>
</g>
<g id="glyph-0-3">
<path d="M 8.945312 0 L 7.570312 0 L 6.621094 -2.703125 L 2.429688 -2.703125 L 1.476562 0 L 0.167969 0 L 3.699219 -9.695312 L 5.417969 -9.695312 L 8.945312 0 M 6.222656 -3.808594 L 4.523438 -8.566406 L 2.820312 -3.808594 Z "/>
</g>
</g>
</defs>
<g fill="rgb(100%, 100%, 100%)" fill-opacity="1">
<use xlink:href="#glyph-0-0" x="30" y="33.404297"/>
<use xlink:href="#glyph-0-1" x="38" y="33.404297"/>
<use xlink:href="#glyph-0-2" x="46" y="33.404297"/>
<use xlink:href="#glyph-0-3" x="56" y="33.404297"/>
</g>
</svg>
