<?xml version="1.0" encoding="UTF-8"?>
<svg xmlns="http://www.w3.org/2000/svg" xmlns:xlink="http://www.w3.org/1999/xlink" width="1920" height="1080" viewBox="0 0 1920 1080">
<defs>
<g>
<g id="glyph-0-0">
<path d="M 5.050781 0 L 4.144531 0 L 2.386719 -2.085938 L 1.402344 -2.085938 L 1.402344 0 L 0.707031 0 L 0.707031 -5.25 L 2.175781 -5.25 C 2.492188 -5.25 2.757812 -5.230469 2.96875 -5.191406 C 3.179688 -5.148438 3.371094 -5.074219 3.539062 -4.96875 C 3.730469 -4.847656 3.878906 -4.699219 3.988281 -4.515625 C 4.09375 -4.332031 4.148438 -4.101562 4.148438 -3.824219 C 4.148438 -3.445312 4.050781 -3.128906 3.863281 -2.871094 C 3.671875 -2.617188 3.410156 -2.425781 3.074219 -2.296875 L 5.050781 0 M 3.417969 -3.773438 C 3.417969 -3.925781 3.390625 -4.058594 3.339844 -4.175781 C 3.285156 -4.289062 3.199219 -4.386719 3.074219 -4.46875 C 2.972656 -4.535156 2.855469 -4.585938 2.714844 -4.609375 C 2.578125 -4.636719 2.414062 -4.652344 2.226562 -4.652344 L 1.402344 -4.652344 L 1.402344 -2.667969 L 2.109375 -2.667969 C 2.328125 -2.667969 2.523438 -2.6875 2.6875 -2.726562 C 2.851562 -2.765625 2.992188 -2.839844 3.105469 -2.945312 C 3.210938 -3.042969 3.289062 -3.15625 3.339844 -3.285156 C 3.390625 -3.414062 3.417969 -3.574219 3.417969 -3.773438 Z "/>
</g>
<g id="glyph-0-1">
<path d="M 4.011719 -1.96875 C 4.011719 -1.324219 3.84375 -0.820312 3.515625 -0.449219 C 3.1875 -0.078125 2.746094 0.109375 2.195312 0.109375 C 1.636719 0.109375 1.195312 -0.078125 0.867188 -0.449219 C 0.539062 -0.820312 0.375 -1.324219 0.375 -1.96875 C 0.375 -2.609375 0.539062 -3.117188 0.867188 -3.488281 C 1.195312 -3.863281 1.636719 -4.046875 2.195312 -4.046875 C 2.746094 -4.046875 3.1875 -3.863281 3.515625 -3.488281 C 3.84375 -3.117188 4.011719 -2.609375 4.011719 -1.96875 M 3.324219 -1.96875 C 3.324219 -2.476562 3.226562 -2.855469 3.027344 -3.105469 C 2.824219 -3.351562 2.546875 -3.476562 2.195312 -3.476562 C 1.832031 -3.476562 1.554688 -3.351562 1.355469 -3.105469 C 1.15625 -2.855469 1.058594 -2.476562 1.058594 -1.96875 C 1.058594 -1.472656 1.15625 -1.101562 1.359375 -0.84375 C 1.558594 -0.589844 1.835938 -0.460938 2.195312 -0.460938 C 2.546875 -0.460938 2.824219 -0.589844 3.023438 -0.839844 C 3.226562 -1.09375 3.324219 -1.46875 3.324219 -1.96875 Z "/>
</g>
<g id="glyph-0-2">
<path d="M 3.917969 0 L 3.253906 0 L 3.253906 -0.4375 C 3.03125 -0.261719 2.816406 -0.125 2.613281 -0.03125 C 2.410156 0.0625 2.183594 0.109375 1.9375 0.109375 C 1.523438 0.109375 1.199219 -0.015625 0.96875 -0.269531 C 0.738281 -0.523438 0.625 -0.894531 0.625 -1.382812 L 0.625 -3.9375 L 1.289062 -3.9375 L 1.289062 -1.695312 C 1.289062 -1.496094 1.296875 -1.324219 1.316406 -1.183594 C 1.335938 -1.039062 1.375 -0.917969 1.433594 -0.816406 C 1.5 -0.714844 1.582031 -0.640625 1.683594 -0.59375 C 1.785156 -0.546875 1.929688 -0.523438 2.125 -0.523438 C 2.292969 -0.523438 2.480469 -0.566406 2.6875 -0.65625 C 2.890625 -0.746094 3.078125 -0.859375 3.253906 -1 L 3.253906 -3.9375 L 3.917969 -3.9375 Z "/>
</g>
<g id="glyph-0-3">
<path d="M 2.699219 -0.0351562 C 2.574219 -0.00390625 2.4375 0.0234375 2.289062 0.046875 C 2.144531 0.0664062 2.011719 0.078125 1.898438 0.078125 C 1.496094 0.078125 1.191406 -0.03125 0.980469 -0.246094 C 0.769531 -0.464844 0.667969 -0.808594 0.667969 -1.289062 L 0.667969 -3.382812 L 0.21875 -3.382812 L 0.21875 -3.9375 L 0.667969 -3.9375 L 0.667969 -5.070312 L 1.328125 -5.070312 L 1.328125 -3.9375 L 2.699219 -3.9375 L 2.699219 -3.382812 L 1.328125 -3.382812 L 1.328125 -1.585938 C 1.328125 -1.378906 1.335938 -1.21875 1.34375 -1.101562 C 1.351562 -0.984375 1.386719 -0.878906 1.441406 -0.777344 C 1.492188 -0.683594 1.566406 -0.613281 1.65625 -0.570312 C 1.746094 -0.527344 1.882812 -0.503906 2.070312 -0.503906 C 2.179688 -0.503906 2.292969 -0.519531 2.410156 -0.550781 C 2.527344 -0.582031 2.609375 -0.609375 2.664062 -0.632812 L 2.699219 -0.632812 Z "/>
</g>
<g id="glyph-0-4">
<path d="M 1.363281 -4.597656 L 0.617188 -4.597656 L 0.617188 -5.285156 L 1.363281 -5.285156 L 1.363281 -4.597656 M 1.324219 0 L 0.660156 0 L 0.660156 -3.9375 L 1.324219 -3.9375 Z "/>
</g>
<g id="glyph-0-5">
<path d="M 3.945312 0 L 3.285156 0 L 3.285156 -2.242188 C 3.285156 -2.425781 3.273438 -2.59375 3.25 -2.753906 C 3.230469 -2.910156 3.191406 -3.035156 3.136719 -3.125 C 3.078125 -3.222656 2.992188 -3.296875 2.882812 -3.34375 C 2.769531 -3.394531 2.628906 -3.417969 2.449219 -3.417969 C 2.269531 -3.417969 2.082031 -3.371094 1.882812 -3.285156 C 1.6875 -3.195312 1.496094 -3.078125 1.316406 -2.941406 L 1.316406 0 L 0.652344 0 L 0.652344 -3.9375 L 1.316406 -3.9375 L 1.316406 -3.503906 C 1.523438 -3.671875 1.734375 -3.808594 1.957031 -3.902344 C 2.179688 -4 2.40625 -4.046875 2.636719 -4.046875 C 3.0625 -4.046875 3.386719 -3.921875 3.609375 -3.664062 C 3.835938 -3.40625 3.945312 -3.039062 3.945312 -2.558594 Z "/>
</g>
<g id="glyph-0-6">
<path d="M 3.847656 -0.449219 C 3.847656 0.21875 3.695312 0.710938 3.394531 1.023438 C 3.089844 1.335938 2.621094 1.492188 1.992188 1.492188 C 1.785156 1.492188 1.578125 1.476562 1.378906 1.449219 C 1.183594 1.417969 0.984375 1.375 0.792969 1.324219 L 0.792969 0.644531 L 0.828125 0.644531 C 0.9375 0.6875 1.109375 0.738281 1.34375 0.800781 C 1.578125 0.863281 1.8125 0.894531 2.050781 0.894531 C 2.273438 0.894531 2.460938 0.867188 2.609375 0.816406 C 2.757812 0.761719 2.875 0.683594 2.957031 0.589844 C 3.039062 0.496094 3.097656 0.386719 3.132812 0.257812 C 3.167969 0.128906 3.183594 -0.015625 3.183594 -0.175781 L 3.183594 -0.535156 C 2.984375 -0.375 2.792969 -0.257812 2.613281 -0.179688 C 2.429688 -0.0976562 2.195312 -0.0585938 1.914062 -0.0585938 C 1.445312 -0.0585938 1.070312 -0.230469 0.796875 -0.570312 C 0.519531 -0.910156 0.382812 -1.386719 0.382812 -2.007812 C 0.382812 -2.34375 0.429688 -2.636719 0.523438 -2.882812 C 0.617188 -3.128906 0.75 -3.339844 0.914062 -3.519531 C 1.066406 -3.6875 1.253906 -3.816406 1.46875 -3.910156 C 1.6875 -4.003906 1.90625 -4.046875 2.125 -4.046875 C 2.351562 -4.046875 2.542969 -4.027344 2.695312 -3.980469 C 2.851562 -3.933594 3.011719 -3.863281 3.183594 -3.769531 L 3.226562 -3.9375 L 3.847656 -3.9375 L 3.847656 -0.449219 M 3.183594 -1.082031 L 3.183594 -3.230469 C 3.007812 -3.308594 2.84375 -3.367188 2.691406 -3.402344 C 2.539062 -3.4375 2.390625 -3.453125 2.238281 -3.453125 C 1.875 -3.453125 1.589844 -3.332031 1.378906 -3.085938 C 1.167969 -2.839844 1.066406 -2.484375 1.066406 -2.019531 C 1.066406 -1.578125 1.144531 -1.242188 1.296875 -1.015625 C 1.453125 -0.789062 1.710938 -0.671875 2.070312 -0.671875 C 2.261719 -0.671875 2.457031 -0.710938 2.648438 -0.785156 C 2.84375 -0.859375 3.023438 -0.957031 3.183594 -1.082031 Z "/>
</g>
</g>
</defs>
<g fill="rgb(100%, 100%, 100%)" fill-opacity="1">
<use xlink:href="#glyph-0-0" x="30" y="27.261719"/>
<use xlink:href="#glyph-0-1" x="35" y="27.261719"/>
<use xlink:href="#glyph-0-2" x="39" y="27.261719"/>
<use xlink:href="#glyph-0-3" x="44" y="27.261719"/>
<use xlink:href="#glyph-0-4" x="47" y="27.261719"/>
<use xlink:href="#glyph-0-5" x="49" y="27.261719"/>
<use xlink:href="#glyph-0-6" x="54" y="27.261719"/>
</g>
</svg>
