<?xml version="1.0" encoding="UTF-8"?>
<svg xmlns="http://www.w3.org/2000/svg" xmlns:xlink="http://www.w3.org/1999/xlink" width="1920" height="1080" viewBox="0 0 1920 1080">
<defs>
<g>
<g id="glyph-0-0">
<path d="M 1.707031 -2.980469 L 1.683594 -2.980469 C 1.640625 -2.996094 1.582031 -3.007812 1.507812 -3.023438 C 1.4375 -3.035156 1.371094 -3.042969 1.316406 -3.042969 C 1.140625 -3.042969 1.015625 -3.003906 0.9375 -2.925781 C 0.859375 -2.847656 0.816406 -2.707031 0.816406 -2.507812 L 0.816406 -2.421875 L 1.554688 -2.421875 L 1.554688 -2.082031 L 0.832031 -2.082031 L 0.832031 0 L 0.421875 0 L 0.421875 -2.082031 L 0.148438 -2.082031 L 0.148438 -2.421875 L 0.421875 -2.421875 L 0.421875 -2.503906 C 0.421875 -2.792969 0.496094 -3.011719 0.636719 -3.167969 C 0.78125 -3.320312 0.988281 -3.398438 1.257812 -3.398438 C 1.351562 -3.398438 1.433594 -3.394531 1.503906 -3.386719 C 1.578125 -3.375 1.644531 -3.367188 1.707031 -3.355469 Z "/>
</g>
<g id="glyph-0-1">
<path d="M 2.46875 -1.210938 C 2.46875 -0.816406 2.367188 -0.503906 2.164062 -0.277344 C 1.960938 -0.046875 1.691406 0.0664062 1.351562 0.0664062 C 1.007812 0.0664062 0.734375 -0.046875 0.53125 -0.277344 C 0.332031 -0.503906 0.230469 -0.816406 0.230469 -1.210938 C 0.230469 -1.605469 0.332031 -1.917969 0.53125 -2.148438 C 0.734375 -2.375 1.007812 -2.492188 1.351562 -2.492188 C 1.691406 -2.492188 1.960938 -2.375 2.164062 -2.148438 C 2.367188 -1.917969 2.46875 -1.605469 2.46875 -1.210938 M 2.046875 -1.210938 C 2.046875 -1.523438 1.984375 -1.757812 1.863281 -1.910156 C 1.738281 -2.0625 1.566406 -2.140625 1.351562 -2.140625 C 1.128906 -2.140625 0.957031 -2.0625 0.835938 -1.910156 C 0.710938 -1.757812 0.652344 -1.523438 0.652344 -1.210938 C 0.652344 -0.90625 0.710938 -0.675781 0.835938 -0.519531 C 0.957031 -0.363281 1.128906 -0.285156 1.351562 -0.285156 C 1.566406 -0.285156 1.738281 -0.363281 1.859375 -0.515625 C 1.984375 -0.671875 2.046875 -0.902344 2.046875 -1.210938 Z "/>
</g>
<g id="glyph-0-2">
<path d="M 1.914062 -1.980469 L 1.890625 -1.980469 C 1.832031 -1.992188 1.773438 -2.003906 1.714844 -2.011719 C 1.65625 -2.015625 1.589844 -2.019531 1.511719 -2.019531 C 1.386719 -2.019531 1.265625 -1.992188 1.148438 -1.9375 C 1.03125 -1.882812 0.917969 -1.808594 0.808594 -1.722656 L 0.808594 0 L 0.402344 0 L 0.402344 -2.421875 L 0.808594 -2.421875 L 0.808594 -2.066406 C 0.972656 -2.195312 1.113281 -2.289062 1.238281 -2.34375 C 1.363281 -2.398438 1.488281 -2.421875 1.617188 -2.421875 C 1.6875 -2.421875 1.738281 -2.421875 1.769531 -2.417969 C 1.800781 -2.414062 1.851562 -2.40625 1.914062 -2.398438 Z "/>
</g>
<g id="glyph-0-3">
</g>
<g id="glyph-0-4">
<path d="M 2.476562 0 L 0.433594 0 L 0.433594 -3.230469 L 0.863281 -3.230469 L 0.863281 -0.382812 L 2.476562 -0.382812 Z "/>
</g>
<g id="glyph-0-5">
<path d="M 2.867188 -1.296875 C 2.867188 -1.0625 2.839844 -0.859375 2.789062 -0.683594 C 2.738281 -0.511719 2.652344 -0.367188 2.535156 -0.25 C 2.425781 -0.140625 2.296875 -0.0585938 2.144531 -0.0078125 C 1.996094 0.0429688 1.824219 0.0664062 1.625 0.0664062 C 1.421875 0.0664062 1.246094 0.0390625 1.097656 -0.0117188 C 0.945312 -0.0664062 0.820312 -0.144531 0.714844 -0.25 C 0.597656 -0.367188 0.515625 -0.511719 0.464844 -0.679688 C 0.410156 -0.847656 0.386719 -1.054688 0.386719 -1.296875 L 0.386719 -3.230469 L 0.816406 -3.230469 L 0.816406 -1.277344 C 0.816406 -1.101562 0.828125 -0.960938 0.851562 -0.863281 C 0.875 -0.761719 0.914062 -0.667969 0.972656 -0.585938 C 1.035156 -0.492188 1.121094 -0.421875 1.230469 -0.375 C 1.339844 -0.324219 1.472656 -0.300781 1.625 -0.300781 C 1.78125 -0.300781 1.910156 -0.324219 2.019531 -0.371094 C 2.128906 -0.417969 2.214844 -0.492188 2.28125 -0.585938 C 2.335938 -0.667969 2.378906 -0.761719 2.402344 -0.867188 C 2.425781 -0.976562 2.4375 -1.105469 2.4375 -1.265625 L 2.4375 -3.230469 L 2.867188 -3.230469 Z "/>
</g>
<g id="glyph-0-6">
<path d="M 2.738281 -2.847656 L 1.585938 -2.847656 L 1.585938 0 L 1.15625 0 L 1.15625 -2.847656 L 0 -2.847656 L 0 -3.230469 L 2.738281 -3.230469 Z "/>
</g>
<g id="glyph-0-7">
<path d="M 1.6875 -1.21875 L 0.332031 -1.21875 L 0.332031 -1.609375 L 1.6875 -1.609375 Z "/>
</g>
<g id="glyph-0-8">
<path d="M 2.871094 -0.992188 C 2.871094 -0.832031 2.839844 -0.691406 2.78125 -0.570312 C 2.71875 -0.445312 2.636719 -0.34375 2.535156 -0.265625 C 2.414062 -0.167969 2.28125 -0.101562 2.132812 -0.0625 C 1.988281 -0.0195312 1.804688 0 1.578125 0 L 0.433594 0 L 0.433594 -3.230469 L 1.390625 -3.230469 C 1.625 -3.230469 1.804688 -3.222656 1.921875 -3.203125 C 2.039062 -3.1875 2.148438 -3.152344 2.257812 -3.097656 C 2.375 -3.035156 2.460938 -2.953125 2.515625 -2.855469 C 2.570312 -2.757812 2.59375 -2.640625 2.59375 -2.507812 C 2.59375 -2.351562 2.554688 -2.222656 2.476562 -2.113281 C 2.398438 -2.007812 2.296875 -1.921875 2.164062 -1.855469 L 2.164062 -1.839844 C 2.382812 -1.792969 2.554688 -1.695312 2.683594 -1.550781 C 2.808594 -1.402344 2.871094 -1.21875 2.871094 -0.992188 M 2.148438 -2.449219 C 2.148438 -2.527344 2.136719 -2.59375 2.109375 -2.648438 C 2.082031 -2.699219 2.042969 -2.746094 1.984375 -2.777344 C 1.914062 -2.816406 1.832031 -2.839844 1.734375 -2.851562 C 1.640625 -2.859375 1.519531 -2.863281 1.375 -2.863281 L 0.863281 -2.863281 L 0.863281 -1.929688 L 1.417969 -1.929688 C 1.554688 -1.929688 1.660156 -1.9375 1.742188 -1.953125 C 1.820312 -1.964844 1.894531 -1.996094 1.960938 -2.039062 C 2.03125 -2.082031 2.078125 -2.136719 2.105469 -2.207031 C 2.132812 -2.273438 2.148438 -2.355469 2.148438 -2.449219 M 2.421875 -0.976562 C 2.421875 -1.105469 2.402344 -1.210938 2.363281 -1.285156 C 2.324219 -1.363281 2.253906 -1.429688 2.152344 -1.480469 C 2.082031 -1.519531 2 -1.542969 1.898438 -1.550781 C 1.800781 -1.5625 1.679688 -1.570312 1.539062 -1.570312 L 0.863281 -1.570312 L 0.863281 -0.367188 L 1.433594 -0.367188 C 1.621094 -0.367188 1.773438 -0.375 1.894531 -0.394531 C 2.015625 -0.414062 2.113281 -0.453125 2.191406 -0.503906 C 2.269531 -0.558594 2.328125 -0.625 2.367188 -0.695312 C 2.40625 -0.769531 2.421875 -0.863281 2.421875 -0.976562 Z "/>
</g>
<g id="glyph-0-9">
<path d="M 2.285156 0 L 1.878906 0 L 1.878906 -0.257812 C 1.84375 -0.234375 1.792969 -0.199219 1.734375 -0.15625 C 1.671875 -0.109375 1.613281 -0.0742188 1.554688 -0.0507812 C 1.484375 -0.015625 1.40625 0.0117188 1.320312 0.0351562 C 1.230469 0.0546875 1.128906 0.0664062 1.007812 0.0664062 C 0.789062 0.0664062 0.605469 -0.00390625 0.453125 -0.148438 C 0.300781 -0.292969 0.226562 -0.480469 0.226562 -0.703125 C 0.226562 -0.886719 0.265625 -1.035156 0.34375 -1.148438 C 0.421875 -1.261719 0.535156 -1.351562 0.679688 -1.417969 C 0.828125 -1.480469 1.007812 -1.527344 1.214844 -1.550781 C 1.417969 -1.574219 1.640625 -1.589844 1.878906 -1.601562 L 1.878906 -1.664062 C 1.878906 -1.757812 1.863281 -1.832031 1.832031 -1.894531 C 1.796875 -1.957031 1.75 -2.003906 1.691406 -2.039062 C 1.632812 -2.070312 1.5625 -2.09375 1.480469 -2.105469 C 1.402344 -2.117188 1.316406 -2.121094 1.226562 -2.121094 C 1.121094 -2.121094 1 -2.109375 0.871094 -2.078125 C 0.738281 -2.050781 0.601562 -2.011719 0.460938 -1.957031 L 0.441406 -1.957031 L 0.441406 -2.371094 C 0.519531 -2.394531 0.636719 -2.417969 0.785156 -2.441406 C 0.9375 -2.46875 1.085938 -2.480469 1.230469 -2.480469 C 1.402344 -2.480469 1.550781 -2.46875 1.675781 -2.441406 C 1.804688 -2.410156 1.914062 -2.363281 2.003906 -2.296875 C 2.097656 -2.230469 2.164062 -2.144531 2.214844 -2.039062 C 2.261719 -1.933594 2.285156 -1.800781 2.285156 -1.644531 L 2.285156 0 M 1.878906 -0.597656 L 1.878906 -1.273438 C 1.753906 -1.265625 1.609375 -1.253906 1.441406 -1.238281 C 1.269531 -1.222656 1.136719 -1.203125 1.039062 -1.175781 C 0.921875 -1.144531 0.828125 -1.089844 0.753906 -1.019531 C 0.683594 -0.949219 0.648438 -0.855469 0.648438 -0.730469 C 0.648438 -0.59375 0.6875 -0.488281 0.773438 -0.417969 C 0.855469 -0.347656 0.984375 -0.3125 1.15625 -0.3125 C 1.300781 -0.3125 1.429688 -0.339844 1.550781 -0.394531 C 1.667969 -0.453125 1.777344 -0.519531 1.878906 -0.597656 Z "/>
</g>
<g id="glyph-0-10">
<path d="M 2.132812 -0.699219 C 2.132812 -0.476562 2.042969 -0.296875 1.859375 -0.152344 C 1.675781 -0.0117188 1.425781 0.0585938 1.109375 0.0585938 C 0.929688 0.0585938 0.765625 0.0390625 0.613281 -0.00390625 C 0.464844 -0.046875 0.339844 -0.09375 0.238281 -0.144531 L 0.238281 -0.601562 L 0.261719 -0.601562 C 0.390625 -0.507812 0.53125 -0.429688 0.691406 -0.371094 C 0.847656 -0.316406 1 -0.285156 1.144531 -0.285156 C 1.324219 -0.285156 1.464844 -0.316406 1.566406 -0.375 C 1.664062 -0.429688 1.714844 -0.523438 1.714844 -0.648438 C 1.714844 -0.742188 1.6875 -0.8125 1.632812 -0.863281 C 1.578125 -0.914062 1.472656 -0.953125 1.316406 -0.988281 C 1.257812 -1.003906 1.183594 -1.019531 1.089844 -1.035156 C 0.996094 -1.050781 0.910156 -1.070312 0.835938 -1.089844 C 0.621094 -1.148438 0.472656 -1.230469 0.382812 -1.339844 C 0.292969 -1.449219 0.25 -1.582031 0.25 -1.742188 C 0.25 -1.84375 0.269531 -1.9375 0.3125 -2.023438 C 0.351562 -2.113281 0.414062 -2.191406 0.5 -2.261719 C 0.582031 -2.328125 0.683594 -2.382812 0.808594 -2.421875 C 0.933594 -2.460938 1.074219 -2.480469 1.226562 -2.480469 C 1.371094 -2.480469 1.519531 -2.464844 1.667969 -2.429688 C 1.816406 -2.394531 1.9375 -2.351562 2.039062 -2.300781 L 2.039062 -1.863281 L 2.015625 -1.863281 C 1.910156 -1.941406 1.785156 -2.003906 1.636719 -2.058594 C 1.488281 -2.109375 1.339844 -2.136719 1.199219 -2.136719 C 1.046875 -2.136719 0.921875 -2.109375 0.820312 -2.050781 C 0.71875 -1.996094 0.667969 -1.910156 0.667969 -1.796875 C 0.667969 -1.695312 0.699219 -1.621094 0.757812 -1.570312 C 0.820312 -1.519531 0.917969 -1.480469 1.054688 -1.449219 C 1.128906 -1.429688 1.214844 -1.414062 1.308594 -1.394531 C 1.402344 -1.378906 1.476562 -1.363281 1.539062 -1.347656 C 1.730469 -1.304688 1.875 -1.230469 1.980469 -1.125 C 2.082031 -1.015625 2.132812 -0.875 2.132812 -0.699219 Z "/>
</g>
<g id="glyph-0-11">
<path d="M 2.429688 -1.167969 L 0.644531 -1.167969 C 0.644531 -1.019531 0.667969 -0.890625 0.710938 -0.78125 C 0.757812 -0.667969 0.816406 -0.578125 0.894531 -0.507812 C 0.972656 -0.4375 1.0625 -0.386719 1.164062 -0.351562 C 1.269531 -0.316406 1.382812 -0.300781 1.507812 -0.300781 C 1.671875 -0.300781 1.835938 -0.332031 2.003906 -0.398438 C 2.171875 -0.464844 2.289062 -0.527344 2.359375 -0.59375 L 2.382812 -0.59375 L 2.382812 -0.148438 C 2.246094 -0.0898438 2.105469 -0.0429688 1.960938 -0.00390625 C 1.820312 0.0351562 1.667969 0.0546875 1.511719 0.0546875 C 1.109375 0.0546875 0.792969 -0.0507812 0.570312 -0.269531 C 0.34375 -0.488281 0.230469 -0.796875 0.230469 -1.199219 C 0.230469 -1.59375 0.339844 -1.910156 0.554688 -2.140625 C 0.769531 -2.375 1.054688 -2.492188 1.410156 -2.492188 C 1.734375 -2.492188 1.988281 -2.394531 2.164062 -2.203125 C 2.339844 -2.015625 2.429688 -1.742188 2.429688 -1.390625 L 2.429688 -1.167969 M 2.035156 -1.480469 C 2.03125 -1.695312 1.976562 -1.863281 1.871094 -1.980469 C 1.765625 -2.097656 1.605469 -2.15625 1.386719 -2.15625 C 1.167969 -2.15625 0.996094 -2.089844 0.863281 -1.960938 C 0.734375 -1.832031 0.660156 -1.671875 0.644531 -1.480469 Z "/>
</g>
<g id="glyph-0-12">
<path d="M 2.367188 0 L 1.960938 0 L 1.960938 -0.253906 C 1.84375 -0.152344 1.71875 -0.0742188 1.59375 -0.015625 C 1.464844 0.0390625 1.328125 0.0664062 1.179688 0.0664062 C 0.890625 0.0664062 0.660156 -0.0429688 0.488281 -0.265625 C 0.320312 -0.488281 0.234375 -0.796875 0.234375 -1.195312 C 0.234375 -1.398438 0.261719 -1.582031 0.320312 -1.742188 C 0.378906 -1.902344 0.460938 -2.039062 0.558594 -2.152344 C 0.660156 -2.261719 0.773438 -2.347656 0.902344 -2.402344 C 1.035156 -2.460938 1.171875 -2.492188 1.3125 -2.492188 C 1.4375 -2.492188 1.550781 -2.476562 1.648438 -2.449219 C 1.746094 -2.425781 1.851562 -2.382812 1.960938 -2.324219 L 1.960938 -3.375 L 2.367188 -3.375 L 2.367188 0 M 1.960938 -0.597656 L 1.960938 -1.988281 C 1.847656 -2.035156 1.75 -2.070312 1.664062 -2.089844 C 1.578125 -2.109375 1.484375 -2.117188 1.378906 -2.117188 C 1.152344 -2.117188 0.972656 -2.039062 0.847656 -1.878906 C 0.71875 -1.71875 0.65625 -1.496094 0.65625 -1.203125 C 0.65625 -0.914062 0.703125 -0.695312 0.804688 -0.546875 C 0.902344 -0.394531 1.058594 -0.320312 1.277344 -0.320312 C 1.390625 -0.320312 1.507812 -0.347656 1.628906 -0.398438 C 1.746094 -0.449219 1.855469 -0.515625 1.960938 -0.597656 Z "/>
</g>
<g id="glyph-0-13">
<path d="M 2.496094 -2.847656 L 0.863281 -2.847656 L 0.863281 -1.9375 L 2.265625 -1.9375 L 2.265625 -1.554688 L 0.863281 -1.554688 L 0.863281 0 L 0.433594 0 L 0.433594 -3.230469 L 2.496094 -3.230469 Z "/>
</g>
<g id="glyph-0-14">
<path d="M 2.546875 -2.253906 C 2.546875 -2.113281 2.523438 -1.980469 2.472656 -1.855469 C 2.421875 -1.734375 2.351562 -1.628906 2.261719 -1.539062 C 2.152344 -1.425781 2.019531 -1.34375 1.867188 -1.289062 C 1.714844 -1.230469 1.523438 -1.203125 1.292969 -1.203125 L 0.863281 -1.203125 L 0.863281 0 L 0.433594 0 L 0.433594 -3.230469 L 1.3125 -3.230469 C 1.503906 -3.230469 1.667969 -3.214844 1.804688 -3.183594 C 1.9375 -3.148438 2.058594 -3.097656 2.160156 -3.027344 C 2.285156 -2.945312 2.378906 -2.84375 2.445312 -2.722656 C 2.515625 -2.597656 2.546875 -2.441406 2.546875 -2.253906 M 2.101562 -2.242188 C 2.101562 -2.355469 2.082031 -2.453125 2.042969 -2.535156 C 2.003906 -2.617188 1.945312 -2.683594 1.863281 -2.734375 C 1.792969 -2.78125 1.714844 -2.8125 1.625 -2.832031 C 1.539062 -2.851562 1.425781 -2.863281 1.289062 -2.863281 L 0.863281 -2.863281 L 0.863281 -1.570312 L 1.226562 -1.570312 C 1.398438 -1.570312 1.539062 -1.585938 1.648438 -1.617188 C 1.757812 -1.648438 1.847656 -1.699219 1.914062 -1.765625 C 1.980469 -1.835938 2.03125 -1.910156 2.058594 -1.984375 C 2.085938 -2.0625 2.101562 -2.148438 2.101562 -2.242188 Z "/>
</g>
<g id="glyph-0-15">
<path d="M 3.128906 -0.238281 C 2.953125 -0.15625 2.761719 -0.0859375 2.550781 -0.0273438 C 2.339844 0.03125 2.140625 0.0625 1.945312 0.0625 C 1.691406 0.0625 1.460938 0.0273438 1.253906 -0.0429688 C 1.042969 -0.109375 0.863281 -0.214844 0.714844 -0.355469 C 0.566406 -0.492188 0.453125 -0.667969 0.371094 -0.878906 C 0.289062 -1.089844 0.25 -1.335938 0.25 -1.617188 C 0.25 -2.136719 0.398438 -2.542969 0.703125 -2.839844 C 1.003906 -3.140625 1.417969 -3.289062 1.945312 -3.289062 C 2.128906 -3.289062 2.316406 -3.265625 2.507812 -3.222656 C 2.699219 -3.179688 2.90625 -3.105469 3.125 -3 L 3.125 -2.488281 L 3.085938 -2.488281 C 3.042969 -2.523438 2.976562 -2.570312 2.890625 -2.625 C 2.808594 -2.683594 2.722656 -2.730469 2.640625 -2.765625 C 2.539062 -2.8125 2.429688 -2.847656 2.300781 -2.878906 C 2.175781 -2.90625 2.03125 -2.921875 1.871094 -2.921875 C 1.507812 -2.921875 1.222656 -2.808594 1.011719 -2.574219 C 0.800781 -2.34375 0.695312 -2.027344 0.695312 -1.632812 C 0.695312 -1.214844 0.804688 -0.886719 1.027344 -0.65625 C 1.246094 -0.425781 1.546875 -0.308594 1.925781 -0.308594 C 2.0625 -0.308594 2.203125 -0.320312 2.339844 -0.347656 C 2.476562 -0.375 2.597656 -0.414062 2.703125 -0.457031 L 2.703125 -1.246094 L 1.839844 -1.246094 L 1.839844 -1.625 L 3.128906 -1.625 Z "/>
</g>
<g id="glyph-0-16">
<path d="M 2.980469 0 L 2.523438 0 L 2.207031 -0.902344 L 0.808594 -0.902344 L 0.492188 0 L 0.0546875 0 L 1.234375 -3.230469 L 1.804688 -3.230469 L 2.980469 0 M 2.074219 -1.269531 L 1.507812 -2.855469 L 0.941406 -1.269531 Z "/>
</g>
</g>
</defs>
<g fill="rgb(100%, 100%, 100%)" fill-opacity="1">
<use xlink:href="#glyph-0-0" x="30" y="24.466797"/>
<use xlink:href="#glyph-0-1" x="32" y="24.466797"/>
<use xlink:href="#glyph-0-2" x="35" y="24.466797"/>
<use xlink:href="#glyph-0-3" x="37" y="24.466797"/>
<use xlink:href="#glyph-0-4" x="39" y="24.466797"/>
<use xlink:href="#glyph-0-5" x="41" y="24.466797"/>
<use xlink:href="#glyph-0-6" x="44" y="24.466797"/>
<use xlink:href="#glyph-0-7" x="46" y="24.466797"/>
<use xlink:href="#glyph-0-8" x="48" y="24.466797"/>
<use xlink:href="#glyph-0-9" x="51" y="24.466797"/>
<use xlink:href="#glyph-0-10" x="54" y="24.466797"/>
<use xlink:href="#glyph-0-11" x="56" y="24.466797"/>
<use xlink:href="#glyph-0-12" x="59" y="24.466797"/>
<use xlink:href="#glyph-0-3" x="62" y="24.466797"/>
<use xlink:href="#glyph-0-13" x="64" y="24.466797"/>
<use xlink:href="#glyph-0-14" x="67" y="24.466797"/>
<use xlink:href="#glyph-0-15" x="70" y="24.466797"/>
<use xlink:href="#glyph-0-16" x="73" y="24.466797"/>
</g>
</svg>
