<?xml version="1.0" encoding="UTF-8"?>
<svg xmlns="http://www.w3.org/2000/svg" xmlns:xlink="http://www.w3.org/1999/xlink" width="1920" height="1080" viewBox="0 0 1920 1080">
<defs>
<g>
<g id="glyph-0-0">
<path d="M 5.308594 -6.054688 L 1.835938 -6.054688 L 1.835938 -4.117188 L 4.820312 -4.117188 L 4.820312 -3.304688 L 1.835938 -3.304688 L 1.835938 0 L 0.921875 0 L 0.921875 -6.867188 L 5.308594 -6.867188 Z "/>
</g>
<g id="glyph-0-1">
<path d="M 5.414062 -4.792969 C 5.414062 -4.488281 5.359375 -4.203125 5.253906 -3.945312 C 5.148438 -3.683594 5 -3.460938 4.808594 -3.269531 C 4.574219 -3.03125 4.292969 -2.855469 3.96875 -2.738281 C 3.648438 -2.617188 3.238281 -2.558594 2.75 -2.558594 L 1.835938 -2.558594 L 1.835938 0 L 0.921875 0 L 0.921875 -6.867188 L 2.785156 -6.867188 C 3.195312 -6.867188 3.546875 -6.832031 3.832031 -6.761719 C 4.117188 -6.691406 4.371094 -6.585938 4.59375 -6.4375 C 4.855469 -6.261719 5.054688 -6.042969 5.199219 -5.78125 C 5.34375 -5.519531 5.414062 -5.191406 5.414062 -4.792969 M 4.464844 -4.769531 C 4.464844 -5.003906 4.421875 -5.210938 4.339844 -5.386719 C 4.257812 -5.5625 4.128906 -5.703125 3.960938 -5.816406 C 3.8125 -5.910156 3.644531 -5.980469 3.457031 -6.019531 C 3.265625 -6.0625 3.027344 -6.082031 2.738281 -6.082031 L 1.835938 -6.082031 L 1.835938 -3.339844 L 2.605469 -3.339844 C 2.972656 -3.339844 3.273438 -3.371094 3.503906 -3.4375 C 3.734375 -3.503906 3.921875 -3.609375 4.066406 -3.753906 C 4.210938 -3.902344 4.3125 -4.054688 4.375 -4.21875 C 4.433594 -4.382812 4.464844 -4.566406 4.464844 -4.769531 Z "/>
</g>
<g id="glyph-0-2">
<path d="M 6.648438 -0.507812 C 6.273438 -0.335938 5.863281 -0.183594 5.421875 -0.0585938 C 4.976562 0.0703125 4.546875 0.132812 4.132812 0.132812 C 3.597656 0.132812 3.105469 0.0585938 2.660156 -0.0859375 C 2.214844 -0.234375 1.835938 -0.457031 1.523438 -0.75 C 1.207031 -1.050781 0.960938 -1.421875 0.789062 -1.871094 C 0.617188 -2.316406 0.53125 -2.839844 0.53125 -3.441406 C 0.53125 -4.539062 0.851562 -5.402344 1.492188 -6.039062 C 2.132812 -6.671875 3.011719 -6.992188 4.132812 -6.992188 C 4.523438 -6.992188 4.921875 -6.945312 5.328125 -6.851562 C 5.734375 -6.757812 6.175781 -6.597656 6.644531 -6.371094 L 6.644531 -5.289062 L 6.5625 -5.289062 C 6.464844 -5.363281 6.328125 -5.460938 6.148438 -5.578125 C 5.964844 -5.699219 5.789062 -5.800781 5.613281 -5.878906 C 5.398438 -5.976562 5.160156 -6.054688 4.890625 -6.117188 C 4.621094 -6.179688 4.316406 -6.210938 3.976562 -6.210938 C 3.207031 -6.210938 2.597656 -5.964844 2.152344 -5.472656 C 1.703125 -4.976562 1.480469 -4.308594 1.480469 -3.46875 C 1.480469 -2.578125 1.714844 -1.886719 2.179688 -1.394531 C 2.648438 -0.902344 3.285156 -0.65625 4.089844 -0.65625 C 4.386719 -0.65625 4.679688 -0.683594 4.972656 -0.742188 C 5.265625 -0.800781 5.523438 -0.875 5.746094 -0.96875 L 5.746094 -2.652344 L 3.90625 -2.652344 L 3.90625 -3.453125 L 6.648438 -3.453125 Z "/>
</g>
<g id="glyph-0-3">
<path d="M 6.335938 0 L 5.363281 0 L 4.691406 -1.914062 L 1.71875 -1.914062 L 1.046875 0 L 0.121094 0 L 2.621094 -6.867188 L 3.835938 -6.867188 L 6.335938 0 M 4.410156 -2.699219 L 3.203125 -6.070312 L 1.996094 -2.699219 Z "/>
</g>
</g>
</defs>
<g fill="rgb(100%, 100%, 100%)" fill-opacity="1">
<use xlink:href="#glyph-0-0" x="30" y="29.494141"/>
<use xlink:href="#glyph-0-1" x="35" y="29.494141"/>
<use xlink:href="#glyph-0-2" x="41" y="29.494141"/>
<use xlink:href="#glyph-0-3" x="48" y="29.494141"/>
</g>
</svg>
