<?xml version="1.0" encoding="UTF-8"?>
<svg xmlns="http://www.w3.org/2000/svg" xmlns:xlink="http://www.w3.org/1999/xlink" width="1920" height="1080" viewBox="0 0 1920 1080">
<defs>
<g>
<g id="glyph-0-0">
<path d="M 6.785156 -8.546875 L 2.273438 -8.546875 L 2.273438 -5.8125 L 6.59375 -5.8125 L 6.59375 -4.667969 L 2.273438 -4.667969 L 2.273438 0 L 0.984375 0 L 0.984375 -9.695312 L 6.785156 -9.695312 Z "/>
</g>
<g id="glyph-0-1">
<path d="M 7.101562 -6.769531 C 7.101562 -6.351562 7.027344 -5.953125 6.878906 -5.574219 C 6.726562 -5.199219 6.519531 -4.878906 6.257812 -4.617188 C 5.921875 -4.285156 5.53125 -4.035156 5.078125 -3.867188 C 4.625 -3.699219 4.054688 -3.613281 3.367188 -3.613281 L 2.273438 -3.613281 L 2.273438 0 L 0.984375 0 L 0.984375 -9.695312 L 3.417969 -9.695312 C 3.992188 -9.695312 4.480469 -9.644531 4.882812 -9.550781 C 5.285156 -9.457031 5.640625 -9.300781 5.949219 -9.089844 C 6.3125 -8.839844 6.59375 -8.527344 6.796875 -8.148438 C 7 -7.769531 7.101562 -7.308594 7.101562 -6.769531 M 5.761719 -6.738281 C 5.761719 -7.074219 5.703125 -7.363281 5.589844 -7.609375 C 5.472656 -7.859375 5.300781 -8.058594 5.066406 -8.214844 C 4.859375 -8.351562 4.625 -8.445312 4.351562 -8.503906 C 4.082031 -8.558594 3.742188 -8.585938 3.339844 -8.585938 L 2.273438 -8.585938 L 2.273438 -4.714844 L 3.152344 -4.714844 C 3.671875 -4.714844 4.09375 -4.757812 4.414062 -4.839844 C 4.734375 -4.925781 5.003906 -5.074219 5.214844 -5.292969 C 5.40625 -5.488281 5.542969 -5.699219 5.632812 -5.929688 C 5.71875 -6.160156 5.761719 -6.429688 5.761719 -6.738281 Z "/>
</g>
<g id="glyph-0-2">
<path d="M 5.039062 0.1875 C 4.351562 0.1875 3.726562 0.0859375 3.15625 -0.125 C 2.589844 -0.332031 2.101562 -0.648438 1.691406 -1.074219 C 1.285156 -1.503906 0.972656 -2.035156 0.753906 -2.667969 C 0.539062 -3.304688 0.429688 -4.03125 0.429688 -4.855469 C 0.429688 -5.636719 0.539062 -6.335938 0.757812 -6.957031 C 0.976562 -7.574219 1.292969 -8.101562 1.699219 -8.542969 C 2.09375 -8.96875 2.582031 -9.292969 3.15625 -9.523438 C 3.734375 -9.753906 4.367188 -9.871094 5.050781 -9.871094 C 5.378906 -9.871094 5.691406 -9.847656 5.988281 -9.796875 C 6.289062 -9.75 6.574219 -9.683594 6.847656 -9.601562 C 7.066406 -9.539062 7.308594 -9.449219 7.574219 -9.332031 C 7.839844 -9.21875 8.058594 -9.117188 8.222656 -9.035156 L 8.222656 -7.480469 L 8.113281 -7.480469 C 7.953125 -7.625 7.785156 -7.757812 7.613281 -7.886719 C 7.441406 -8.015625 7.199219 -8.152344 6.886719 -8.300781 C 6.628906 -8.429688 6.328125 -8.539062 5.988281 -8.625 C 5.652344 -8.714844 5.285156 -8.757812 4.894531 -8.757812 C 3.960938 -8.757812 3.207031 -8.40625 2.632812 -7.703125 C 2.058594 -7 1.769531 -6.0625 1.769531 -4.894531 C 1.769531 -4.246094 1.847656 -3.675781 2 -3.191406 C 2.152344 -2.703125 2.371094 -2.292969 2.65625 -1.953125 C 2.933594 -1.617188 3.269531 -1.363281 3.660156 -1.1875 C 4.054688 -1.011719 4.496094 -0.925781 4.988281 -0.925781 C 5.351562 -0.925781 5.714844 -0.949219 6.074219 -1.003906 C 6.433594 -1.054688 6.738281 -1.132812 6.984375 -1.238281 L 6.984375 -3.742188 L 4.746094 -3.742188 L 4.746094 -4.875 L 8.261719 -4.875 L 8.261719 -0.644531 C 8.097656 -0.570312 7.875 -0.476562 7.601562 -0.363281 C 7.324219 -0.25 7.066406 -0.164062 6.828125 -0.0976562 C 6.511719 -0.00390625 6.226562 0.0703125 5.96875 0.117188 C 5.714844 0.164062 5.402344 0.1875 5.039062 0.1875 Z "/>
</g>
<g id="glyph-0-3">
<path d="M -0.0664062 0 L 3.203125 -9.695312 L 4.792969 -9.695312 L 8.058594 0 L 6.699219 0 L 5.820312 -2.707031 L 2.117188 -2.707031 L 1.238281 0 L -0.0664062 0 M 5.460938 -3.808594 L 3.964844 -8.378906 L 2.472656 -3.808594 Z "/>
</g>
</g>
</defs>
<g fill="rgb(100%, 100%, 100%)" fill-opacity="1">
<use xlink:href="#glyph-0-0" x="30" y="33.339844"/>
<use xlink:href="#glyph-0-1" x="37" y="33.339844"/>
<use xlink:href="#glyph-0-2" x="44" y="33.339844"/>
<use xlink:href="#glyph-0-3" x="53" y="33.339844"/>
</g>
</svg>
