<?xml version="1.0" encoding="UTF-8"?>
<svg xmlns="http://www.w3.org/2000/svg" xmlns:xlink="http://www.w3.org/1999/xlink" width="1920" height="1080" viewBox="0 0 1920 1080">
<defs>
<g>
<g id="glyph-0-0">
<path d="M 2.246094 -2.78125 L 1.351562 -2.78125 L 1.351562 0 L 0.984375 0 L 0.984375 -2.78125 L 0.0898438 -2.78125 L 0.0898438 -3.113281 L 2.246094 -3.113281 Z "/>
</g>
<g id="glyph-0-1">
<path d="M 2.144531 -1.023438 L 0.578125 -1.023438 C 0.582031 -0.773438 0.648438 -0.582031 0.777344 -0.449219 C 0.902344 -0.316406 1.078125 -0.246094 1.300781 -0.246094 C 1.550781 -0.246094 1.78125 -0.328125 1.992188 -0.496094 L 1.992188 -0.160156 C 1.796875 -0.0195312 1.539062 0.0507812 1.21875 0.0507812 C 0.902344 0.0507812 0.65625 -0.046875 0.476562 -0.25 C 0.296875 -0.453125 0.207031 -0.738281 0.207031 -1.101562 C 0.207031 -1.449219 0.304688 -1.730469 0.503906 -1.949219 C 0.699219 -2.164062 0.941406 -2.273438 1.234375 -2.273438 C 1.523438 -2.273438 1.75 -2.179688 1.90625 -1.992188 C 2.066406 -1.804688 2.144531 -1.542969 2.144531 -1.207031 L 2.144531 -1.023438 M 1.78125 -1.324219 C 1.78125 -1.527344 1.730469 -1.6875 1.632812 -1.804688 C 1.535156 -1.917969 1.398438 -1.976562 1.226562 -1.976562 C 1.058594 -1.976562 0.914062 -1.914062 0.796875 -1.792969 C 0.679688 -1.675781 0.609375 -1.515625 0.582031 -1.324219 Z "/>
</g>
<g id="glyph-0-2">
<path d="M 1.875 -0.101562 C 1.703125 0 1.5 0.0507812 1.265625 0.0507812 C 0.949219 0.0507812 0.695312 -0.0507812 0.5 -0.257812 C 0.304688 -0.464844 0.207031 -0.730469 0.207031 -1.058594 C 0.207031 -1.425781 0.3125 -1.71875 0.523438 -1.941406 C 0.734375 -2.164062 1.011719 -2.273438 1.363281 -2.273438 C 1.558594 -2.273438 1.730469 -2.238281 1.878906 -2.164062 L 1.878906 -1.800781 C 1.714844 -1.917969 1.539062 -1.976562 1.351562 -1.976562 C 1.121094 -1.976562 0.9375 -1.894531 0.789062 -1.730469 C 0.644531 -1.566406 0.574219 -1.355469 0.574219 -1.089844 C 0.574219 -0.828125 0.640625 -0.625 0.777344 -0.472656 C 0.914062 -0.324219 1.097656 -0.246094 1.328125 -0.246094 C 1.523438 -0.246094 1.703125 -0.3125 1.875 -0.441406 Z "/>
</g>
<g id="glyph-0-3">
<path d="M 2.203125 0 L 1.847656 0 L 1.847656 -1.28125 C 1.847656 -1.742188 1.675781 -1.976562 1.332031 -1.976562 C 1.160156 -1.976562 1.011719 -1.90625 0.894531 -1.773438 C 0.773438 -1.640625 0.714844 -1.46875 0.714844 -1.257812 L 0.714844 0 L 0.359375 0 L 0.359375 -3.289062 L 0.714844 -3.289062 L 0.714844 -1.851562 L 0.726562 -1.851562 C 0.894531 -2.132812 1.136719 -2.273438 1.453125 -2.273438 C 1.953125 -2.273438 2.203125 -1.972656 2.203125 -1.371094 Z "/>
</g>
<g id="glyph-0-4">
<path d="M 2.203125 0 L 1.847656 0 L 1.847656 -1.265625 C 1.847656 -1.738281 1.675781 -1.976562 1.332031 -1.976562 C 1.15625 -1.976562 1.007812 -1.90625 0.890625 -1.773438 C 0.773438 -1.640625 0.714844 -1.472656 0.714844 -1.265625 L 0.714844 0 L 0.359375 0 L 0.359375 -2.222656 L 0.714844 -2.222656 L 0.714844 -1.851562 L 0.726562 -1.851562 C 0.890625 -2.132812 1.136719 -2.273438 1.453125 -2.273438 C 1.695312 -2.273438 1.882812 -2.195312 2.011719 -2.039062 C 2.140625 -1.882812 2.203125 -1.65625 2.203125 -1.359375 Z "/>
</g>
<g id="glyph-0-5">
<path d="M 1.289062 0.0507812 C 0.960938 0.0507812 0.699219 -0.0507812 0.503906 -0.257812 C 0.304688 -0.46875 0.207031 -0.742188 0.207031 -1.085938 C 0.207031 -1.457031 0.308594 -1.75 0.515625 -1.960938 C 0.71875 -2.167969 0.992188 -2.273438 1.339844 -2.273438 C 1.671875 -2.273438 1.929688 -2.171875 2.117188 -1.96875 C 2.300781 -1.765625 2.394531 -1.480469 2.394531 -1.121094 C 2.394531 -0.765625 2.296875 -0.480469 2.09375 -0.269531 C 1.894531 -0.0546875 1.625 0.0507812 1.289062 0.0507812 M 1.316406 -1.976562 C 1.085938 -1.976562 0.90625 -1.898438 0.773438 -1.742188 C 0.640625 -1.585938 0.574219 -1.371094 0.574219 -1.097656 C 0.574219 -0.835938 0.640625 -0.628906 0.773438 -0.476562 C 0.910156 -0.324219 1.089844 -0.246094 1.316406 -0.246094 C 1.546875 -0.246094 1.722656 -0.320312 1.84375 -0.472656 C 1.96875 -0.621094 2.03125 -0.832031 2.03125 -1.105469 C 2.03125 -1.382812 1.96875 -1.597656 1.84375 -1.75 C 1.722656 -1.898438 1.546875 -1.976562 1.316406 -1.976562 Z "/>
</g>
<g id="glyph-0-6">
<path d="M 0.714844 0 L 0.359375 0 L 0.359375 -3.289062 L 0.714844 -3.289062 Z "/>
</g>
<g id="glyph-0-7">
<path d="M 2.257812 -0.179688 C 2.257812 0.636719 1.867188 1.046875 1.085938 1.046875 C 0.808594 1.046875 0.570312 0.992188 0.363281 0.890625 L 0.363281 0.535156 C 0.613281 0.671875 0.851562 0.742188 1.082031 0.742188 C 1.628906 0.742188 1.902344 0.453125 1.902344 -0.128906 L 1.902344 -0.375 L 1.890625 -0.375 C 1.722656 -0.0898438 1.46875 0.0507812 1.128906 0.0507812 C 0.851562 0.0507812 0.628906 -0.046875 0.460938 -0.242188 C 0.292969 -0.441406 0.207031 -0.707031 0.207031 -1.039062 C 0.207031 -1.417969 0.300781 -1.71875 0.480469 -1.941406 C 0.664062 -2.164062 0.910156 -2.273438 1.226562 -2.273438 C 1.527344 -2.273438 1.746094 -2.152344 1.890625 -1.914062 L 1.902344 -1.914062 L 1.902344 -2.222656 L 2.257812 -2.222656 L 2.257812 -0.179688 M 1.902344 -1.003906 L 1.902344 -1.332031 C 1.902344 -1.507812 1.839844 -1.660156 1.722656 -1.785156 C 1.601562 -1.910156 1.453125 -1.976562 1.277344 -1.976562 C 1.054688 -1.976562 0.882812 -1.894531 0.757812 -1.734375 C 0.636719 -1.574219 0.574219 -1.351562 0.574219 -1.0625 C 0.574219 -0.816406 0.632812 -0.617188 0.75 -0.46875 C 0.871094 -0.320312 1.027344 -0.246094 1.226562 -0.246094 C 1.425781 -0.246094 1.589844 -0.316406 1.714844 -0.460938 C 1.839844 -0.601562 1.902344 -0.785156 1.902344 -1.003906 Z "/>
</g>
<g id="glyph-0-8">
<path d="M 2.128906 -2.222656 L 1.105469 0.355469 C 0.925781 0.816406 0.667969 1.046875 0.339844 1.046875 C 0.246094 1.046875 0.167969 1.035156 0.105469 1.019531 L 0.105469 0.699219 C 0.183594 0.726562 0.253906 0.738281 0.316406 0.738281 C 0.496094 0.738281 0.628906 0.628906 0.71875 0.417969 L 0.898438 -0.00390625 L 0.03125 -2.222656 L 0.425781 -2.222656 L 1.027344 -0.511719 C 1.035156 -0.492188 1.046875 -0.433594 1.070312 -0.34375 L 1.085938 -0.34375 C 1.09375 -0.378906 1.105469 -0.433594 1.128906 -0.507812 L 1.761719 -2.222656 Z "/>
</g>
<g id="glyph-0-9">
</g>
<g id="glyph-0-10">
<path d="M 3.582031 0 L 3.21875 0 L 3.21875 -2.085938 C 3.21875 -2.253906 3.226562 -2.453125 3.25 -2.691406 L 3.238281 -2.691406 C 3.203125 -2.550781 3.175781 -2.453125 3.144531 -2.390625 L 2.082031 0 L 1.90625 0 L 0.84375 -2.375 C 0.8125 -2.441406 0.78125 -2.550781 0.75 -2.691406 L 0.742188 -2.691406 C 0.753906 -2.570312 0.757812 -2.363281 0.757812 -2.082031 L 0.757812 0 L 0.40625 0 L 0.40625 -3.113281 L 0.890625 -3.113281 L 1.84375 -0.941406 C 1.917969 -0.773438 1.964844 -0.652344 1.988281 -0.570312 L 2 -0.570312 C 2.0625 -0.738281 2.113281 -0.867188 2.152344 -0.949219 L 3.125 -3.113281 L 3.582031 -3.113281 Z "/>
</g>
<g id="glyph-0-11">
<path d="M 1.949219 0 L 1.59375 0 L 1.59375 -0.347656 L 1.585938 -0.347656 C 1.429688 -0.0820312 1.203125 0.0507812 0.902344 0.0507812 C 0.679688 0.0507812 0.507812 -0.0078125 0.382812 -0.125 C 0.257812 -0.242188 0.195312 -0.394531 0.195312 -0.589844 C 0.195312 -1.003906 0.441406 -1.246094 0.929688 -1.316406 L 1.59375 -1.410156 C 1.59375 -1.785156 1.441406 -1.976562 1.136719 -1.976562 C 0.871094 -1.976562 0.628906 -1.882812 0.414062 -1.703125 L 0.414062 -2.066406 C 0.628906 -2.203125 0.882812 -2.273438 1.167969 -2.273438 C 1.691406 -2.273438 1.949219 -1.996094 1.949219 -1.445312 L 1.949219 0 M 1.59375 -1.125 L 1.058594 -1.050781 C 0.894531 -1.027344 0.769531 -0.984375 0.6875 -0.925781 C 0.601562 -0.867188 0.558594 -0.765625 0.558594 -0.617188 C 0.558594 -0.507812 0.597656 -0.417969 0.675781 -0.351562 C 0.753906 -0.28125 0.855469 -0.246094 0.984375 -0.246094 C 1.160156 -0.246094 1.308594 -0.308594 1.421875 -0.433594 C 1.539062 -0.554688 1.59375 -0.714844 1.59375 -0.902344 Z "/>
</g>
<g id="glyph-0-12">
<path d="M 0.726562 -0.320312 L 0.714844 -0.320312 L 0.714844 1.023438 L 0.359375 1.023438 L 0.359375 -2.222656 L 0.714844 -2.222656 L 0.714844 -1.832031 L 0.726562 -1.832031 C 0.898438 -2.125 1.15625 -2.273438 1.492188 -2.273438 C 1.78125 -2.273438 2.003906 -2.175781 2.164062 -1.976562 C 2.324219 -1.777344 2.402344 -1.511719 2.402344 -1.175781 C 2.402344 -0.804688 2.3125 -0.507812 2.132812 -0.28125 C 1.953125 -0.0585938 1.703125 0.0507812 1.390625 0.0507812 C 1.101562 0.0507812 0.882812 -0.0742188 0.726562 -0.320312 M 0.714844 -1.21875 L 0.714844 -0.90625 C 0.714844 -0.722656 0.777344 -0.566406 0.894531 -0.4375 C 1.015625 -0.3125 1.164062 -0.246094 1.351562 -0.246094 C 1.566406 -0.246094 1.734375 -0.328125 1.855469 -0.496094 C 1.980469 -0.660156 2.039062 -0.890625 2.039062 -1.183594 C 2.039062 -1.429688 1.984375 -1.625 1.867188 -1.765625 C 1.753906 -1.90625 1.597656 -1.976562 1.402344 -1.976562 C 1.195312 -1.976562 1.03125 -1.902344 0.90625 -1.757812 C 0.777344 -1.613281 0.714844 -1.433594 0.714844 -1.21875 Z "/>
</g>
<g id="glyph-0-13">
<path d="M 0.542969 -2.785156 C 0.480469 -2.785156 0.425781 -2.808594 0.378906 -2.851562 C 0.335938 -2.894531 0.3125 -2.949219 0.3125 -3.015625 C 0.3125 -3.082031 0.335938 -3.136719 0.378906 -3.183594 C 0.425781 -3.226562 0.480469 -3.25 0.542969 -3.25 C 0.609375 -3.25 0.664062 -3.226562 0.707031 -3.183594 C 0.753906 -3.136719 0.777344 -3.082031 0.777344 -3.015625 C 0.777344 -2.953125 0.753906 -2.898438 0.707031 -2.851562 C 0.664062 -2.808594 0.609375 -2.785156 0.542969 -2.785156 M 0.714844 0 L 0.359375 0 L 0.359375 -2.222656 L 0.714844 -2.222656 Z "/>
</g>
</g>
</defs>
<g fill="rgb(100%, 100%, 100%)" fill-opacity="1">
<use xlink:href="#glyph-0-0" x="30" y="24.794922"/>
<use xlink:href="#glyph-0-1" x="32" y="24.794922"/>
<use xlink:href="#glyph-0-2" x="34" y="24.794922"/>
<use xlink:href="#glyph-0-3" x="36" y="24.794922"/>
<use xlink:href="#glyph-0-4" x="39" y="24.794922"/>
<use xlink:href="#glyph-0-5" x="42" y="24.794922"/>
<use xlink:href="#glyph-0-6" x="45" y="24.794922"/>
<use xlink:href="#glyph-0-5" x="46" y="24.794922"/>
<use xlink:href="#glyph-0-7" x="49" y="24.794922"/>
<use xlink:href="#glyph-0-8" x="52" y="24.794922"/>
<use xlink:href="#glyph-0-9" x="54" y="24.794922"/>
<use xlink:href="#glyph-0-10" x="55" y="24.794922"/>
<use xlink:href="#glyph-0-11" x="59" y="24.794922"/>
<use xlink:href="#glyph-0-12" x="61" y="24.794922"/>
<use xlink:href="#glyph-0-12" x="64" y="24.794922"/>
<use xlink:href="#glyph-0-13" x="67" y="24.794922"/>
<use xlink:href="#glyph-0-4" x="68" y="24.794922"/>
<use xlink:href="#glyph-0-7" x="71" y="24.794922"/>
</g>
</svg>
