<?xml version="1.0" encoding="UTF-8"?>
<svg xmlns="http://www.w3.org/2000/svg" xmlns:xlink="http://www.w3.org/1999/xlink" width="1920" height="1080" viewBox="0 0 1920 1080">
<defs>
<g>
<g id="glyph-0-0">
<path d="M 6.066406 0 L 1.222656 0 L 1.222656 -9.335938 L 2.316406 -9.335938 L 2.316406 -0.988281 L 6.066406 -0.988281 Z "/>
</g>
<g id="glyph-0-1">
<path d="M 8.054688 -3.777344 C 8.054688 -1.15625 6.871094 0.15625 4.503906 0.15625 C 2.238281 0.15625 1.105469 -1.105469 1.105469 -3.625 L 1.105469 -9.335938 L 2.199219 -9.335938 L 2.199219 -3.699219 C 2.199219 -1.785156 3.007812 -0.828125 4.621094 -0.828125 C 6.179688 -0.828125 6.960938 -1.75 6.960938 -3.601562 L 6.960938 -9.335938 L 8.054688 -9.335938 Z "/>
</g>
<g id="glyph-0-2">
<path d="M 6.746094 -8.347656 L 4.050781 -8.347656 L 4.050781 0 L 2.957031 0 L 2.957031 -8.347656 L 0.265625 -8.347656 L 0.265625 -9.335938 L 6.746094 -9.335938 Z "/>
</g>
</g>
</defs>
<g fill="rgb(100%, 100%, 100%)" fill-opacity="1">
<use xlink:href="#glyph-0-0" x="30" y="34.387695"/>
<use xlink:href="#glyph-0-1" x="36" y="34.387695"/>
<use xlink:href="#glyph-0-2" x="45" y="34.387695"/>
</g>
</svg>
